<?xml version="1.0" encoding="utf-8" standalone="no"?>
<!DOCTYPE svg PUBLIC "-//W3C//DTD SVG 1.1//EN"
  "http://www.w3.org/Graphics/SVG/1.1/DTD/svg11.dtd">
<!-- Created with matplotlib (https://matplotlib.org/) -->
<svg height="58.100603pt" version="1.1" viewBox="0 0 86.052013 58.100603" width="86.052013pt" xmlns="http://www.w3.org/2000/svg" xmlns:xlink="http://www.w3.org/1999/xlink">
 <metadata>
  <rdf:RDF xmlns:cc="http://creativecommons.org/ns#" xmlns:dc="http://purl.org/dc/elements/1.1/" xmlns:rdf="http://www.w3.org/1999/02/22-rdf-syntax-ns#">
   <cc:Work>
    <dc:type rdf:resource="http://purl.org/dc/dcmitype/StillImage"/>
    <dc:date>2023-07-11T17:20:40.274753</dc:date>
    <dc:format>image/svg+xml</dc:format>
    <dc:creator>
     <cc:Agent>
      <dc:title>Matplotlib v3.3.4, https://matplotlib.org/</dc:title>
     </cc:Agent>
    </dc:creator>
   </cc:Work>
  </rdf:RDF>
 </metadata>
 <defs>
  <style type="text/css">*{stroke-linecap:butt;stroke-linejoin:round;}</style>
 </defs>
 <g id="figure_1">
  <g id="patch_1">
   <path d="M 0 58.100603 
L 86.052013 58.100603 
L 86.052013 0 
L 0 0 
z
" style="fill:none;"/>
  </g>
  <g id="axes_1">
   <g id="patch_2">
    <path d="M 30.882813 34.75529 
L 71.902012 34.75529 
L 71.902012 10.778906 
L 30.882813 10.778906 
z
" style="fill:#ffffff;"/>
   </g>
   <g id="PathCollection_1">
    <path clip-path="url(#p2fd473ac83)" d="M 47.005377 21.130941 
C 47.598389 21.130941 48.167193 20.895335 48.586516 20.476012 
C 49.005839 20.056689 49.241445 19.487885 49.241445 18.894873 
C 49.241445 18.301861 49.005839 17.733057 48.586516 17.313734 
C 48.167193 16.894411 47.598389 16.658805 47.005377 16.658805 
C 46.412365 16.658805 45.843561 16.894411 45.424238 17.313734 
C 45.004915 17.733057 44.769309 18.301861 44.769309 18.894873 
C 44.769309 19.487885 45.004915 20.056689 45.424238 20.476012 
C 45.843561 20.895335 46.412365 21.130941 47.005377 21.130941 
z
" style="fill:#1f77b4;stroke:#ffffff;stroke-width:0.357771;"/>
    <path clip-path="url(#p2fd473ac83)" d="M 39.731499 24.269148 
C 40.324511 24.269148 40.893315 24.033542 41.312638 23.614219 
C 41.731961 23.194896 41.967567 22.626093 41.967567 22.03308 
C 41.967567 21.440068 41.731961 20.871264 41.312638 20.451942 
C 40.893315 20.032619 40.324511 19.797012 39.731499 19.797012 
C 39.138487 19.797012 38.569683 20.032619 38.15036 20.451942 
C 37.731037 20.871264 37.495431 21.440068 37.495431 22.03308 
C 37.495431 22.626093 37.731037 23.194896 38.15036 23.614219 
C 38.569683 24.033542 39.138487 24.269148 39.731499 24.269148 
z
" style="fill:#ff7f0e;stroke:#ffffff;stroke-width:0.357771;"/>
    <path clip-path="url(#p2fd473ac83)" d="M 30.973039 36.84093 
C 31.566051 36.84093 32.134855 36.605324 32.554178 36.186001 
C 32.973501 35.766678 33.209107 35.197874 33.209107 34.604862 
C 33.209107 34.01185 32.973501 33.443046 32.554178 33.023723 
C 32.134855 32.6044 31.566051 32.368794 30.973039 32.368794 
C 30.380027 32.368794 29.811223 32.6044 29.3919 33.023723 
C 28.972577 33.443046 28.736971 34.01185 28.736971 34.604862 
C 28.736971 35.197874 28.972577 35.766678 29.3919 36.186001 
C 29.811223 36.605324 30.380027 36.84093 30.973039 36.84093 
z
" style="fill:#d62728;stroke:#ffffff;stroke-width:0.357771;"/>
    <path clip-path="url(#p2fd473ac83)" d="M 31.744343 35.568871 
C 32.337356 35.568871 32.906159 35.333265 33.325482 34.913942 
C 33.744805 34.494619 33.980411 33.925816 33.980411 33.332803 
C 33.980411 32.739791 33.744805 32.170987 33.325482 31.751665 
C 32.906159 31.332342 32.337356 31.096735 31.744343 31.096735 
C 31.151331 31.096735 30.582527 31.332342 30.163205 31.751665 
C 29.743882 32.170987 29.508275 32.739791 29.508275 33.332803 
C 29.508275 33.925816 29.743882 34.494619 30.163205 34.913942 
C 30.582527 35.333265 31.151331 35.568871 31.744343 35.568871 
z
" style="fill:#2ca02c;stroke:#ffffff;stroke-width:0.357771;"/>
    <path clip-path="url(#p2fd473ac83)" d="M 51.177562 19.916001 
C 51.770575 19.916001 52.339378 19.680395 52.758701 19.261072 
C 53.178024 18.841749 53.41363 18.272945 53.41363 17.679933 
C 53.41363 17.086921 53.178024 16.518117 52.758701 16.098794 
C 52.339378 15.679471 51.770575 15.443865 51.177562 15.443865 
C 50.58455 15.443865 50.015747 15.679471 49.596424 16.098794 
C 49.177101 16.518117 48.941494 17.086921 48.941494 17.679933 
C 48.941494 18.272945 49.177101 18.841749 49.596424 19.261072 
C 50.015747 19.680395 50.58455 19.916001 51.177562 19.916001 
z
" style="fill:#1f77b4;stroke:#ffffff;stroke-width:0.357771;"/>
    <path clip-path="url(#p2fd473ac83)" d="M 36.644772 28.273338 
C 37.237784 28.273338 37.806588 28.037732 38.225911 27.618409 
C 38.645234 27.199086 38.88084 26.630282 38.88084 26.03727 
C 38.88084 25.444258 38.645234 24.875454 38.225911 24.456131 
C 37.806588 24.036808 37.237784 23.801202 36.644772 23.801202 
C 36.05176 23.801202 35.482956 24.036808 35.063633 24.456131 
C 34.64431 24.875454 34.408704 25.444258 34.408704 26.03727 
C 34.408704 26.630282 34.64431 27.199086 35.063633 27.618409 
C 35.482956 28.037732 36.05176 28.273338 36.644772 28.273338 
z
" style="fill:#ff7f0e;stroke:#ffffff;stroke-width:0.357771;"/>
    <path clip-path="url(#p2fd473ac83)" d="M 30.96068 36.861448 
C 31.553692 36.861448 32.122496 36.625842 32.541819 36.206519 
C 32.961142 35.787196 33.196748 35.218392 33.196748 34.62538 
C 33.196748 34.032368 32.961142 33.463564 32.541819 33.044241 
C 32.122496 32.624918 31.553692 32.389312 30.96068 32.389312 
C 30.367668 32.389312 29.798864 32.624918 29.379541 33.044241 
C 28.960219 33.463564 28.724612 34.032368 28.724612 34.62538 
C 28.724612 35.218392 28.960219 35.787196 29.379541 36.206519 
C 29.798864 36.625842 30.367668 36.861448 30.96068 36.861448 
z
" style="fill:#d62728;stroke:#ffffff;stroke-width:0.357771;"/>
    <path clip-path="url(#p2fd473ac83)" d="M 31.651551 35.721404 
C 32.244563 35.721404 32.813367 35.485797 33.23269 35.066474 
C 33.652013 34.647151 33.887619 34.078348 33.887619 33.485336 
C 33.887619 32.892323 33.652013 32.32352 33.23269 31.904197 
C 32.813367 31.484874 32.244563 31.249268 31.651551 31.249268 
C 31.058539 31.249268 30.489735 31.484874 30.070412 31.904197 
C 29.651089 32.32352 29.415483 32.892323 29.415483 33.485336 
C 29.415483 34.078348 29.651089 34.647151 30.070412 35.066474 
C 30.489735 35.485797 31.058539 35.721404 31.651551 35.721404 
z
" style="fill:#2ca02c;stroke:#ffffff;stroke-width:0.357771;"/>
    <path clip-path="url(#p2fd473ac83)" d="M 40.085951 26.426117 
C 40.678963 26.426117 41.247767 26.190511 41.66709 25.771188 
C 42.086413 25.351865 42.322019 24.783061 42.322019 24.190049 
C 42.322019 23.597037 42.086413 23.028233 41.66709 22.60891 
C 41.247767 22.189587 40.678963 21.953981 40.085951 21.953981 
C 39.492939 21.953981 38.924135 22.189587 38.504812 22.60891 
C 38.085489 23.028233 37.849883 23.597037 37.849883 24.190049 
C 37.849883 24.783061 38.085489 25.351865 38.504812 25.771188 
C 38.924135 26.190511 39.492939 26.426117 40.085951 26.426117 
z
" style="fill:#1f77b4;stroke:#ffffff;stroke-width:0.357771;"/>
    <path clip-path="url(#p2fd473ac83)" d="M 32.19733 34.810355 
C 32.790342 34.810355 33.359146 34.574749 33.778469 34.155426 
C 34.197792 33.736103 34.433398 33.1673 34.433398 32.574287 
C 34.433398 31.981275 34.197792 31.412471 33.778469 30.993149 
C 33.359146 30.573826 32.790342 30.338219 32.19733 30.338219 
C 31.604318 30.338219 31.035514 30.573826 30.616191 30.993149 
C 30.196868 31.412471 29.961262 31.981275 29.961262 32.574287 
C 29.961262 33.1673 30.196868 33.736103 30.616191 34.155426 
C 31.035514 34.574749 31.604318 34.810355 32.19733 34.810355 
z
" style="fill:#ff7f0e;stroke:#ffffff;stroke-width:0.357771;"/>
    <path clip-path="url(#p2fd473ac83)" d="M 30.932868 36.90773 
C 31.52588 36.90773 32.094684 36.672124 32.514007 36.252801 
C 32.93333 35.833478 33.168936 35.264674 33.168936 34.671662 
C 33.168936 34.07865 32.93333 33.509846 32.514007 33.090523 
C 32.094684 32.6712 31.52588 32.435594 30.932868 32.435594 
C 30.339856 32.435594 29.771052 32.6712 29.351729 33.090523 
C 28.932406 33.509846 28.6968 34.07865 28.6968 34.671662 
C 28.6968 35.264674 28.932406 35.833478 29.351729 36.252801 
C 29.771052 36.672124 30.339856 36.90773 30.932868 36.90773 
z
" style="fill:#d62728;stroke:#ffffff;stroke-width:0.357771;"/>
    <path clip-path="url(#p2fd473ac83)" d="M 31.467146 36.026891 
C 32.060158 36.026891 32.628962 35.791284 33.048285 35.371961 
C 33.467608 34.952639 33.703214 34.383835 33.703214 33.790823 
C 33.703214 33.19781 33.467608 32.629007 33.048285 32.209684 
C 32.628962 31.790361 32.060158 31.554755 31.467146 31.554755 
C 30.874134 31.554755 30.30533 31.790361 29.886007 32.209684 
C 29.466684 32.629007 29.231078 33.19781 29.231078 33.790823 
C 29.231078 34.383835 29.466684 34.952639 29.886007 35.371961 
C 30.30533 35.791284 30.874134 36.026891 31.467146 36.026891 
z
" style="fill:#2ca02c;stroke:#ffffff;stroke-width:0.357771;"/>
    <path clip-path="url(#p2fd473ac83)" d="M 41.01716 25.941327 
C 41.610172 25.941327 42.178976 25.705721 42.598298 25.286398 
C 43.017621 24.867075 43.253228 24.298271 43.253228 23.705259 
C 43.253228 23.112247 43.017621 22.543443 42.598298 22.12412 
C 42.178976 21.704797 41.610172 21.469191 41.01716 21.469191 
C 40.424148 21.469191 39.855344 21.704797 39.436021 22.12412 
C 39.016698 22.543443 38.781092 23.112247 38.781092 23.705259 
C 38.781092 24.298271 39.016698 24.867075 39.436021 25.286398 
C 39.855344 25.705721 40.424148 25.941327 41.01716 25.941327 
z
" style="fill:#1f77b4;stroke:#ffffff;stroke-width:0.357771;"/>
    <path clip-path="url(#p2fd473ac83)" d="M 31.139492 36.562138 
C 31.732504 36.562138 32.301308 36.326532 32.720631 35.907209 
C 33.139954 35.487886 33.37556 34.919082 33.37556 34.32607 
C 33.37556 33.733058 33.139954 33.164254 32.720631 32.744931 
C 32.301308 32.325608 31.732504 32.090002 31.139492 32.090002 
C 30.54648 32.090002 29.977676 32.325608 29.558353 32.744931 
C 29.139031 33.164254 28.903424 33.733058 28.903424 34.32607 
C 28.903424 34.919082 29.139031 35.487886 29.558353 35.907209 
C 29.977676 36.326532 30.54648 36.562138 31.139492 36.562138 
z
" style="fill:#ff7f0e;stroke:#ffffff;stroke-width:0.357771;"/>
    <path clip-path="url(#p2fd473ac83)" d="M 30.906783 36.951258 
C 31.499795 36.951258 32.068599 36.715652 32.487922 36.296329 
C 32.907245 35.877006 33.142851 35.308202 33.142851 34.71519 
C 33.142851 34.122178 32.907245 33.553374 32.487922 33.134051 
C 32.068599 32.714728 31.499795 32.479122 30.906783 32.479122 
C 30.313771 32.479122 29.744967 32.714728 29.325644 33.134051 
C 28.906321 33.553374 28.670715 34.122178 28.670715 34.71519 
C 28.670715 35.308202 28.906321 35.877006 29.325644 36.296329 
C 29.744967 36.715652 30.313771 36.951258 30.906783 36.951258 
z
" style="fill:#d62728;stroke:#ffffff;stroke-width:0.357771;"/>
    <path clip-path="url(#p2fd473ac83)" d="M 31.256322 36.37162 
C 31.849334 36.37162 32.418138 36.136014 32.837461 35.716691 
C 33.256783 35.297368 33.49239 34.728565 33.49239 34.135552 
C 33.49239 33.54254 33.256783 32.973737 32.837461 32.554414 
C 32.418138 32.135091 31.849334 31.899485 31.256322 31.899485 
C 30.66331 31.899485 30.094506 32.135091 29.675183 32.554414 
C 29.25586 32.973737 29.020254 33.54254 29.020254 34.135552 
C 29.020254 34.728565 29.25586 35.297368 29.675183 35.716691 
C 30.094506 36.136014 30.66331 36.37162 31.256322 36.37162 
z
" style="fill:#2ca02c;stroke:#ffffff;stroke-width:0.357771;"/>
    <path clip-path="url(#p2fd473ac83)" d="M 31.525411 35.949471 
C 32.118423 35.949471 32.687227 35.713865 33.10655 35.294542 
C 33.525873 34.875219 33.761479 34.306415 33.761479 33.713403 
C 33.761479 33.120391 33.525873 32.551587 33.10655 32.132264 
C 32.687227 31.712941 32.118423 31.477335 31.525411 31.477335 
C 30.932399 31.477335 30.363595 31.712941 29.944272 32.132264 
C 29.524949 32.551587 29.289343 33.120391 29.289343 33.713403 
C 29.289343 34.306415 29.524949 34.875219 29.944272 35.294542 
C 30.363595 35.713865 30.932399 35.949471 31.525411 35.949471 
z
" style="fill:#1f77b4;stroke:#ffffff;stroke-width:0.357771;"/>
    <path clip-path="url(#p2fd473ac83)" d="M 30.965826 36.852623 
C 31.558838 36.852623 32.127642 36.617017 32.546965 36.197694 
C 32.966288 35.778371 33.201894 35.209567 33.201894 34.616555 
C 33.201894 34.023543 32.966288 33.454739 32.546965 33.035416 
C 32.127642 32.616093 31.558838 32.380487 30.965826 32.380487 
C 30.372814 32.380487 29.80401 32.616093 29.384687 33.035416 
C 28.965364 33.454739 28.729758 34.023543 28.729758 34.616555 
C 28.729758 35.209567 28.965364 35.778371 29.384687 36.197694 
C 29.80401 36.617017 30.372814 36.852623 30.965826 36.852623 
z
" style="fill:#ff7f0e;stroke:#ffffff;stroke-width:0.357771;"/>
    <path clip-path="url(#p2fd473ac83)" d="M 30.891366 36.977034 
C 31.484378 36.977034 32.053182 36.741428 32.472504 36.322105 
C 32.891827 35.902782 33.127434 35.333978 33.127434 34.740966 
C 33.127434 34.147954 32.891827 33.57915 32.472504 33.159827 
C 32.053182 32.740504 31.484378 32.504898 30.891366 32.504898 
C 30.298353 32.504898 29.72955 32.740504 29.310227 33.159827 
C 28.890904 33.57915 28.655298 34.147954 28.655298 34.740966 
C 28.655298 35.333978 28.890904 35.902782 29.310227 36.322105 
C 29.72955 36.741428 30.298353 36.977034 30.891366 36.977034 
z
" style="fill:#d62728;stroke:#ffffff;stroke-width:0.357771;"/>
    <path clip-path="url(#p2fd473ac83)" d="M 31.089947 36.646938 
C 31.682959 36.646938 32.251763 36.411332 32.671086 35.992009 
C 33.090408 35.572686 33.326015 35.003883 33.326015 34.41087 
C 33.326015 33.817858 33.090408 33.249054 32.671086 32.829732 
C 32.251763 32.410409 31.682959 32.174802 31.089947 32.174802 
C 30.496935 32.174802 29.928131 32.410409 29.508808 32.829732 
C 29.089485 33.249054 28.853879 33.817858 28.853879 34.41087 
C 28.853879 35.003883 29.089485 35.572686 29.508808 35.992009 
C 29.928131 36.411332 30.496935 36.646938 31.089947 36.646938 
z
" style="fill:#2ca02c;stroke:#ffffff;stroke-width:0.357771;"/>
    <path clip-path="url(#p2fd473ac83)" d="M 30.885386 36.987045 
C 31.478398 36.987045 32.047202 36.751439 32.466525 36.332116 
C 32.885848 35.912793 33.121454 35.343989 33.121454 34.750977 
C 33.121454 34.157965 32.885848 33.589161 32.466525 33.169838 
C 32.047202 32.750515 31.478398 32.514909 30.885386 32.514909 
C 30.292374 32.514909 29.72357 32.750515 29.304247 33.169838 
C 28.884924 33.589161 28.649318 34.157965 28.649318 34.750977 
C 28.649318 35.343989 28.884924 35.912793 29.304247 36.332116 
C 29.72357 36.751439 30.292374 36.987045 30.885386 36.987045 
z
" style="fill:#1f77b4;stroke:#ffffff;stroke-width:0.357771;"/>
    <path clip-path="url(#p2fd473ac83)" d="M 30.899392 36.963584 
C 31.492404 36.963584 32.061208 36.727977 32.48053 36.308655 
C 32.899853 35.889332 33.13546 35.320528 33.13546 34.727516 
C 33.13546 34.134504 32.899853 33.5657 32.48053 33.146377 
C 32.061208 32.727054 31.492404 32.491448 30.899392 32.491448 
C 30.306379 32.491448 29.737576 32.727054 29.318253 33.146377 
C 28.89893 33.5657 28.663324 34.134504 28.663324 34.727516 
C 28.663324 35.320528 28.89893 35.889332 29.318253 36.308655 
C 29.737576 36.727977 30.306379 36.963584 30.899392 36.963584 
z
" style="fill:#ff7f0e;stroke:#ffffff;stroke-width:0.357771;"/>
    <path clip-path="url(#p2fd473ac83)" d="M 30.88543 36.986972 
C 31.478442 36.986972 32.047246 36.751366 32.466569 36.332043 
C 32.885892 35.91272 33.121498 35.343916 33.121498 34.750904 
C 33.121498 34.157892 32.885892 33.589088 32.466569 33.169765 
C 32.047246 32.750442 31.478442 32.514836 30.88543 32.514836 
C 30.292418 32.514836 29.723614 32.750442 29.304291 33.169765 
C 28.884968 33.589088 28.649362 34.157892 28.649362 34.750904 
C 28.649362 35.343916 28.884968 35.91272 29.304291 36.332043 
C 29.723614 36.751366 30.292418 36.986972 30.88543 36.986972 
z
" style="fill:#d62728;stroke:#ffffff;stroke-width:0.357771;"/>
    <path clip-path="url(#p2fd473ac83)" d="M 30.954587 36.871374 
C 31.547599 36.871374 32.116403 36.635768 32.535726 36.216445 
C 32.955048 35.797122 33.190655 35.228318 33.190655 34.635306 
C 33.190655 34.042294 32.955048 33.47349 32.535726 33.054167 
C 32.116403 32.634844 31.547599 32.399238 30.954587 32.399238 
C 30.361575 32.399238 29.792771 32.634844 29.373448 33.054167 
C 28.954125 33.47349 28.718519 34.042294 28.718519 34.635306 
C 28.718519 35.228318 28.954125 35.797122 29.373448 36.216445 
C 29.792771 36.635768 30.361575 36.871374 30.954587 36.871374 
z
" style="fill:#2ca02c;stroke:#ffffff;stroke-width:0.357771;"/>
    <path clip-path="url(#p2fd473ac83)" d="M 190.990424 -17.872737 
L 192.108458 -18.990771 
L 193.226492 -17.872737 
L 194.344526 -18.990771 
L 193.226492 -20.108805 
L 194.344526 -21.226839 
L 193.226492 -22.344873 
L 192.108458 -21.226839 
L 190.990424 -22.344873 
L 189.87239 -21.226839 
L 190.990424 -20.108805 
L 189.87239 -18.990771 
z
" style="fill:#1f77b4;stroke:#ffffff;stroke-width:0.357771;"/>
    <path clip-path="url(#p2fd473ac83)" d="M 118.251645 -44.488475 
L 119.369679 -45.606509 
L 120.487713 -44.488475 
L 121.605747 -45.606509 
L 120.487713 -46.724543 
L 121.605747 -47.842577 
L 120.487713 -48.960611 
L 119.369679 -47.842577 
L 118.251645 -48.960611 
L 117.133611 -47.842577 
L 118.251645 -46.724543 
L 117.133611 -45.606509 
z
" style="fill:#ff7f0e;stroke:#ffffff;stroke-width:0.357771;"/>
    <path clip-path="url(#p2fd473ac83)" d="M 30.667042 35.548401 
L 31.785076 34.430367 
L 32.90311 35.548401 
L 34.021144 34.430367 
L 32.90311 33.312333 
L 34.021144 32.194299 
L 32.90311 31.076265 
L 31.785076 32.194299 
L 30.667042 31.076265 
L 29.549008 32.194299 
L 30.667042 33.312333 
L 29.549008 34.430367 
z
" style="fill:#d62728;stroke:#ffffff;stroke-width:0.357771;"/>
    <path clip-path="url(#p2fd473ac83)" d="M 38.380087 24.405463 
L 39.498121 23.287429 
L 40.616155 24.405463 
L 41.734189 23.287429 
L 40.616155 22.169395 
L 41.734189 21.051361 
L 40.616155 19.933327 
L 39.498121 21.051361 
L 38.380087 19.933327 
L 37.262053 21.051361 
L 38.380087 22.169395 
L 37.262053 23.287429 
z
" style="fill:#2ca02c;stroke:#ffffff;stroke-width:0.357771;"/>
    <path clip-path="url(#p2fd473ac83)" d="M 232.712278 -2.055573 
L 233.830312 -3.173607 
L 234.948346 -2.055573 
L 236.06638 -3.173607 
L 234.948346 -4.291641 
L 236.06638 -5.409675 
L 234.948346 -6.527709 
L 233.830312 -5.409675 
L 232.712278 -6.527709 
L 231.594244 -5.409675 
L 232.712278 -4.291641 
L 231.594244 -3.173607 
z
" style="fill:#1f77b4;stroke:#ffffff;stroke-width:0.357771;"/>
    <path clip-path="url(#p2fd473ac83)" d="M 87.384373 -22.933737 
L 88.502407 -24.051771 
L 89.620441 -22.933737 
L 90.738475 -24.051771 
L 89.620441 -25.169805 
L 90.738475 -26.287839 
L 89.620441 -27.405872 
L 88.502407 -26.287839 
L 87.384373 -27.405872 
L 86.266339 -26.287839 
L 87.384373 -25.169805 
L 86.266339 -24.051771 
z
" style="fill:#ff7f0e;stroke:#ffffff;stroke-width:0.357771;"/>
    <path clip-path="url(#p2fd473ac83)" d="M 30.543456 35.738279 
L 31.66149 34.620245 
L 32.779524 35.738279 
L 33.897558 34.620245 
L 32.779524 33.502211 
L 33.897558 32.384177 
L 32.779524 31.266143 
L 31.66149 32.384177 
L 30.543456 31.266143 
L 29.425422 32.384177 
L 30.543456 33.502211 
L 29.425422 34.620245 
z
" style="fill:#d62728;stroke:#ffffff;stroke-width:0.357771;"/>
    <path clip-path="url(#p2fd473ac83)" d="M 37.452165 25.709341 
L 38.570199 24.591307 
L 39.688233 25.709341 
L 40.806267 24.591307 
L 39.688233 23.473273 
L 40.806267 22.355239 
L 39.688233 21.237205 
L 38.570199 22.355239 
L 37.452165 21.237205 
L 36.334131 22.355239 
L 37.452165 23.473273 
L 36.334131 24.591307 
z
" style="fill:#2ca02c;stroke:#ffffff;stroke-width:0.357771;"/>
    <path clip-path="url(#p2fd473ac83)" d="M 121.796161 5.080047 
L 122.914195 3.962013 
L 124.032229 5.080047 
L 125.150263 3.962013 
L 124.032229 2.843979 
L 125.150263 1.725945 
L 124.032229 0.607911 
L 122.914195 1.725945 
L 121.796161 0.607911 
L 120.678127 1.725945 
L 121.796161 2.843979 
L 120.678127 3.962013 
z
" style="fill:#1f77b4;stroke:#ffffff;stroke-width:0.357771;"/>
    <path clip-path="url(#p2fd473ac83)" d="M 42.909955 16.891678 
L 44.027989 15.773644 
L 45.146023 16.891678 
L 46.264057 15.773644 
L 45.146023 14.65561 
L 46.264057 13.537576 
L 45.146023 12.419542 
L 44.027989 13.537576 
L 42.909955 12.419542 
L 41.791921 13.537576 
L 42.909955 14.65561 
L 41.791921 15.773644 
z
" style="fill:#ff7f0e;stroke:#ffffff;stroke-width:0.357771;"/>
    <path clip-path="url(#p2fd473ac83)" d="M 30.265334 36.174333 
L 31.383368 35.056299 
L 32.501402 36.174333 
L 33.619436 35.056299 
L 32.501402 33.938265 
L 33.619436 32.820231 
L 32.501402 31.702197 
L 31.383368 32.820231 
L 30.265334 31.702197 
L 29.1473 32.820231 
L 30.265334 33.938265 
L 29.1473 35.056299 
z
" style="fill:#d62728;stroke:#ffffff;stroke-width:0.357771;"/>
    <path clip-path="url(#p2fd473ac83)" d="M 35.608113 28.480548 
L 36.726147 27.362515 
L 37.844181 28.480548 
L 38.962215 27.362515 
L 37.844181 26.244481 
L 38.962215 25.126447 
L 37.844181 24.008413 
L 36.726147 25.126447 
L 35.608113 24.008413 
L 34.490079 25.126447 
L 35.608113 26.244481 
L 34.490079 27.362515 
z
" style="fill:#2ca02c;stroke:#ffffff;stroke-width:0.357771;"/>
    <path clip-path="url(#p2fd473ac83)" d="M 131.10825 6.381812 
L 132.226284 5.263778 
L 133.344318 6.381812 
L 134.462352 5.263778 
L 133.344318 4.145744 
L 134.462352 3.02771 
L 133.344318 1.909676 
L 132.226284 3.02771 
L 131.10825 1.909676 
L 129.990216 3.02771 
L 131.10825 4.145744 
L 129.990216 5.263778 
z
" style="fill:#1f77b4;stroke:#ffffff;stroke-width:0.357771;"/>
    <path clip-path="url(#p2fd473ac83)" d="M 32.331577 32.762497 
L 33.449611 31.644463 
L 34.567645 32.762497 
L 35.685679 31.644463 
L 34.567645 30.526429 
L 35.685679 29.408395 
L 34.567645 28.290361 
L 33.449611 29.408395 
L 32.331577 28.290361 
L 31.213543 29.408395 
L 32.331577 30.526429 
L 31.213543 31.644463 
z
" style="fill:#ff7f0e;stroke:#ffffff;stroke-width:0.357771;"/>
    <path clip-path="url(#p2fd473ac83)" d="M 30.004483 36.594805 
L 31.122517 35.476771 
L 32.240551 36.594805 
L 33.358585 35.476771 
L 32.240551 34.358737 
L 33.358585 33.240703 
L 32.240551 32.122669 
L 31.122517 33.240703 
L 30.004483 32.122669 
L 28.886449 33.240703 
L 30.004483 34.358737 
L 28.886449 35.476771 
z
" style="fill:#d62728;stroke:#ffffff;stroke-width:0.357771;"/>
    <path clip-path="url(#p2fd473ac83)" d="M 33.49987 31.280744 
L 34.617904 30.16271 
L 35.735938 31.280744 
L 36.853972 30.16271 
L 35.735938 29.044676 
L 36.853972 27.926642 
L 35.735938 26.808608 
L 34.617904 27.926642 
L 33.49987 26.808608 
L 32.381836 27.926642 
L 33.49987 29.044676 
L 32.381836 30.16271 
z
" style="fill:#2ca02c;stroke:#ffffff;stroke-width:0.357771;"/>
    <path clip-path="url(#p2fd473ac83)" d="M 36.190761 28.954146 
L 37.308795 27.836112 
L 38.426829 28.954146 
L 39.544863 27.836112 
L 38.426829 26.718078 
L 39.544863 25.600044 
L 38.426829 24.48201 
L 37.308795 25.600044 
L 36.190761 24.48201 
L 35.072727 25.600044 
L 36.190761 26.718078 
L 35.072727 27.836112 
z
" style="fill:#1f77b4;stroke:#ffffff;stroke-width:0.357771;"/>
    <path clip-path="url(#p2fd473ac83)" d="M 30.594912 35.63543 
L 31.712946 34.517396 
L 32.83098 35.63543 
L 33.949014 34.517396 
L 32.83098 33.399362 
L 33.949014 32.281328 
L 32.83098 31.163294 
L 31.712946 32.281328 
L 30.594912 31.163294 
L 29.476878 32.281328 
L 30.594912 33.399362 
L 29.476878 34.517396 
z
" style="fill:#ff7f0e;stroke:#ffffff;stroke-width:0.357771;"/>
    <path clip-path="url(#p2fd473ac83)" d="M 29.85031 36.848726 
L 30.968344 35.730692 
L 32.086378 36.848726 
L 33.204412 35.730692 
L 32.086378 34.612658 
L 33.204412 33.494624 
L 32.086378 32.37659 
L 30.968344 33.494624 
L 29.85031 32.37659 
L 28.732276 33.494624 
L 29.85031 34.612658 
L 28.732276 35.730692 
z
" style="fill:#d62728;stroke:#ffffff;stroke-width:0.357771;"/>
    <path clip-path="url(#p2fd473ac83)" d="M 31.83612 33.769516 
L 32.954154 32.651482 
L 34.072188 33.769516 
L 35.190222 32.651482 
L 34.072188 31.533448 
L 35.190222 30.415414 
L 34.072188 29.29738 
L 32.954154 30.415414 
L 31.83612 29.29738 
L 30.718086 30.415414 
L 31.83612 31.533448 
L 30.718086 32.651482 
z
" style="fill:#2ca02c;stroke:#ffffff;stroke-width:0.357771;"/>
    <path clip-path="url(#p2fd473ac83)" d="M 29.790516 36.948284 
L 30.90855 35.83025 
L 32.026584 36.948284 
L 33.144618 35.83025 
L 32.026584 34.712216 
L 33.144618 33.594182 
L 32.026584 32.476148 
L 30.90855 33.594182 
L 29.790516 32.476148 
L 28.672482 33.594182 
L 29.790516 34.712216 
L 28.672482 35.83025 
z
" style="fill:#1f77b4;stroke:#ffffff;stroke-width:0.357771;"/>
    <path clip-path="url(#p2fd473ac83)" d="M 29.93057 36.714991 
L 31.048604 35.596957 
L 32.166638 36.714991 
L 33.284672 35.596957 
L 32.166638 34.478923 
L 33.284672 33.360889 
L 32.166638 32.242855 
L 31.048604 33.360889 
L 29.93057 32.242855 
L 28.812536 33.360889 
L 29.93057 34.478923 
L 28.812536 35.596957 
z
" style="fill:#ff7f0e;stroke:#ffffff;stroke-width:0.357771;"/>
    <path clip-path="url(#p2fd473ac83)" d="M 29.790952 36.947567 
L 30.908986 35.829533 
L 32.02702 36.947567 
L 33.145054 35.829533 
L 32.02702 34.711499 
L 33.145054 33.593465 
L 32.02702 32.475431 
L 30.908986 33.593465 
L 29.790952 32.475431 
L 28.672918 33.593465 
L 29.790952 34.711499 
L 28.672918 35.829533 
z
" style="fill:#d62728;stroke:#ffffff;stroke-width:0.357771;"/>
    <path clip-path="url(#p2fd473ac83)" d="M 30.482521 35.819897 
L 31.600555 34.701863 
L 32.718589 35.819897 
L 33.836623 34.701863 
L 32.718589 33.583829 
L 33.836623 32.465795 
L 32.718589 31.347761 
L 31.600555 32.465795 
L 30.482521 31.347761 
L 29.364487 32.465795 
L 30.482521 33.583829 
L 29.364487 34.701863 
z
" style="fill:#2ca02c;stroke:#ffffff;stroke-width:0.357771;"/>
    <path clip-path="url(#p2fd473ac83)" d="M 835.429903 -60.637986 
L 835.429903 -57.475709 
L 838.59218 -57.475709 
L 838.59218 -60.637986 
z
" style="fill:#1f77b4;stroke:#ffffff;stroke-width:0.357771;"/>
    <path clip-path="url(#p2fd473ac83)" d="M 471.736004 -144.396026 
L 471.736004 -141.233748 
L 474.898282 -141.233748 
L 474.898282 -144.396026 
z
" style="fill:#ff7f0e;stroke:#ffffff;stroke-width:0.357771;"/>
    <path clip-path="url(#p2fd473ac83)" d="M 33.81299 27.079545 
L 33.81299 30.241823 
L 36.975268 30.241823 
L 36.975268 27.079545 
z
" style="fill:#d62728;stroke:#ffffff;stroke-width:0.357771;"/>
    <path clip-path="url(#p2fd473ac83)" d="M 72.378218 -8.323576 
L 72.378218 -5.161298 
L 75.540496 -5.161298 
L 75.540496 -8.323576 
z
" style="fill:#2ca02c;stroke:#ffffff;stroke-width:0.357771;"/>
    <path clip-path="url(#p2fd473ac83)" d="M 1044.039169 -28.408459 
L 1044.039169 -25.246181 
L 1047.201447 -25.246181 
L 1047.201447 -28.408459 
z
" style="fill:#1f77b4;stroke:#ffffff;stroke-width:0.357771;"/>
    <path clip-path="url(#p2fd473ac83)" d="M 317.399647 -115.999423 
L 317.399647 -112.837145 
L 320.561925 -112.837145 
L 320.561925 -115.999423 
z
" style="fill:#ff7f0e;stroke:#ffffff;stroke-width:0.357771;"/>
    <path clip-path="url(#p2fd473ac83)" d="M 33.195063 27.769858 
L 33.195063 30.932135 
L 36.357341 30.932135 
L 36.357341 27.769858 
z
" style="fill:#d62728;stroke:#ffffff;stroke-width:0.357771;"/>
    <path clip-path="url(#p2fd473ac83)" d="M 67.738604 -4.560195 
L 67.738604 -1.397917 
L 70.900882 -1.397917 
L 70.900882 -4.560195 
z
" style="fill:#2ca02c;stroke:#ffffff;stroke-width:0.357771;"/>
    <path clip-path="url(#p2fd473ac83)" d="M 489.458587 -13.172684 
L 489.458587 -10.010407 
L 492.620864 -10.010407 
L 492.620864 -13.172684 
z
" style="fill:#1f77b4;stroke:#ffffff;stroke-width:0.357771;"/>
    <path clip-path="url(#p2fd473ac83)" d="M 95.027554 -43.391646 
L 95.027554 -40.229369 
L 98.189832 -40.229369 
L 98.189832 -43.391646 
z
" style="fill:#ff7f0e;stroke:#ffffff;stroke-width:0.357771;"/>
    <path clip-path="url(#p2fd473ac83)" d="M 31.80445 29.471959 
L 31.80445 32.634237 
L 34.966727 32.634237 
L 34.966727 29.471959 
z
" style="fill:#d62728;stroke:#ffffff;stroke-width:0.357771;"/>
    <path clip-path="url(#p2fd473ac83)" d="M 58.518345 5.298057 
L 58.518345 8.460334 
L 61.680623 8.460334 
L 61.680623 5.298057 
z
" style="fill:#2ca02c;stroke:#ffffff;stroke-width:0.357771;"/>
    <path clip-path="url(#p2fd473ac83)" d="M 536.019032 -7.28779 
L 536.019032 -4.125512 
L 539.18131 -4.125512 
L 539.18131 -7.28779 
z
" style="fill:#1f77b4;stroke:#ffffff;stroke-width:0.357771;"/>
    <path clip-path="url(#p2fd473ac83)" d="M 42.135664 13.346434 
L 42.135664 16.508712 
L 45.297942 16.508712 
L 45.297942 13.346434 
z
" style="fill:#ff7f0e;stroke:#ffffff;stroke-width:0.357771;"/>
    <path clip-path="url(#p2fd473ac83)" d="M 30.500195 31.285699 
L 30.500195 34.447976 
L 33.662473 34.447976 
L 33.662473 31.285699 
z
" style="fill:#d62728;stroke:#ffffff;stroke-width:0.357771;"/>
    <path clip-path="url(#p2fd473ac83)" d="M 47.977132 12.095902 
L 47.977132 15.258179 
L 51.13941 15.258179 
L 51.13941 12.095902 
z
" style="fill:#2ca02c;stroke:#ffffff;stroke-width:0.357771;"/>
    <path clip-path="url(#p2fd473ac83)" d="M 61.431587 12.754146 
L 61.431587 15.916424 
L 64.593865 15.916424 
L 64.593865 12.754146 
z
" style="fill:#1f77b4;stroke:#ffffff;stroke-width:0.357771;"/>
    <path clip-path="url(#p2fd473ac83)" d="M 33.45234 27.012939 
L 33.45234 30.175217 
L 36.614618 30.175217 
L 36.614618 27.012939 
z
" style="fill:#ff7f0e;stroke:#ffffff;stroke-width:0.357771;"/>
    <path clip-path="url(#p2fd473ac83)" d="M 29.729331 32.473478 
L 29.729331 35.635755 
L 32.891608 35.635755 
L 32.891608 32.473478 
z
" style="fill:#d62728;stroke:#ffffff;stroke-width:0.357771;"/>
    <path clip-path="url(#p2fd473ac83)" d="M 39.658383 20.687548 
L 39.658383 23.849826 
L 42.820661 23.849826 
L 42.820661 20.687548 
z
" style="fill:#2ca02c;stroke:#ffffff;stroke-width:0.357771;"/>
    <path clip-path="url(#p2fd473ac83)" d="M 29.430359 32.959769 
L 29.430359 36.122046 
L 32.592637 36.122046 
L 32.592637 32.959769 
z
" style="fill:#1f77b4;stroke:#ffffff;stroke-width:0.357771;"/>
    <path clip-path="url(#p2fd473ac83)" d="M 30.130632 31.820138 
L 30.130632 34.982416 
L 33.292909 34.982416 
L 33.292909 31.820138 
z
" style="fill:#ff7f0e;stroke:#ffffff;stroke-width:0.357771;"/>
    <path clip-path="url(#p2fd473ac83)" d="M 29.43254 32.95644 
L 29.43254 36.118718 
L 32.594818 36.118718 
L 32.594818 32.95644 
z
" style="fill:#d62728;stroke:#ffffff;stroke-width:0.357771;"/>
    <path clip-path="url(#p2fd473ac83)" d="M 32.890385 27.872166 
L 32.890385 31.034444 
L 36.052663 31.034444 
L 36.052663 27.872166 
z
" style="fill:#2ca02c;stroke:#ffffff;stroke-width:0.357771;"/>
   </g>
   <g id="matplotlib.axis_1">
    <g id="xtick_1">
     <g id="line2d_1">
      <defs>
       <path d="M 0 0 
L 0 3.5 
" id="mc9625780e4" style="stroke:#000000;stroke-width:0.8;"/>
      </defs>
      <g>
       <use style="stroke:#000000;stroke-width:0.8;" x="30.882813" xlink:href="#mc9625780e4" y="34.75529"/>
      </g>
     </g>
     <g id="text_1">
      <!-- 0.0 -->
      <g transform="translate(23.932813 48.913103)scale(0.1 -0.1)">
       <defs>
        <path d="M 4.15625 35.296875 
Q 4.15625 48 6.765625 55.734375 
Q 9.375 63.484375 14.515625 67.671875 
Q 19.671875 71.875 27.484375 71.875 
Q 33.25 71.875 37.59375 69.546875 
Q 41.9375 67.234375 44.765625 62.859375 
Q 47.609375 58.5 49.21875 52.21875 
Q 50.828125 45.953125 50.828125 35.296875 
Q 50.828125 22.703125 48.234375 14.96875 
Q 45.65625 7.234375 40.5 3 
Q 35.359375 -1.21875 27.484375 -1.21875 
Q 17.140625 -1.21875 11.234375 6.203125 
Q 4.15625 15.140625 4.15625 35.296875 
z
M 13.1875 35.296875 
Q 13.1875 17.671875 17.3125 11.828125 
Q 21.4375 6 27.484375 6 
Q 33.546875 6 37.671875 11.859375 
Q 41.796875 17.71875 41.796875 35.296875 
Q 41.796875 52.984375 37.671875 58.78125 
Q 33.546875 64.59375 27.390625 64.59375 
Q 21.34375 64.59375 17.71875 59.46875 
Q 13.1875 52.9375 13.1875 35.296875 
z
" id="ArialMT-48"/>
        <path d="M 9.078125 0 
L 9.078125 10.015625 
L 19.09375 10.015625 
L 19.09375 0 
z
" id="ArialMT-46"/>
       </defs>
       <use xlink:href="#ArialMT-48"/>
       <use x="55.615234" xlink:href="#ArialMT-46"/>
       <use x="83.398438" xlink:href="#ArialMT-48"/>
      </g>
     </g>
    </g>
    <g id="xtick_2">
     <g id="line2d_2">
      <g>
       <use style="stroke:#000000;stroke-width:0.8;" x="71.902012" xlink:href="#mc9625780e4" y="34.75529"/>
      </g>
     </g>
     <g id="text_2">
      <!-- 0.5 -->
      <g transform="translate(64.952012 48.913103)scale(0.1 -0.1)">
       <defs>
        <path d="M 4.15625 18.75 
L 13.375 19.53125 
Q 14.40625 12.796875 18.140625 9.390625 
Q 21.875 6 27.15625 6 
Q 33.5 6 37.890625 10.78125 
Q 42.28125 15.578125 42.28125 23.484375 
Q 42.28125 31 38.0625 35.34375 
Q 33.84375 39.703125 27 39.703125 
Q 22.75 39.703125 19.328125 37.765625 
Q 15.921875 35.84375 13.96875 32.765625 
L 5.71875 33.84375 
L 12.640625 70.609375 
L 48.25 70.609375 
L 48.25 62.203125 
L 19.671875 62.203125 
L 15.828125 42.96875 
Q 22.265625 47.46875 29.34375 47.46875 
Q 38.71875 47.46875 45.15625 40.96875 
Q 51.609375 34.46875 51.609375 24.265625 
Q 51.609375 14.546875 45.953125 7.46875 
Q 39.0625 -1.21875 27.15625 -1.21875 
Q 17.390625 -1.21875 11.203125 4.25 
Q 5.03125 9.71875 4.15625 18.75 
z
" id="ArialMT-53"/>
       </defs>
       <use xlink:href="#ArialMT-48"/>
       <use x="55.615234" xlink:href="#ArialMT-46"/>
       <use x="83.398438" xlink:href="#ArialMT-53"/>
      </g>
     </g>
    </g>
   </g>
   <g id="matplotlib.axis_2">
    <g id="ytick_1">
     <g id="line2d_3">
      <defs>
       <path d="M 0 0 
L -3.5 0 
" id="mb35f48beb0" style="stroke:#000000;stroke-width:0.8;"/>
      </defs>
      <g>
       <use style="stroke:#000000;stroke-width:0.8;" x="30.882813" xlink:href="#mb35f48beb0" y="34.75529"/>
      </g>
     </g>
     <g id="text_3">
      <!-- 0 -->
      <g transform="translate(18.321875 38.334196)scale(0.1 -0.1)">
       <use xlink:href="#ArialMT-48"/>
      </g>
     </g>
    </g>
    <g id="ytick_2">
     <g id="line2d_4">
      <g>
       <use style="stroke:#000000;stroke-width:0.8;" x="30.882813" xlink:href="#mb35f48beb0" y="10.778906"/>
      </g>
     </g>
     <g id="text_4">
      <!-- 100 -->
      <g transform="translate(7.2 14.357812)scale(0.1 -0.1)">
       <defs>
        <path d="M 37.25 0 
L 28.46875 0 
L 28.46875 56 
Q 25.296875 52.984375 20.140625 49.953125 
Q 14.984375 46.921875 10.890625 45.40625 
L 10.890625 53.90625 
Q 18.265625 57.375 23.78125 62.296875 
Q 29.296875 67.234375 31.59375 71.875 
L 37.25 71.875 
z
" id="ArialMT-49"/>
       </defs>
       <use xlink:href="#ArialMT-49"/>
       <use x="55.615234" xlink:href="#ArialMT-48"/>
       <use x="111.230469" xlink:href="#ArialMT-48"/>
      </g>
     </g>
    </g>
   </g>
   <g id="patch_3">
    <path d="M 30.882813 34.75529 
L 30.882813 10.778906 
" style="fill:none;stroke:#000000;stroke-linecap:square;stroke-linejoin:miter;stroke-width:0.8;"/>
   </g>
   <g id="patch_4">
    <path d="M 30.882813 34.75529 
L 71.902012 34.75529 
" style="fill:none;stroke:#000000;stroke-linecap:square;stroke-linejoin:miter;stroke-width:0.8;"/>
   </g>
  </g>
 </g>
 <defs>
  <clipPath id="p2fd473ac83">
   <rect height="23.976384" width="41.0192" x="30.882813" y="10.778906"/>
  </clipPath>
 </defs>
</svg>
