<?xml version="1.0" encoding="utf-8" standalone="no"?>
<!DOCTYPE svg PUBLIC "-//W3C//DTD SVG 1.1//EN"
  "http://www.w3.org/Graphics/SVG/1.1/DTD/svg11.dtd">
<!-- Created with matplotlib (https://matplotlib.org/) -->
<svg height="145.064062pt" version="1.1" viewBox="0 0 254.432355 145.064062" width="254.432355pt" xmlns="http://www.w3.org/2000/svg" xmlns:xlink="http://www.w3.org/1999/xlink">
 <metadata>
  <rdf:RDF xmlns:cc="http://creativecommons.org/ns#" xmlns:dc="http://purl.org/dc/elements/1.1/" xmlns:rdf="http://www.w3.org/1999/02/22-rdf-syntax-ns#">
   <cc:Work>
    <dc:type rdf:resource="http://purl.org/dc/dcmitype/StillImage"/>
    <dc:date>2023-07-12T07:37:52.094294</dc:date>
    <dc:format>image/svg+xml</dc:format>
    <dc:creator>
     <cc:Agent>
      <dc:title>Matplotlib v3.3.4, https://matplotlib.org/</dc:title>
     </cc:Agent>
    </dc:creator>
   </cc:Work>
  </rdf:RDF>
 </metadata>
 <defs>
  <style type="text/css">*{stroke-linecap:butt;stroke-linejoin:round;}</style>
 </defs>
 <g id="figure_1">
  <g id="patch_1">
   <path d="M 0 145.064062 
L 254.432355 145.064062 
L 254.432355 0 
L 0 0 
z
" style="fill:none;"/>
  </g>
  <g id="axes_1">
   <g id="patch_2">
    <path d="M 30.882812 79.129152 
L 153.940413 79.129152 
L 153.940413 7.2 
L 30.882812 7.2 
z
" style="fill:#ffffff;"/>
   </g>
   <g id="PathCollection_1">
    <path clip-path="url(#p3adff31b56)" d="M 32.744898 76.545964 
C 33.682533 76.545964 34.58189 76.173438 35.244898 75.51043 
C 35.907906 74.847422 36.280432 73.948065 36.280432 73.01043 
C 36.280432 72.072795 35.907906 71.173438 35.244898 70.51043 
C 34.58189 69.847422 33.682533 69.474896 32.744898 69.474896 
C 31.807263 69.474896 30.907906 69.847422 30.244898 70.51043 
C 29.58189 71.173438 29.209364 72.072795 29.209364 73.01043 
C 29.209364 73.948065 29.58189 74.847422 30.244898 75.51043 
C 30.907906 76.173438 31.807263 76.545964 32.744898 76.545964 
z
" style="fill:#1f77b4;stroke:#ffffff;stroke-width:0.565685;"/>
    <path clip-path="url(#p3adff31b56)" d="M 31.904797 77.756639 
C 32.842432 77.756639 33.741789 77.384113 34.404797 76.721105 
C 35.067805 76.058098 35.440331 75.15874 35.440331 74.221105 
C 35.440331 73.283471 35.067805 72.384113 34.404797 71.721105 
C 33.741789 71.058098 32.842432 70.685572 31.904797 70.685572 
C 30.967162 70.685572 30.067805 71.058098 29.404797 71.721105 
C 28.741789 72.384113 28.369263 73.283471 28.369263 74.221105 
C 28.369263 75.15874 28.741789 76.058098 29.404797 76.721105 
C 30.067805 77.384113 30.967162 77.756639 31.904797 77.756639 
z
" style="fill:#ff7f0e;stroke:#ffffff;stroke-width:0.565685;"/>
    <path clip-path="url(#p3adff31b56)" d="M 30.893233 82.606653 
C 31.830868 82.606653 32.730225 82.234127 33.393233 81.571119 
C 34.056241 80.908111 34.428767 80.008753 34.428767 79.071119 
C 34.428767 78.133484 34.056241 77.234127 33.393233 76.571119 
C 32.730225 75.908111 31.830868 75.535585 30.893233 75.535585 
C 29.955599 75.535585 29.056241 75.908111 28.393233 76.571119 
C 27.730225 77.234127 27.357699 78.133484 27.357699 79.071119 
C 27.357699 80.008753 27.730225 80.908111 28.393233 81.571119 
C 29.056241 82.234127 29.955599 82.606653 30.893233 82.606653 
z
" style="fill:#d62728;stroke:#ffffff;stroke-width:0.565685;"/>
    <path clip-path="url(#p3adff31b56)" d="M 30.982316 82.115911 
C 31.91995 82.115911 32.819308 81.743385 33.482316 81.080377 
C 34.145323 80.417369 34.517849 79.518011 34.517849 78.580377 
C 34.517849 77.642742 34.145323 76.743385 33.482316 76.080377 
C 32.819308 75.417369 31.91995 75.044843 30.982316 75.044843 
C 30.044681 75.044843 29.145323 75.417369 28.482316 76.080377 
C 27.819308 76.743385 27.446782 77.642742 27.446782 78.580377 
C 27.446782 79.518011 27.819308 80.417369 28.482316 81.080377 
C 29.145323 81.743385 30.044681 82.115911 30.982316 82.115911 
z
" style="fill:#2ca02c;stroke:#ffffff;stroke-width:0.565685;"/>
    <path clip-path="url(#p3adff31b56)" d="M 33.226767 76.077257 
C 34.164402 76.077257 35.063759 75.704731 35.726767 75.041724 
C 36.389775 74.378716 36.762301 73.479358 36.762301 72.541724 
C 36.762301 71.604089 36.389775 70.704731 35.726767 70.041724 
C 35.063759 69.378716 34.164402 69.00619 33.226767 69.00619 
C 32.289133 69.00619 31.389775 69.378716 30.726767 70.041724 
C 30.063759 70.704731 29.691233 71.604089 29.691233 72.541724 
C 29.691233 73.479358 30.063759 74.378716 30.726767 75.041724 
C 31.389775 75.704731 32.289133 76.077257 33.226767 76.077257 
z
" style="fill:#1f77b4;stroke:#ffffff;stroke-width:0.565685;"/>
    <path clip-path="url(#p3adff31b56)" d="M 31.548294 79.301398 
C 32.485928 79.301398 33.385286 78.928872 34.048294 78.265865 
C 34.711301 77.602857 35.083827 76.703499 35.083827 75.765865 
C 35.083827 74.82823 34.711301 73.928872 34.048294 73.265865 
C 33.385286 72.602857 32.485928 72.230331 31.548294 72.230331 
C 30.610659 72.230331 29.711301 72.602857 29.048294 73.265865 
C 28.385286 73.928872 28.01276 74.82823 28.01276 75.765865 
C 28.01276 76.703499 28.385286 77.602857 29.048294 78.265865 
C 29.711301 78.928872 30.610659 79.301398 31.548294 79.301398 
z
" style="fill:#ff7f0e;stroke:#ffffff;stroke-width:0.565685;"/>
    <path clip-path="url(#p3adff31b56)" d="M 30.891806 82.614568 
C 31.82944 82.614568 32.728798 82.242042 33.391806 81.579034 
C 34.054814 80.916027 34.42734 80.016669 34.42734 79.079034 
C 34.42734 78.1414 34.054814 77.242042 33.391806 76.579034 
C 32.728798 75.916027 31.82944 75.543501 30.891806 75.543501 
C 29.954171 75.543501 29.054814 75.916027 28.391806 76.579034 
C 27.728798 77.242042 27.356272 78.1414 27.356272 79.079034 
C 27.356272 80.016669 27.728798 80.916027 28.391806 81.579034 
C 29.054814 82.242042 29.954171 82.614568 30.891806 82.614568 
z
" style="fill:#d62728;stroke:#ffffff;stroke-width:0.565685;"/>
    <path clip-path="url(#p3adff31b56)" d="M 30.971598 82.174756 
C 31.909233 82.174756 32.808591 81.802229 33.471598 81.139222 
C 34.134606 80.476214 34.507132 79.576856 34.507132 78.639222 
C 34.507132 77.701587 34.134606 76.802229 33.471598 76.139222 
C 32.808591 75.476214 31.909233 75.103688 30.971598 75.103688 
C 30.033964 75.103688 29.134606 75.476214 28.471598 76.139222 
C 27.808591 76.802229 27.436065 77.701587 27.436065 78.639222 
C 27.436065 79.576856 27.808591 80.476214 28.471598 81.139222 
C 29.134606 81.802229 30.033964 82.174756 30.971598 82.174756 
z
" style="fill:#2ca02c;stroke:#ffffff;stroke-width:0.565685;"/>
    <path clip-path="url(#p3adff31b56)" d="M 31.945735 78.588767 
C 32.883369 78.588767 33.782727 78.216241 34.445735 77.553233 
C 35.108742 76.890225 35.481268 75.990868 35.481268 75.053233 
C 35.481268 74.115598 35.108742 73.216241 34.445735 72.553233 
C 33.782727 71.890225 32.883369 71.517699 31.945735 71.517699 
C 31.0081 71.517699 30.108742 71.890225 29.445735 72.553233 
C 28.782727 73.216241 28.410201 74.115598 28.410201 75.053233 
C 28.410201 75.990868 28.782727 76.890225 29.445735 77.553233 
C 30.108742 78.216241 31.0081 78.588767 31.945735 78.588767 
z
" style="fill:#1f77b4;stroke:#ffffff;stroke-width:0.565685;"/>
    <path clip-path="url(#p3adff31b56)" d="M 31.034634 81.823286 
C 31.972268 81.823286 32.871626 81.45076 33.534634 80.787752 
C 34.197641 80.124745 34.570167 79.225387 34.570167 78.287752 
C 34.570167 77.350118 34.197641 76.45076 33.534634 75.787752 
C 32.871626 75.124745 31.972268 74.752218 31.034634 74.752218 
C 30.096999 74.752218 29.197641 75.124745 28.534634 75.787752 
C 27.871626 76.45076 27.4991 77.350118 27.4991 78.287752 
C 27.4991 79.225387 27.871626 80.124745 28.534634 80.787752 
C 29.197641 81.45076 30.096999 81.823286 31.034634 81.823286 
z
" style="fill:#ff7f0e;stroke:#ffffff;stroke-width:0.565685;"/>
    <path clip-path="url(#p3adff31b56)" d="M 30.888594 82.632423 
C 31.826228 82.632423 32.725586 82.259897 33.388594 81.596889 
C 34.051601 80.933882 34.424128 80.034524 34.424128 79.096889 
C 34.424128 78.159255 34.051601 77.259897 33.388594 76.596889 
C 32.725586 75.933882 31.826228 75.561355 30.888594 75.561355 
C 29.950959 75.561355 29.051601 75.933882 28.388594 76.596889 
C 27.725586 77.259897 27.35306 78.159255 27.35306 79.096889 
C 27.35306 80.034524 27.725586 80.933882 28.388594 81.596889 
C 29.051601 82.259897 29.950959 82.632423 30.888594 82.632423 
z
" style="fill:#d62728;stroke:#ffffff;stroke-width:0.565685;"/>
    <path clip-path="url(#p3adff31b56)" d="M 30.9503 82.292608 
C 31.887935 82.292608 32.787293 81.920082 33.4503 81.257074 
C 34.113308 80.594066 34.485834 79.694709 34.485834 78.757074 
C 34.485834 77.81944 34.113308 76.920082 33.4503 76.257074 
C 32.787293 75.594066 31.887935 75.22154 30.9503 75.22154 
C 30.012666 75.22154 29.113308 75.594066 28.4503 76.257074 
C 27.787293 76.920082 27.414767 77.81944 27.414767 78.757074 
C 27.414767 79.694709 27.787293 80.594066 28.4503 81.257074 
C 29.113308 81.920082 30.012666 82.292608 30.9503 82.292608 
z
" style="fill:#2ca02c;stroke:#ffffff;stroke-width:0.565685;"/>
    <path clip-path="url(#p3adff31b56)" d="M 32.053285 78.401742 
C 32.99092 78.401742 33.890277 78.029216 34.553285 77.366208 
C 35.216293 76.7032 35.588819 75.803843 35.588819 74.866208 
C 35.588819 73.928573 35.216293 73.029216 34.553285 72.366208 
C 33.890277 71.7032 32.99092 71.330674 32.053285 71.330674 
C 31.115651 71.330674 30.216293 71.7032 29.553285 72.366208 
C 28.890277 73.029216 28.517751 73.928573 28.517751 74.866208 
C 28.517751 75.803843 28.890277 76.7032 29.553285 77.366208 
C 30.216293 78.029216 31.115651 78.401742 32.053285 78.401742 
z
" style="fill:#1f77b4;stroke:#ffffff;stroke-width:0.565685;"/>
    <path clip-path="url(#p3adff31b56)" d="M 30.912458 82.499099 
C 31.850092 82.499099 32.74945 82.126573 33.412458 81.463565 
C 34.075466 80.800557 34.447992 79.9012 34.447992 78.963565 
C 34.447992 78.02593 34.075466 77.126573 33.412458 76.463565 
C 32.74945 75.800557 31.850092 75.428031 30.912458 75.428031 
C 29.974823 75.428031 29.075466 75.800557 28.412458 76.463565 
C 27.74945 77.126573 27.376924 78.02593 27.376924 78.963565 
C 27.376924 79.9012 27.74945 80.800557 28.412458 81.463565 
C 29.075466 82.126573 29.974823 82.499099 30.912458 82.499099 
z
" style="fill:#ff7f0e;stroke:#ffffff;stroke-width:0.565685;"/>
    <path clip-path="url(#p3adff31b56)" d="M 30.885581 82.649216 
C 31.823216 82.649216 32.722573 82.27669 33.385581 81.613682 
C 34.048589 80.950674 34.421115 80.051317 34.421115 79.113682 
C 34.421115 78.176047 34.048589 77.27669 33.385581 76.613682 
C 32.722573 75.950674 31.823216 75.578148 30.885581 75.578148 
C 29.947946 75.578148 29.048589 75.950674 28.385581 76.613682 
C 27.722573 77.27669 27.350047 78.176047 27.350047 79.113682 
C 27.350047 80.051317 27.722573 80.950674 28.385581 81.613682 
C 29.048589 82.27669 29.947946 82.649216 30.885581 82.649216 
z
" style="fill:#d62728;stroke:#ffffff;stroke-width:0.565685;"/>
    <path clip-path="url(#p3adff31b56)" d="M 30.925951 82.4256 
C 31.863586 82.4256 32.762943 82.053074 33.425951 81.390066 
C 34.088959 80.727058 34.461485 79.827701 34.461485 78.890066 
C 34.461485 77.952431 34.088959 77.053074 33.425951 76.390066 
C 32.762943 75.727058 31.863586 75.354532 30.925951 75.354532 
C 29.988317 75.354532 29.088959 75.727058 28.425951 76.390066 
C 27.762943 77.053074 27.390417 77.952431 27.390417 78.890066 
C 27.390417 79.827701 27.762943 80.727058 28.425951 81.390066 
C 29.088959 82.053074 29.988317 82.4256 30.925951 82.4256 
z
" style="fill:#2ca02c;stroke:#ffffff;stroke-width:0.565685;"/>
    <path clip-path="url(#p3adff31b56)" d="M 30.95703 82.262741 
C 31.894664 82.262741 32.794022 81.890215 33.45703 81.227207 
C 34.120038 80.564199 34.492564 79.664841 34.492564 78.727207 
C 34.492564 77.789572 34.120038 76.890215 33.45703 76.227207 
C 32.794022 75.564199 31.894664 75.191673 30.95703 75.191673 
C 30.019395 75.191673 29.120038 75.564199 28.45703 76.227207 
C 27.794022 76.890215 27.421496 77.789572 27.421496 78.727207 
C 27.421496 79.664841 27.794022 80.564199 28.45703 81.227207 
C 29.120038 81.890215 30.019395 82.262741 30.95703 82.262741 
z
" style="fill:#1f77b4;stroke:#ffffff;stroke-width:0.565685;"/>
    <path clip-path="url(#p3adff31b56)" d="M 30.8924 82.611164 
C 31.830035 82.611164 32.729392 82.238638 33.3924 81.57563 
C 34.055408 80.912622 34.427934 80.013265 34.427934 79.07563 
C 34.427934 78.137995 34.055408 77.238638 33.3924 76.57563 
C 32.729392 75.912622 31.830035 75.540096 30.8924 75.540096 
C 29.954766 75.540096 29.055408 75.912622 28.3924 76.57563 
C 27.729392 77.238638 27.356866 78.137995 27.356866 79.07563 
C 27.356866 80.013265 27.729392 80.912622 28.3924 81.57563 
C 29.055408 82.238638 29.954766 82.611164 30.8924 82.611164 
z
" style="fill:#ff7f0e;stroke:#ffffff;stroke-width:0.565685;"/>
    <path clip-path="url(#p3adff31b56)" d="M 30.8838 82.65916 
C 31.821435 82.65916 32.720793 82.286634 33.3838 81.623626 
C 34.046808 80.960618 34.419334 80.06126 34.419334 79.123626 
C 34.419334 78.185991 34.046808 77.286634 33.3838 76.623626 
C 32.720793 75.960618 31.821435 75.588092 30.8838 75.588092 
C 29.946166 75.588092 29.046808 75.960618 28.3838 76.623626 
C 27.720793 77.286634 27.348266 78.185991 27.348266 79.123626 
C 27.348266 80.06126 27.720793 80.960618 28.3838 81.623626 
C 29.046808 82.286634 29.946166 82.65916 30.8838 82.65916 
z
" style="fill:#d62728;stroke:#ffffff;stroke-width:0.565685;"/>
    <path clip-path="url(#p3adff31b56)" d="M 30.906736 82.531814 
C 31.84437 82.531814 32.743728 82.159287 33.406736 81.49628 
C 34.069743 80.833272 34.442269 79.933914 34.442269 78.99628 
C 34.442269 78.058645 34.069743 77.159287 33.406736 76.49628 
C 32.743728 75.833272 31.84437 75.460746 30.906736 75.460746 
C 29.969101 75.460746 29.069743 75.833272 28.406736 76.49628 
C 27.743728 77.159287 27.371202 78.058645 27.371202 78.99628 
C 27.371202 79.933914 27.743728 80.833272 28.406736 81.49628 
C 29.069743 82.159287 29.969101 82.531814 30.906736 82.531814 
z
" style="fill:#2ca02c;stroke:#ffffff;stroke-width:0.565685;"/>
    <path clip-path="url(#p3adff31b56)" d="M 30.88311 82.663022 
C 31.820744 82.663022 32.720102 82.290496 33.38311 81.627488 
C 34.046118 80.96448 34.418644 80.065123 34.418644 79.127488 
C 34.418644 78.189853 34.046118 77.290496 33.38311 76.627488 
C 32.720102 75.96448 31.820744 75.591954 30.88311 75.591954 
C 29.945475 75.591954 29.046118 75.96448 28.38311 76.627488 
C 27.720102 77.290496 27.347576 78.189853 27.347576 79.127488 
C 27.347576 80.065123 27.720102 80.96448 28.38311 81.627488 
C 29.046118 82.290496 29.945475 82.663022 30.88311 82.663022 
z
" style="fill:#1f77b4;stroke:#ffffff;stroke-width:0.565685;"/>
    <path clip-path="url(#p3adff31b56)" d="M 30.884727 82.653971 
C 31.822362 82.653971 32.72172 82.281445 33.384727 81.618437 
C 34.047735 80.955429 34.420261 80.056072 34.420261 79.118437 
C 34.420261 78.180802 34.047735 77.281445 33.384727 76.618437 
C 32.72172 75.955429 31.822362 75.582903 30.884727 75.582903 
C 29.947093 75.582903 29.047735 75.955429 28.384727 76.618437 
C 27.72172 77.281445 27.349193 78.180802 27.349193 79.118437 
C 27.349193 80.056072 27.72172 80.955429 28.384727 81.618437 
C 29.047735 82.281445 29.947093 82.653971 30.884727 82.653971 
z
" style="fill:#ff7f0e;stroke:#ffffff;stroke-width:0.565685;"/>
    <path clip-path="url(#p3adff31b56)" d="M 30.883115 82.662994 
C 31.820749 82.662994 32.720107 82.290468 33.383115 81.62746 
C 34.046123 80.964452 34.418649 80.065094 34.418649 79.12746 
C 34.418649 78.189825 34.046123 77.290468 33.383115 76.62746 
C 32.720107 75.964452 31.820749 75.591926 30.883115 75.591926 
C 29.94548 75.591926 29.046123 75.964452 28.383115 76.62746 
C 27.720107 77.290468 27.347581 78.189825 27.347581 79.12746 
C 27.347581 80.065094 27.720107 80.964452 28.383115 81.62746 
C 29.046123 82.290468 29.94548 82.662994 30.883115 82.662994 
z
" style="fill:#d62728;stroke:#ffffff;stroke-width:0.565685;"/>
    <path clip-path="url(#p3adff31b56)" d="M 30.891102 82.618398 
C 31.828737 82.618398 32.728094 82.245871 33.391102 81.582864 
C 34.05411 80.919856 34.426636 80.020498 34.426636 79.082864 
C 34.426636 78.145229 34.05411 77.245871 33.391102 76.582864 
C 32.728094 75.919856 31.828737 75.54733 30.891102 75.54733 
C 29.953468 75.54733 29.05411 75.919856 28.391102 76.582864 
C 27.728094 77.245871 27.355568 78.145229 27.355568 79.082864 
C 27.355568 80.020498 27.728094 80.919856 28.391102 81.582864 
C 29.05411 82.245871 29.953468 82.618398 30.891102 82.618398 
z
" style="fill:#2ca02c;stroke:#ffffff;stroke-width:0.565685;"/>
    <path clip-path="url(#p3adff31b56)" d="M 47.7359 61.498903 
L 49.503667 59.731136 
L 51.271434 61.498903 
L 53.039201 59.731136 
L 51.271434 57.963369 
L 53.039201 56.195602 
L 51.271434 54.427835 
L 49.503667 56.195602 
L 47.7359 54.427835 
L 45.968133 56.195602 
L 47.7359 57.963369 
L 45.968133 59.731136 
z
" style="fill:#1f77b4;stroke:#ffffff;stroke-width:0.565685;"/>
    <path clip-path="url(#p3adff31b56)" d="M 39.33489 51.230932 
L 41.102657 49.463165 
L 42.870424 51.230932 
L 44.638191 49.463165 
L 42.870424 47.695398 
L 44.638191 45.927631 
L 42.870424 44.159864 
L 41.102657 45.927631 
L 39.33489 44.159864 
L 37.567123 45.927631 
L 39.33489 47.695398 
L 37.567123 49.463165 
z
" style="fill:#ff7f0e;stroke:#ffffff;stroke-width:0.565685;"/>
    <path clip-path="url(#p3adff31b56)" d="M 29.219253 82.108014 
L 30.98702 80.340247 
L 32.754787 82.108014 
L 34.522554 80.340247 
L 32.754787 78.57248 
L 34.522554 76.804713 
L 32.754787 75.036946 
L 30.98702 76.804713 
L 29.219253 75.036946 
L 27.451486 76.804713 
L 29.219253 78.57248 
L 27.451486 80.340247 
z
" style="fill:#d62728;stroke:#ffffff;stroke-width:0.565685;"/>
    <path clip-path="url(#p3adff31b56)" d="M 30.110076 77.809228 
L 31.877843 76.041461 
L 33.64561 77.809228 
L 35.413377 76.041461 
L 33.64561 74.273694 
L 35.413377 72.505927 
L 33.64561 70.73816 
L 31.877843 72.505927 
L 30.110076 70.73816 
L 28.342309 72.505927 
L 30.110076 74.273694 
L 28.342309 76.041461 
z
" style="fill:#2ca02c;stroke:#ffffff;stroke-width:0.565685;"/>
    <path clip-path="url(#p3adff31b56)" d="M 52.554591 67.600939 
L 54.322358 65.833172 
L 56.090125 67.600939 
L 57.857892 65.833172 
L 56.090125 64.065405 
L 57.857892 62.297638 
L 56.090125 60.529871 
L 54.322358 62.297638 
L 52.554591 60.529871 
L 50.786824 62.297638 
L 52.554591 64.065405 
L 50.786824 65.833172 
z
" style="fill:#1f77b4;stroke:#ffffff;stroke-width:0.565685;"/>
    <path clip-path="url(#p3adff31b56)" d="M 35.769856 59.546442 
L 37.537623 57.778675 
L 39.30539 59.546442 
L 41.073157 57.778675 
L 39.30539 56.010908 
L 41.073157 54.243141 
L 39.30539 52.475374 
L 37.537623 54.243141 
L 35.769856 52.475374 
L 34.002089 54.243141 
L 35.769856 56.010908 
L 34.002089 57.778675 
z
" style="fill:#ff7f0e;stroke:#ffffff;stroke-width:0.565685;"/>
    <path clip-path="url(#p3adff31b56)" d="M 29.204979 82.181266 
L 30.972746 80.413499 
L 32.740513 82.181266 
L 34.50828 80.413499 
L 32.740513 78.645732 
L 34.50828 76.877965 
L 32.740513 75.110198 
L 30.972746 76.877965 
L 29.204979 75.110198 
L 27.437212 76.877965 
L 29.204979 78.645732 
L 27.437212 80.413499 
z
" style="fill:#d62728;stroke:#ffffff;stroke-width:0.565685;"/>
    <path clip-path="url(#p3adff31b56)" d="M 30.002905 78.312245 
L 31.770672 76.544478 
L 33.538439 78.312245 
L 35.306206 76.544478 
L 33.538439 74.776711 
L 35.306206 73.008944 
L 33.538439 71.241177 
L 31.770672 73.008944 
L 30.002905 71.241177 
L 28.235138 73.008944 
L 30.002905 74.776711 
L 28.235138 76.544478 
z
" style="fill:#2ca02c;stroke:#ffffff;stroke-width:0.565685;"/>
    <path clip-path="url(#p3adff31b56)" d="M 39.744266 70.353759 
L 41.512033 68.585992 
L 43.2798 70.353759 
L 45.047567 68.585992 
L 43.2798 66.818225 
L 45.047567 65.050458 
L 43.2798 63.282691 
L 41.512033 65.050458 
L 39.744266 63.282691 
L 37.976499 65.050458 
L 39.744266 66.818225 
L 37.976499 68.585992 
z
" style="fill:#1f77b4;stroke:#ffffff;stroke-width:0.565685;"/>
    <path clip-path="url(#p3adff31b56)" d="M 30.633256 74.910517 
L 32.401023 73.14275 
L 34.16879 74.910517 
L 35.936557 73.14275 
L 34.16879 71.374983 
L 35.936557 69.607216 
L 34.16879 67.839449 
L 32.401023 69.607216 
L 30.633256 67.839449 
L 28.865489 69.607216 
L 30.633256 71.374983 
L 28.865489 73.14275 
z
" style="fill:#ff7f0e;stroke:#ffffff;stroke-width:0.565685;"/>
    <path clip-path="url(#p3adff31b56)" d="M 29.172857 82.349489 
L 30.940624 80.581722 
L 32.708391 82.349489 
L 34.476158 80.581722 
L 32.708391 78.813956 
L 34.476158 77.046189 
L 32.708391 75.278422 
L 30.940624 77.046189 
L 29.172857 75.278422 
L 27.405091 77.046189 
L 29.172857 78.813956 
L 27.405091 80.581722 
z
" style="fill:#d62728;stroke:#ffffff;stroke-width:0.565685;"/>
    <path clip-path="url(#p3adff31b56)" d="M 29.789925 79.381337 
L 31.557692 77.61357 
L 33.325459 79.381337 
L 35.093226 77.61357 
L 33.325459 75.845803 
L 35.093226 74.078036 
L 33.325459 72.310269 
L 31.557692 74.078036 
L 29.789925 72.310269 
L 28.022158 74.078036 
L 29.789925 75.845803 
L 28.022158 77.61357 
z
" style="fill:#2ca02c;stroke:#ffffff;stroke-width:0.565685;"/>
    <path clip-path="url(#p3adff31b56)" d="M 40.819772 70.855961 
L 42.587539 69.088194 
L 44.355306 70.855961 
L 46.123073 69.088194 
L 44.355306 67.320427 
L 46.123073 65.55266 
L 44.355306 63.784893 
L 42.587539 65.55266 
L 40.819772 63.784893 
L 39.052005 65.55266 
L 40.819772 67.320427 
L 39.052005 69.088194 
z
" style="fill:#1f77b4;stroke:#ffffff;stroke-width:0.565685;"/>
    <path clip-path="url(#p3adff31b56)" d="M 29.411499 81.033252 
L 31.179266 79.265485 
L 32.947033 81.033252 
L 34.7148 79.265485 
L 32.947033 77.497718 
L 34.7148 75.729951 
L 32.947033 73.962184 
L 31.179266 75.729951 
L 29.411499 73.962184 
L 27.643733 75.729951 
L 29.411499 77.497718 
L 27.643733 79.265485 
z
" style="fill:#ff7f0e;stroke:#ffffff;stroke-width:0.565685;"/>
    <path clip-path="url(#p3adff31b56)" d="M 29.14273 82.511701 
L 30.910497 80.743934 
L 32.678264 82.511701 
L 34.446031 80.743934 
L 32.678264 78.976167 
L 34.446031 77.2084 
L 32.678264 75.440633 
L 30.910497 77.2084 
L 29.14273 75.440633 
L 27.374963 77.2084 
L 29.14273 78.976167 
L 27.374963 80.743934 
z
" style="fill:#d62728;stroke:#ffffff;stroke-width:0.565685;"/>
    <path clip-path="url(#p3adff31b56)" d="M 29.546432 80.461613 
L 31.314199 78.693846 
L 33.081966 80.461613 
L 34.849733 78.693846 
L 33.081966 76.926079 
L 34.849733 75.158312 
L 33.081966 73.390545 
L 31.314199 75.158312 
L 29.546432 73.390545 
L 27.778665 75.158312 
L 29.546432 76.926079 
L 27.778665 78.693846 
z
" style="fill:#2ca02c;stroke:#ffffff;stroke-width:0.565685;"/>
    <path clip-path="url(#p3adff31b56)" d="M 29.857218 79.564044 
L 31.624985 77.796277 
L 33.392752 79.564044 
L 35.160519 77.796277 
L 33.392752 76.02851 
L 35.160519 74.260743 
L 33.392752 72.492977 
L 31.624985 74.260743 
L 29.857218 72.492977 
L 28.089451 74.260743 
L 29.857218 76.02851 
L 28.089451 77.796277 
z
" style="fill:#1f77b4;stroke:#ffffff;stroke-width:0.565685;"/>
    <path clip-path="url(#p3adff31b56)" d="M 29.210922 82.141588 
L 30.978689 80.373821 
L 32.746456 82.141588 
L 34.514223 80.373821 
L 32.746456 78.606054 
L 34.514223 76.838287 
L 32.746456 75.070521 
L 30.978689 76.838287 
L 29.210922 75.070521 
L 27.443155 76.838287 
L 29.210922 78.606054 
L 27.443155 80.373821 
z
" style="fill:#ff7f0e;stroke:#ffffff;stroke-width:0.565685;"/>
    <path clip-path="url(#p3adff31b56)" d="M 29.124924 82.60966 
L 30.892691 80.841893 
L 32.660458 82.60966 
L 34.428225 80.841893 
L 32.660458 79.074126 
L 34.428225 77.306359 
L 32.660458 75.538593 
L 30.892691 77.306359 
L 29.124924 75.538593 
L 27.357157 77.306359 
L 29.124924 79.074126 
L 27.357157 80.841893 
z
" style="fill:#d62728;stroke:#ffffff;stroke-width:0.565685;"/>
    <path clip-path="url(#p3adff31b56)" d="M 29.354276 81.421745 
L 31.122043 79.653978 
L 32.88981 81.421745 
L 34.657577 79.653978 
L 32.88981 77.886211 
L 34.657577 76.118444 
L 32.88981 74.350677 
L 31.122043 76.118444 
L 29.354276 74.350677 
L 27.586509 76.118444 
L 29.354276 77.886211 
L 27.586509 79.653978 
z
" style="fill:#2ca02c;stroke:#ffffff;stroke-width:0.565685;"/>
    <path clip-path="url(#p3adff31b56)" d="M 29.118018 82.648069 
L 30.885785 80.880302 
L 32.653552 82.648069 
L 34.421319 80.880302 
L 32.653552 79.112535 
L 34.421319 77.344768 
L 32.653552 75.577001 
L 30.885785 77.344768 
L 29.118018 75.577001 
L 27.350251 77.344768 
L 29.118018 79.112535 
L 27.350251 80.880302 
z
" style="fill:#1f77b4;stroke:#ffffff;stroke-width:0.565685;"/>
    <path clip-path="url(#p3adff31b56)" d="M 29.134194 82.558067 
L 30.901961 80.7903 
L 32.669728 82.558067 
L 34.437495 80.7903 
L 32.669728 79.022533 
L 34.437495 77.254767 
L 32.669728 75.487 
L 30.901961 77.254767 
L 29.134194 75.487 
L 27.366427 77.254767 
L 29.134194 79.022533 
L 27.366427 80.7903 
z
" style="fill:#ff7f0e;stroke:#ffffff;stroke-width:0.565685;"/>
    <path clip-path="url(#p3adff31b56)" d="M 29.118068 82.647792 
L 30.885835 80.880025 
L 32.653602 82.647792 
L 34.421369 80.880025 
L 32.653602 79.112258 
L 34.421369 77.344491 
L 32.653602 75.576724 
L 30.885835 77.344491 
L 29.118068 75.576724 
L 27.350301 77.344491 
L 29.118068 79.112258 
L 27.350301 80.880025 
z
" style="fill:#d62728;stroke:#ffffff;stroke-width:0.565685;"/>
    <path clip-path="url(#p3adff31b56)" d="M 29.197942 82.212753 
L 30.965709 80.444986 
L 32.733476 82.212753 
L 34.501242 80.444986 
L 32.733476 78.677219 
L 34.501242 76.909452 
L 32.733476 75.141685 
L 30.965709 76.909452 
L 29.197942 75.141685 
L 27.430175 76.909452 
L 29.197942 78.677219 
L 27.430175 80.444986 
z
" style="fill:#2ca02c;stroke:#ffffff;stroke-width:0.565685;"/>
    <path clip-path="url(#p3adff31b56)" d="M 121.487086 40.437772 
L 121.487086 45.437772 
L 126.487086 45.437772 
L 126.487086 40.437772 
z
" style="fill:#1f77b4;stroke:#ffffff;stroke-width:0.565685;"/>
    <path clip-path="url(#p3adff31b56)" d="M 79.482036 8.125118 
L 79.482036 13.125118 
L 84.482036 13.125118 
L 84.482036 8.125118 
z
" style="fill:#ff7f0e;stroke:#ffffff;stroke-width:0.565685;"/>
    <path clip-path="url(#p3adff31b56)" d="M 28.90385 74.27794 
L 28.90385 79.27794 
L 33.90385 79.27794 
L 33.90385 74.27794 
z
" style="fill:#d62728;stroke:#ffffff;stroke-width:0.565685;"/>
    <path clip-path="url(#p3adff31b56)" d="M 33.357964 60.619923 
L 33.357964 65.619923 
L 38.357964 65.619923 
L 38.357964 60.619923 
z
" style="fill:#2ca02c;stroke:#ffffff;stroke-width:0.565685;"/>
    <path clip-path="url(#p3adff31b56)" d="M 145.580541 52.871462 
L 145.580541 57.871462 
L 150.580541 57.871462 
L 150.580541 52.871462 
z
" style="fill:#1f77b4;stroke:#ffffff;stroke-width:0.565685;"/>
    <path clip-path="url(#p3adff31b56)" d="M 61.656864 19.080122 
L 61.656864 24.080122 
L 66.656864 24.080122 
L 66.656864 19.080122 
z
" style="fill:#ff7f0e;stroke:#ffffff;stroke-width:0.565685;"/>
    <path clip-path="url(#p3adff31b56)" d="M 28.832482 74.544253 
L 28.832482 79.544253 
L 33.832482 79.544253 
L 33.832482 74.544253 
z
" style="fill:#d62728;stroke:#ffffff;stroke-width:0.565685;"/>
    <path clip-path="url(#p3adff31b56)" d="M 32.822109 62.071781 
L 32.822109 67.071781 
L 37.822109 67.071781 
L 37.822109 62.071781 
z
" style="fill:#2ca02c;stroke:#ffffff;stroke-width:0.565685;"/>
    <path clip-path="url(#p3adff31b56)" d="M 81.528917 58.749206 
L 81.528917 63.749206 
L 86.528917 63.749206 
L 86.528917 58.749206 
z
" style="fill:#1f77b4;stroke:#ffffff;stroke-width:0.565685;"/>
    <path clip-path="url(#p3adff31b56)" d="M 35.973863 47.091163 
L 35.973863 52.091163 
L 40.973863 52.091163 
L 40.973863 47.091163 
z
" style="fill:#ff7f0e;stroke:#ffffff;stroke-width:0.565685;"/>
    <path clip-path="url(#p3adff31b56)" d="M 28.671872 75.200899 
L 28.671872 80.200899 
L 33.671872 80.200899 
L 33.671872 75.200899 
z
" style="fill:#d62728;stroke:#ffffff;stroke-width:0.565685;"/>
    <path clip-path="url(#p3adff31b56)" d="M 31.75721 65.874954 
L 31.75721 70.874954 
L 36.75721 70.874954 
L 36.75721 65.874954 
z
" style="fill:#2ca02c;stroke:#ffffff;stroke-width:0.565685;"/>
    <path clip-path="url(#p3adff31b56)" d="M 86.906444 61.019514 
L 86.906444 66.019514 
L 91.906444 66.019514 
L 91.906444 61.019514 
z
" style="fill:#1f77b4;stroke:#ffffff;stroke-width:0.565685;"/>
    <path clip-path="url(#p3adff31b56)" d="M 29.865082 68.979902 
L 29.865082 73.979902 
L 34.865082 73.979902 
L 34.865082 68.979902 
z
" style="fill:#ff7f0e;stroke:#ffffff;stroke-width:0.565685;"/>
    <path clip-path="url(#p3adff31b56)" d="M 28.521236 75.900614 
L 28.521236 80.900614 
L 33.521236 80.900614 
L 33.521236 75.900614 
z
" style="fill:#d62728;stroke:#ffffff;stroke-width:0.565685;"/>
    <path clip-path="url(#p3adff31b56)" d="M 30.539746 68.497465 
L 30.539746 73.497465 
L 35.539746 73.497465 
L 35.539746 68.497465 
z
" style="fill:#2ca02c;stroke:#ffffff;stroke-width:0.565685;"/>
    <path clip-path="url(#p3adff31b56)" d="M 32.093677 68.751406 
L 32.093677 73.751406 
L 37.093677 73.751406 
L 37.093677 68.751406 
z
" style="fill:#1f77b4;stroke:#ffffff;stroke-width:0.565685;"/>
    <path clip-path="url(#p3adff31b56)" d="M 28.862196 74.252245 
L 28.862196 79.252245 
L 33.862196 79.252245 
L 33.862196 74.252245 
z
" style="fill:#ff7f0e;stroke:#ffffff;stroke-width:0.565685;"/>
    <path clip-path="url(#p3adff31b56)" d="M 28.432205 76.358842 
L 28.432205 81.358842 
L 33.432205 81.358842 
L 33.432205 76.358842 
z
" style="fill:#d62728;stroke:#ffffff;stroke-width:0.565685;"/>
    <path clip-path="url(#p3adff31b56)" d="M 29.578967 71.811999 
L 29.578967 76.811999 
L 34.578967 76.811999 
L 34.578967 71.811999 
z
" style="fill:#2ca02c;stroke:#ffffff;stroke-width:0.565685;"/>
    <path clip-path="url(#p3adff31b56)" d="M 28.397675 76.546446 
L 28.397675 81.546446 
L 33.397675 81.546446 
L 33.397675 76.546446 
z
" style="fill:#1f77b4;stroke:#ffffff;stroke-width:0.565685;"/>
    <path clip-path="url(#p3adff31b56)" d="M 28.478553 76.106793 
L 28.478553 81.106793 
L 33.478553 81.106793 
L 33.478553 76.106793 
z
" style="fill:#ff7f0e;stroke:#ffffff;stroke-width:0.565685;"/>
    <path clip-path="url(#p3adff31b56)" d="M 28.397927 76.545162 
L 28.397927 81.545162 
L 33.397927 81.545162 
L 33.397927 76.545162 
z
" style="fill:#d62728;stroke:#ffffff;stroke-width:0.565685;"/>
    <path clip-path="url(#p3adff31b56)" d="M 28.797293 74.583722 
L 28.797293 79.583722 
L 33.797293 79.583722 
L 33.797293 74.583722 
z
" style="fill:#2ca02c;stroke:#ffffff;stroke-width:0.565685;"/>
   </g>
   <g id="PathCollection_2"/>
   <g id="PathCollection_3"/>
   <g id="PathCollection_4"/>
   <g id="PathCollection_5"/>
   <g id="PathCollection_6"/>
   <g id="PathCollection_7"/>
   <g id="PathCollection_8"/>
   <g id="matplotlib.axis_1">
    <g id="xtick_1">
     <g id="line2d_1">
      <defs>
       <path d="M 0 0 
L 0 3.5 
" id="mce0abbee74" style="stroke:#000000;stroke-width:0.8;"/>
      </defs>
      <g>
       <use style="stroke:#000000;stroke-width:0.8;" x="30.882812" xlink:href="#mce0abbee74" y="79.129152"/>
      </g>
     </g>
     <g id="text_1">
      <!-- 0 -->
      <g transform="translate(28.102344 93.286964)scale(0.1 -0.1)">
       <defs>
        <path d="M 4.15625 35.296875 
Q 4.15625 48 6.765625 55.734375 
Q 9.375 63.484375 14.515625 67.671875 
Q 19.671875 71.875 27.484375 71.875 
Q 33.25 71.875 37.59375 69.546875 
Q 41.9375 67.234375 44.765625 62.859375 
Q 47.609375 58.5 49.21875 52.21875 
Q 50.828125 45.953125 50.828125 35.296875 
Q 50.828125 22.703125 48.234375 14.96875 
Q 45.65625 7.234375 40.5 3 
Q 35.359375 -1.21875 27.484375 -1.21875 
Q 17.140625 -1.21875 11.234375 6.203125 
Q 4.15625 15.140625 4.15625 35.296875 
z
M 13.1875 35.296875 
Q 13.1875 17.671875 17.3125 11.828125 
Q 21.4375 6 27.484375 6 
Q 33.546875 6 37.671875 11.859375 
Q 41.796875 17.71875 41.796875 35.296875 
Q 41.796875 52.984375 37.671875 58.78125 
Q 33.546875 64.59375 27.390625 64.59375 
Q 21.34375 64.59375 17.71875 59.46875 
Q 13.1875 52.9375 13.1875 35.296875 
z
" id="ArialMT-48"/>
       </defs>
       <use xlink:href="#ArialMT-48"/>
      </g>
     </g>
    </g>
    <g id="xtick_2">
     <g id="line2d_2">
      <g>
       <use style="stroke:#000000;stroke-width:0.8;" x="78.258189" xlink:href="#mce0abbee74" y="79.129152"/>
      </g>
     </g>
     <g id="text_2">
      <!-- 5 -->
      <g transform="translate(75.47772 93.286964)scale(0.1 -0.1)">
       <defs>
        <path d="M 4.15625 18.75 
L 13.375 19.53125 
Q 14.40625 12.796875 18.140625 9.390625 
Q 21.875 6 27.15625 6 
Q 33.5 6 37.890625 10.78125 
Q 42.28125 15.578125 42.28125 23.484375 
Q 42.28125 31 38.0625 35.34375 
Q 33.84375 39.703125 27 39.703125 
Q 22.75 39.703125 19.328125 37.765625 
Q 15.921875 35.84375 13.96875 32.765625 
L 5.71875 33.84375 
L 12.640625 70.609375 
L 48.25 70.609375 
L 48.25 62.203125 
L 19.671875 62.203125 
L 15.828125 42.96875 
Q 22.265625 47.46875 29.34375 47.46875 
Q 38.71875 47.46875 45.15625 40.96875 
Q 51.609375 34.46875 51.609375 24.265625 
Q 51.609375 14.546875 45.953125 7.46875 
Q 39.0625 -1.21875 27.15625 -1.21875 
Q 17.390625 -1.21875 11.203125 4.25 
Q 5.03125 9.71875 4.15625 18.75 
z
" id="ArialMT-53"/>
       </defs>
       <use xlink:href="#ArialMT-53"/>
      </g>
     </g>
    </g>
    <g id="xtick_3">
     <g id="line2d_3">
      <g>
       <use style="stroke:#000000;stroke-width:0.8;" x="125.633565" xlink:href="#mce0abbee74" y="79.129152"/>
      </g>
     </g>
     <g id="text_3">
      <!-- 10 -->
      <g transform="translate(120.072627 93.286964)scale(0.1 -0.1)">
       <defs>
        <path d="M 37.25 0 
L 28.46875 0 
L 28.46875 56 
Q 25.296875 52.984375 20.140625 49.953125 
Q 14.984375 46.921875 10.890625 45.40625 
L 10.890625 53.90625 
Q 18.265625 57.375 23.78125 62.296875 
Q 29.296875 67.234375 31.59375 71.875 
L 37.25 71.875 
z
" id="ArialMT-49"/>
       </defs>
       <use xlink:href="#ArialMT-49"/>
       <use x="55.615234" xlink:href="#ArialMT-48"/>
      </g>
     </g>
    </g>
   </g>
   <g id="matplotlib.axis_2">
    <g id="ytick_1">
     <g id="line2d_4">
      <defs>
       <path d="M 0 0 
L -3.5 0 
" id="m1c1e24e594" style="stroke:#000000;stroke-width:0.8;"/>
      </defs>
      <g>
       <use style="stroke:#000000;stroke-width:0.8;" x="30.882812" xlink:href="#m1c1e24e594" y="79.129152"/>
      </g>
     </g>
     <g id="text_4">
      <!-- 0 -->
      <g transform="translate(18.321875 82.708058)scale(0.1 -0.1)">
       <use xlink:href="#ArialMT-48"/>
      </g>
     </g>
    </g>
    <g id="ytick_2">
     <g id="line2d_5">
      <g>
       <use style="stroke:#000000;stroke-width:0.8;" x="30.882812" xlink:href="#m1c1e24e594" y="32.880423"/>
      </g>
     </g>
     <g id="text_5">
      <!-- 500 -->
      <g transform="translate(7.2 36.459329)scale(0.1 -0.1)">
       <use xlink:href="#ArialMT-53"/>
       <use x="55.615234" xlink:href="#ArialMT-48"/>
       <use x="111.230469" xlink:href="#ArialMT-48"/>
      </g>
     </g>
    </g>
   </g>
   <g id="patch_3">
    <path d="M 30.882812 79.129152 
L 30.882812 7.2 
" style="fill:none;stroke:#000000;stroke-linecap:square;stroke-linejoin:miter;stroke-width:0.8;"/>
   </g>
   <g id="patch_4">
    <path d="M 30.882812 79.129152 
L 153.940412 79.129152 
" style="fill:none;stroke:#000000;stroke-linecap:square;stroke-linejoin:miter;stroke-width:0.8;"/>
   </g>
   <g id="legend_1">
    <g id="patch_5">
     <path d="M 162.093293 137.864062 
L 245.232355 137.864062 
Q 247.232355 137.864062 247.232355 135.864062 
L 247.232355 9.2 
Q 247.232355 7.2 245.232355 7.2 
L 162.093293 7.2 
Q 160.093293 7.2 160.093293 9.2 
L 160.093293 135.864062 
Q 160.093293 137.864062 162.093293 137.864062 
z
" style="fill:#ffffff;opacity:0.8;stroke:#cccccc;stroke-linejoin:miter;"/>
    </g>
    <g id="text_6">
     <!-- seglabel -->
     <g transform="translate(192.093293 18.357812)scale(0.1 -0.1)">
      <defs>
       <path d="M 3.078125 15.484375 
L 11.765625 16.84375 
Q 12.5 11.625 15.84375 8.84375 
Q 19.1875 6.0625 25.203125 6.0625 
Q 31.25 6.0625 34.171875 8.515625 
Q 37.109375 10.984375 37.109375 14.3125 
Q 37.109375 17.28125 34.515625 19 
Q 32.71875 20.171875 25.53125 21.96875 
Q 15.875 24.421875 12.140625 26.203125 
Q 8.40625 27.984375 6.46875 31.125 
Q 4.546875 34.28125 4.546875 38.09375 
Q 4.546875 41.546875 6.125 44.5 
Q 7.71875 47.46875 10.453125 49.421875 
Q 12.5 50.921875 16.03125 51.96875 
Q 19.578125 53.03125 23.640625 53.03125 
Q 29.734375 53.03125 34.34375 51.265625 
Q 38.96875 49.515625 41.15625 46.5 
Q 43.359375 43.5 44.1875 38.484375 
L 35.59375 37.3125 
Q 35.015625 41.3125 32.203125 43.546875 
Q 29.390625 45.796875 24.265625 45.796875 
Q 18.21875 45.796875 15.625 43.796875 
Q 13.03125 41.796875 13.03125 39.109375 
Q 13.03125 37.40625 14.109375 36.03125 
Q 15.1875 34.625 17.484375 33.6875 
Q 18.796875 33.203125 25.25 31.453125 
Q 34.578125 28.953125 38.25 27.359375 
Q 41.9375 25.78125 44.03125 22.75 
Q 46.140625 19.734375 46.140625 15.234375 
Q 46.140625 10.84375 43.578125 6.953125 
Q 41.015625 3.078125 36.171875 0.953125 
Q 31.34375 -1.171875 25.25 -1.171875 
Q 15.140625 -1.171875 9.84375 3.03125 
Q 4.546875 7.234375 3.078125 15.484375 
z
" id="ArialMT-115"/>
       <path d="M 42.09375 16.703125 
L 51.171875 15.578125 
Q 49.03125 7.625 43.21875 3.21875 
Q 37.40625 -1.171875 28.375 -1.171875 
Q 17 -1.171875 10.328125 5.828125 
Q 3.65625 12.84375 3.65625 25.484375 
Q 3.65625 38.578125 10.390625 45.796875 
Q 17.140625 53.03125 27.875 53.03125 
Q 38.28125 53.03125 44.875 45.953125 
Q 51.46875 38.875 51.46875 26.03125 
Q 51.46875 25.25 51.421875 23.6875 
L 12.75 23.6875 
Q 13.234375 15.140625 17.578125 10.59375 
Q 21.921875 6.0625 28.421875 6.0625 
Q 33.25 6.0625 36.671875 8.59375 
Q 40.09375 11.140625 42.09375 16.703125 
z
M 13.234375 30.90625 
L 42.1875 30.90625 
Q 41.609375 37.453125 38.875 40.71875 
Q 34.671875 45.796875 27.984375 45.796875 
Q 21.921875 45.796875 17.796875 41.75 
Q 13.671875 37.703125 13.234375 30.90625 
z
" id="ArialMT-101"/>
       <path d="M 4.984375 -4.296875 
L 13.53125 -5.5625 
Q 14.0625 -9.515625 16.5 -11.328125 
Q 19.78125 -13.765625 25.4375 -13.765625 
Q 31.546875 -13.765625 34.859375 -11.328125 
Q 38.1875 -8.890625 39.359375 -4.5 
Q 40.046875 -1.8125 39.984375 6.78125 
Q 34.234375 0 25.640625 0 
Q 14.9375 0 9.078125 7.71875 
Q 3.21875 15.4375 3.21875 26.21875 
Q 3.21875 33.640625 5.90625 39.90625 
Q 8.59375 46.1875 13.6875 49.609375 
Q 18.796875 53.03125 25.6875 53.03125 
Q 34.859375 53.03125 40.828125 45.609375 
L 40.828125 51.859375 
L 48.921875 51.859375 
L 48.921875 7.03125 
Q 48.921875 -5.078125 46.453125 -10.125 
Q 44 -15.1875 38.640625 -18.109375 
Q 33.296875 -21.046875 25.484375 -21.046875 
Q 16.21875 -21.046875 10.5 -16.875 
Q 4.78125 -12.703125 4.984375 -4.296875 
z
M 12.25 26.859375 
Q 12.25 16.65625 16.296875 11.96875 
Q 20.359375 7.28125 26.46875 7.28125 
Q 32.515625 7.28125 36.609375 11.9375 
Q 40.71875 16.609375 40.71875 26.5625 
Q 40.71875 36.078125 36.5 40.90625 
Q 32.28125 45.75 26.3125 45.75 
Q 20.453125 45.75 16.34375 40.984375 
Q 12.25 36.234375 12.25 26.859375 
z
" id="ArialMT-103"/>
       <path d="M 6.390625 0 
L 6.390625 71.578125 
L 15.1875 71.578125 
L 15.1875 0 
z
" id="ArialMT-108"/>
       <path d="M 40.4375 6.390625 
Q 35.546875 2.25 31.03125 0.53125 
Q 26.515625 -1.171875 21.34375 -1.171875 
Q 12.796875 -1.171875 8.203125 3 
Q 3.609375 7.171875 3.609375 13.671875 
Q 3.609375 17.484375 5.34375 20.625 
Q 7.078125 23.78125 9.890625 25.6875 
Q 12.703125 27.59375 16.21875 28.5625 
Q 18.796875 29.25 24.03125 29.890625 
Q 34.671875 31.15625 39.703125 32.90625 
Q 39.75 34.71875 39.75 35.203125 
Q 39.75 40.578125 37.25 42.78125 
Q 33.890625 45.75 27.25 45.75 
Q 21.046875 45.75 18.09375 43.578125 
Q 15.140625 41.40625 13.71875 35.890625 
L 5.125 37.0625 
Q 6.296875 42.578125 8.984375 45.96875 
Q 11.671875 49.359375 16.75 51.1875 
Q 21.828125 53.03125 28.515625 53.03125 
Q 35.15625 53.03125 39.296875 51.46875 
Q 43.453125 49.90625 45.40625 47.53125 
Q 47.359375 45.171875 48.140625 41.546875 
Q 48.578125 39.3125 48.578125 33.453125 
L 48.578125 21.734375 
Q 48.578125 9.46875 49.140625 6.21875 
Q 49.703125 2.984375 51.375 0 
L 42.1875 0 
Q 40.828125 2.734375 40.4375 6.390625 
z
M 39.703125 26.03125 
Q 34.90625 24.078125 25.34375 22.703125 
Q 19.921875 21.921875 17.671875 20.9375 
Q 15.4375 19.96875 14.203125 18.09375 
Q 12.984375 16.21875 12.984375 13.921875 
Q 12.984375 10.40625 15.640625 8.0625 
Q 18.3125 5.71875 23.4375 5.71875 
Q 28.515625 5.71875 32.46875 7.9375 
Q 36.421875 10.15625 38.28125 14.015625 
Q 39.703125 17 39.703125 22.796875 
z
" id="ArialMT-97"/>
       <path d="M 14.703125 0 
L 6.546875 0 
L 6.546875 71.578125 
L 15.328125 71.578125 
L 15.328125 46.046875 
Q 20.90625 53.03125 29.546875 53.03125 
Q 34.328125 53.03125 38.59375 51.09375 
Q 42.875 49.171875 45.625 45.671875 
Q 48.390625 42.1875 49.953125 37.25 
Q 51.515625 32.328125 51.515625 26.703125 
Q 51.515625 13.375 44.921875 6.09375 
Q 38.328125 -1.171875 29.109375 -1.171875 
Q 19.921875 -1.171875 14.703125 6.5 
z
M 14.59375 26.3125 
Q 14.59375 17 17.140625 12.84375 
Q 21.296875 6.0625 28.375 6.0625 
Q 34.125 6.0625 38.328125 11.0625 
Q 42.53125 16.0625 42.53125 25.984375 
Q 42.53125 36.140625 38.5 40.96875 
Q 34.46875 45.796875 28.765625 45.796875 
Q 23 45.796875 18.796875 40.796875 
Q 14.59375 35.796875 14.59375 26.3125 
z
" id="ArialMT-98"/>
      </defs>
      <use xlink:href="#ArialMT-115"/>
      <use x="50" xlink:href="#ArialMT-101"/>
      <use x="105.615234" xlink:href="#ArialMT-103"/>
      <use x="161.230469" xlink:href="#ArialMT-108"/>
      <use x="183.447266" xlink:href="#ArialMT-97"/>
      <use x="239.0625" xlink:href="#ArialMT-98"/>
      <use x="294.677734" xlink:href="#ArialMT-101"/>
      <use x="350.292969" xlink:href="#ArialMT-108"/>
     </g>
    </g>
    <g id="PathCollection_9">
     <defs>
      <path d="M 0 3 
C 0.795609 3 1.55874 2.683901 2.12132 2.12132 
C 2.683901 1.55874 3 0.795609 3 0 
C 3 -0.795609 2.683901 -1.55874 2.12132 -2.12132 
C 1.55874 -2.683901 0.795609 -3 0 -3 
C -0.795609 -3 -1.55874 -2.683901 -2.12132 -2.12132 
C -2.683901 -1.55874 -3 -0.795609 -3 0 
C -3 0.795609 -2.683901 1.55874 -2.12132 2.12132 
C -1.55874 2.683901 -0.795609 3 0 3 
z
" id="m134f479db4" style="stroke:#1f77b4;"/>
     </defs>
     <g>
      <use style="fill:#1f77b4;stroke:#1f77b4;" x="174.093293" xlink:href="#m134f479db4" y="29.995312"/>
     </g>
    </g>
    <g id="text_7">
     <!-- apical -->
     <g transform="translate(192.093293 32.620312)scale(0.1 -0.1)">
      <defs>
       <path d="M 6.59375 -19.875 
L 6.59375 51.859375 
L 14.59375 51.859375 
L 14.59375 45.125 
Q 17.4375 49.078125 21 51.046875 
Q 24.5625 53.03125 29.640625 53.03125 
Q 36.28125 53.03125 41.359375 49.609375 
Q 46.4375 46.1875 49.015625 39.953125 
Q 51.609375 33.734375 51.609375 26.3125 
Q 51.609375 18.359375 48.75 11.984375 
Q 45.90625 5.609375 40.453125 2.21875 
Q 35.015625 -1.171875 29 -1.171875 
Q 24.609375 -1.171875 21.109375 0.6875 
Q 17.625 2.546875 15.375 5.375 
L 15.375 -19.875 
z
M 14.546875 25.640625 
Q 14.546875 15.625 18.59375 10.84375 
Q 22.65625 6.0625 28.421875 6.0625 
Q 34.28125 6.0625 38.453125 11.015625 
Q 42.625 15.96875 42.625 26.375 
Q 42.625 36.28125 38.546875 41.203125 
Q 34.46875 46.140625 28.8125 46.140625 
Q 23.1875 46.140625 18.859375 40.890625 
Q 14.546875 35.640625 14.546875 25.640625 
z
" id="ArialMT-112"/>
       <path d="M 6.640625 61.46875 
L 6.640625 71.578125 
L 15.4375 71.578125 
L 15.4375 61.46875 
z
M 6.640625 0 
L 6.640625 51.859375 
L 15.4375 51.859375 
L 15.4375 0 
z
" id="ArialMT-105"/>
       <path d="M 40.4375 19 
L 49.078125 17.875 
Q 47.65625 8.9375 41.8125 3.875 
Q 35.984375 -1.171875 27.484375 -1.171875 
Q 16.84375 -1.171875 10.375 5.78125 
Q 3.90625 12.75 3.90625 25.734375 
Q 3.90625 34.125 6.6875 40.421875 
Q 9.46875 46.734375 15.15625 49.875 
Q 20.84375 53.03125 27.546875 53.03125 
Q 35.984375 53.03125 41.359375 48.75 
Q 46.734375 44.484375 48.25 36.625 
L 39.703125 35.296875 
Q 38.484375 40.53125 35.375 43.15625 
Q 32.28125 45.796875 27.875 45.796875 
Q 21.234375 45.796875 17.078125 41.03125 
Q 12.9375 36.28125 12.9375 25.984375 
Q 12.9375 15.53125 16.9375 10.796875 
Q 20.953125 6.0625 27.390625 6.0625 
Q 32.5625 6.0625 36.03125 9.234375 
Q 39.5 12.40625 40.4375 19 
z
" id="ArialMT-99"/>
      </defs>
      <use xlink:href="#ArialMT-97"/>
      <use x="55.615234" xlink:href="#ArialMT-112"/>
      <use x="111.230469" xlink:href="#ArialMT-105"/>
      <use x="133.447266" xlink:href="#ArialMT-99"/>
      <use x="183.447266" xlink:href="#ArialMT-97"/>
      <use x="239.0625" xlink:href="#ArialMT-108"/>
     </g>
    </g>
    <g id="PathCollection_10">
     <defs>
      <path d="M 0 3 
C 0.795609 3 1.55874 2.683901 2.12132 2.12132 
C 2.683901 1.55874 3 0.795609 3 0 
C 3 -0.795609 2.683901 -1.55874 2.12132 -2.12132 
C 1.55874 -2.683901 0.795609 -3 0 -3 
C -0.795609 -3 -1.55874 -2.683901 -2.12132 -2.12132 
C -2.683901 -1.55874 -3 -0.795609 -3 0 
C -3 0.795609 -2.683901 1.55874 -2.12132 2.12132 
C -1.55874 2.683901 -0.795609 3 0 3 
z
" id="mcafff91ba0" style="stroke:#ff7f0e;"/>
     </defs>
     <g>
      <use style="fill:#ff7f0e;stroke:#ff7f0e;" x="174.093293" xlink:href="#mcafff91ba0" y="44.2625"/>
     </g>
    </g>
    <g id="text_8">
     <!-- apical shaft -->
     <g transform="translate(192.093293 46.8875)scale(0.1 -0.1)">
      <defs>
       <path id="ArialMT-32"/>
       <path d="M 6.59375 0 
L 6.59375 71.578125 
L 15.375 71.578125 
L 15.375 45.90625 
Q 21.53125 53.03125 30.90625 53.03125 
Q 36.671875 53.03125 40.921875 50.75 
Q 45.171875 48.484375 47 44.484375 
Q 48.828125 40.484375 48.828125 32.859375 
L 48.828125 0 
L 40.046875 0 
L 40.046875 32.859375 
Q 40.046875 39.453125 37.1875 42.453125 
Q 34.328125 45.453125 29.109375 45.453125 
Q 25.203125 45.453125 21.75 43.421875 
Q 18.3125 41.40625 16.84375 37.9375 
Q 15.375 34.46875 15.375 28.375 
L 15.375 0 
z
" id="ArialMT-104"/>
       <path d="M 8.6875 0 
L 8.6875 45.015625 
L 0.921875 45.015625 
L 0.921875 51.859375 
L 8.6875 51.859375 
L 8.6875 57.375 
Q 8.6875 62.59375 9.625 65.140625 
Q 10.890625 68.5625 14.078125 70.671875 
Q 17.28125 72.796875 23.046875 72.796875 
Q 26.765625 72.796875 31.25 71.921875 
L 29.9375 64.265625 
Q 27.203125 64.75 24.75 64.75 
Q 20.75 64.75 19.09375 63.03125 
Q 17.4375 61.328125 17.4375 56.640625 
L 17.4375 51.859375 
L 27.546875 51.859375 
L 27.546875 45.015625 
L 17.4375 45.015625 
L 17.4375 0 
z
" id="ArialMT-102"/>
       <path d="M 25.78125 7.859375 
L 27.046875 0.09375 
Q 23.34375 -0.6875 20.40625 -0.6875 
Q 15.625 -0.6875 12.984375 0.828125 
Q 10.359375 2.34375 9.28125 4.8125 
Q 8.203125 7.28125 8.203125 15.1875 
L 8.203125 45.015625 
L 1.765625 45.015625 
L 1.765625 51.859375 
L 8.203125 51.859375 
L 8.203125 64.703125 
L 16.9375 69.96875 
L 16.9375 51.859375 
L 25.78125 51.859375 
L 25.78125 45.015625 
L 16.9375 45.015625 
L 16.9375 14.703125 
Q 16.9375 10.9375 17.40625 9.859375 
Q 17.875 8.796875 18.921875 8.15625 
Q 19.96875 7.515625 21.921875 7.515625 
Q 23.390625 7.515625 25.78125 7.859375 
z
" id="ArialMT-116"/>
      </defs>
      <use xlink:href="#ArialMT-97"/>
      <use x="55.615234" xlink:href="#ArialMT-112"/>
      <use x="111.230469" xlink:href="#ArialMT-105"/>
      <use x="133.447266" xlink:href="#ArialMT-99"/>
      <use x="183.447266" xlink:href="#ArialMT-97"/>
      <use x="239.0625" xlink:href="#ArialMT-108"/>
      <use x="261.279297" xlink:href="#ArialMT-32"/>
      <use x="289.0625" xlink:href="#ArialMT-115"/>
      <use x="339.0625" xlink:href="#ArialMT-104"/>
      <use x="394.677734" xlink:href="#ArialMT-97"/>
      <use x="450.292969" xlink:href="#ArialMT-102"/>
      <use x="478.076172" xlink:href="#ArialMT-116"/>
     </g>
    </g>
    <g id="PathCollection_11">
     <defs>
      <path d="M 0 3 
C 0.795609 3 1.55874 2.683901 2.12132 2.12132 
C 2.683901 1.55874 3 0.795609 3 0 
C 3 -0.795609 2.683901 -1.55874 2.12132 -2.12132 
C 1.55874 -2.683901 0.795609 -3 0 -3 
C -0.795609 -3 -1.55874 -2.683901 -2.12132 -2.12132 
C -2.683901 -1.55874 -3 -0.795609 -3 0 
C -3 0.795609 -2.683901 1.55874 -2.12132 2.12132 
C -1.55874 2.683901 -0.795609 3 0 3 
z
" id="m505af74095" style="stroke:#2ca02c;"/>
     </defs>
     <g>
      <use style="fill:#2ca02c;stroke:#2ca02c;" x="174.093293" xlink:href="#m505af74095" y="58.407812"/>
     </g>
    </g>
    <g id="text_9">
     <!-- soma/basal -->
     <g transform="translate(192.093293 61.032812)scale(0.1 -0.1)">
      <defs>
       <path d="M 3.328125 25.921875 
Q 3.328125 40.328125 11.328125 47.265625 
Q 18.015625 53.03125 27.640625 53.03125 
Q 38.328125 53.03125 45.109375 46.015625 
Q 51.90625 39.015625 51.90625 26.65625 
Q 51.90625 16.65625 48.90625 10.90625 
Q 45.90625 5.171875 40.15625 2 
Q 34.421875 -1.171875 27.640625 -1.171875 
Q 16.75 -1.171875 10.03125 5.8125 
Q 3.328125 12.796875 3.328125 25.921875 
z
M 12.359375 25.921875 
Q 12.359375 15.96875 16.703125 11.015625 
Q 21.046875 6.0625 27.640625 6.0625 
Q 34.1875 6.0625 38.53125 11.03125 
Q 42.875 16.015625 42.875 26.21875 
Q 42.875 35.84375 38.5 40.796875 
Q 34.125 45.75 27.640625 45.75 
Q 21.046875 45.75 16.703125 40.8125 
Q 12.359375 35.890625 12.359375 25.921875 
z
" id="ArialMT-111"/>
       <path d="M 6.59375 0 
L 6.59375 51.859375 
L 14.453125 51.859375 
L 14.453125 44.578125 
Q 16.890625 48.390625 20.9375 50.703125 
Q 25 53.03125 30.171875 53.03125 
Q 35.9375 53.03125 39.625 50.640625 
Q 43.3125 48.25 44.828125 43.953125 
Q 50.984375 53.03125 60.84375 53.03125 
Q 68.5625 53.03125 72.703125 48.75 
Q 76.859375 44.484375 76.859375 35.59375 
L 76.859375 0 
L 68.109375 0 
L 68.109375 32.671875 
Q 68.109375 37.9375 67.25 40.25 
Q 66.40625 42.578125 64.15625 43.984375 
Q 61.921875 45.40625 58.890625 45.40625 
Q 53.421875 45.40625 49.796875 41.765625 
Q 46.1875 38.140625 46.1875 30.125 
L 46.1875 0 
L 37.40625 0 
L 37.40625 33.6875 
Q 37.40625 39.546875 35.25 42.46875 
Q 33.109375 45.40625 28.21875 45.40625 
Q 24.515625 45.40625 21.359375 43.453125 
Q 18.21875 41.5 16.796875 37.734375 
Q 15.375 33.984375 15.375 26.90625 
L 15.375 0 
z
" id="ArialMT-109"/>
       <path d="M 0 -1.21875 
L 20.75 72.796875 
L 27.78125 72.796875 
L 7.078125 -1.21875 
z
" id="ArialMT-47"/>
      </defs>
      <use xlink:href="#ArialMT-115"/>
      <use x="50" xlink:href="#ArialMT-111"/>
      <use x="105.615234" xlink:href="#ArialMT-109"/>
      <use x="188.916016" xlink:href="#ArialMT-97"/>
      <use x="244.53125" xlink:href="#ArialMT-47"/>
      <use x="272.314453" xlink:href="#ArialMT-98"/>
      <use x="327.929688" xlink:href="#ArialMT-97"/>
      <use x="383.544922" xlink:href="#ArialMT-115"/>
      <use x="433.544922" xlink:href="#ArialMT-97"/>
      <use x="489.160156" xlink:href="#ArialMT-108"/>
     </g>
    </g>
    <g id="PathCollection_12">
     <defs>
      <path d="M 0 3 
C 0.795609 3 1.55874 2.683901 2.12132 2.12132 
C 2.683901 1.55874 3 0.795609 3 0 
C 3 -0.795609 2.683901 -1.55874 2.12132 -2.12132 
C 1.55874 -2.683901 0.795609 -3 0 -3 
C -0.795609 -3 -1.55874 -2.683901 -2.12132 -2.12132 
C -2.683901 -1.55874 -3 -0.795609 -3 0 
C -3 0.795609 -2.683901 1.55874 -2.12132 2.12132 
C -1.55874 2.683901 -0.795609 3 0 3 
z
" id="m81dc19dfeb" style="stroke:#d62728;"/>
     </defs>
     <g>
      <use style="fill:#d62728;stroke:#d62728;" x="174.093293" xlink:href="#m81dc19dfeb" y="72.553125"/>
     </g>
    </g>
    <g id="text_10">
     <!-- axon -->
     <g transform="translate(192.093293 75.178125)scale(0.1 -0.1)">
      <defs>
       <path d="M 0.734375 0 
L 19.671875 26.953125 
L 2.15625 51.859375 
L 13.140625 51.859375 
L 21.09375 39.703125 
Q 23.34375 36.234375 24.703125 33.890625 
Q 26.859375 37.109375 28.65625 39.59375 
L 37.40625 51.859375 
L 47.90625 51.859375 
L 29.984375 27.4375 
L 49.265625 0 
L 38.484375 0 
L 27.828125 16.109375 
L 25 20.453125 
L 11.375 0 
z
" id="ArialMT-120"/>
       <path d="M 6.59375 0 
L 6.59375 51.859375 
L 14.5 51.859375 
L 14.5 44.484375 
Q 20.21875 53.03125 31 53.03125 
Q 35.6875 53.03125 39.625 51.34375 
Q 43.5625 49.65625 45.515625 46.921875 
Q 47.46875 44.1875 48.25 40.4375 
Q 48.734375 37.984375 48.734375 31.890625 
L 48.734375 0 
L 39.9375 0 
L 39.9375 31.546875 
Q 39.9375 36.921875 38.90625 39.578125 
Q 37.890625 42.234375 35.28125 43.8125 
Q 32.671875 45.40625 29.15625 45.40625 
Q 23.53125 45.40625 19.453125 41.84375 
Q 15.375 38.28125 15.375 28.328125 
L 15.375 0 
z
" id="ArialMT-110"/>
      </defs>
      <use xlink:href="#ArialMT-97"/>
      <use x="55.615234" xlink:href="#ArialMT-120"/>
      <use x="105.615234" xlink:href="#ArialMT-111"/>
      <use x="161.230469" xlink:href="#ArialMT-110"/>
     </g>
    </g>
    <g id="text_11">
     <!-- light_power -->
     <g transform="translate(192.093293 89.323437)scale(0.1 -0.1)">
      <defs>
       <path d="M -1.515625 -19.875 
L -1.515625 -13.53125 
L 56.734375 -13.53125 
L 56.734375 -19.875 
z
" id="ArialMT-95"/>
       <path d="M 16.15625 0 
L 0.296875 51.859375 
L 9.375 51.859375 
L 17.625 21.921875 
L 20.703125 10.796875 
Q 20.90625 11.625 23.390625 21.484375 
L 31.640625 51.859375 
L 40.671875 51.859375 
L 48.4375 21.78125 
L 51.03125 11.859375 
L 54 21.875 
L 62.890625 51.859375 
L 71.4375 51.859375 
L 55.21875 0 
L 46.09375 0 
L 37.84375 31.0625 
L 35.84375 39.890625 
L 25.34375 0 
z
" id="ArialMT-119"/>
       <path d="M 6.5 0 
L 6.5 51.859375 
L 14.40625 51.859375 
L 14.40625 44 
Q 17.4375 49.515625 20 51.265625 
Q 22.5625 53.03125 25.640625 53.03125 
Q 30.078125 53.03125 34.671875 50.203125 
L 31.640625 42.046875 
Q 28.421875 43.953125 25.203125 43.953125 
Q 22.3125 43.953125 20.015625 42.21875 
Q 17.71875 40.484375 16.75 37.40625 
Q 15.28125 32.71875 15.28125 27.15625 
L 15.28125 0 
z
" id="ArialMT-114"/>
      </defs>
      <use xlink:href="#ArialMT-108"/>
      <use x="22.216797" xlink:href="#ArialMT-105"/>
      <use x="44.433594" xlink:href="#ArialMT-103"/>
      <use x="100.048828" xlink:href="#ArialMT-104"/>
      <use x="155.664062" xlink:href="#ArialMT-116"/>
      <use x="183.447266" xlink:href="#ArialMT-95"/>
      <use x="239.0625" xlink:href="#ArialMT-112"/>
      <use x="294.677734" xlink:href="#ArialMT-111"/>
      <use x="350.292969" xlink:href="#ArialMT-119"/>
      <use x="422.509766" xlink:href="#ArialMT-101"/>
      <use x="478.125" xlink:href="#ArialMT-114"/>
     </g>
    </g>
    <g id="PathCollection_13">
     <defs>
      <path d="M 0 3 
C 0.795609 3 1.55874 2.683901 2.12132 2.12132 
C 2.683901 1.55874 3 0.795609 3 0 
C 3 -0.795609 2.683901 -1.55874 2.12132 -2.12132 
C 1.55874 -2.683901 0.795609 -3 0 -3 
C -0.795609 -3 -1.55874 -2.683901 -2.12132 -2.12132 
C -2.683901 -1.55874 -3 -0.795609 -3 0 
C -3 0.795609 -2.683901 1.55874 -2.12132 2.12132 
C -1.55874 2.683901 -0.795609 3 0 3 
z
" id="md97379fe09" style="stroke:#333333;"/>
     </defs>
     <g>
      <use style="fill:#333333;stroke:#333333;" x="174.093293" xlink:href="#md97379fe09" y="100.960937"/>
     </g>
    </g>
    <g id="text_12">
     <!-- 0.0001 -->
     <g transform="translate(192.093293 103.585937)scale(0.1 -0.1)">
      <defs>
       <path d="M 9.078125 0 
L 9.078125 10.015625 
L 19.09375 10.015625 
L 19.09375 0 
z
" id="ArialMT-46"/>
      </defs>
      <use xlink:href="#ArialMT-48"/>
      <use x="55.615234" xlink:href="#ArialMT-46"/>
      <use x="83.398438" xlink:href="#ArialMT-48"/>
      <use x="139.013672" xlink:href="#ArialMT-48"/>
      <use x="194.628906" xlink:href="#ArialMT-48"/>
      <use x="250.244141" xlink:href="#ArialMT-49"/>
     </g>
    </g>
    <g id="PathCollection_14">
     <defs>
      <path d="M -1.5 3 
L 0 1.5 
L 1.5 3 
L 3 1.5 
L 1.5 0 
L 3 -1.5 
L 1.5 -3 
L 0 -1.5 
L -1.5 -3 
L -3 -1.5 
L -1.5 0 
L -3 1.5 
z
" id="m0f5e4a8f49" style="stroke:#333333;"/>
     </defs>
     <g>
      <use style="fill:#333333;stroke:#333333;" x="174.093293" xlink:href="#m0f5e4a8f49" y="115.10625"/>
     </g>
    </g>
    <g id="text_13">
     <!-- 0.001 -->
     <g transform="translate(192.093293 117.73125)scale(0.1 -0.1)">
      <use xlink:href="#ArialMT-48"/>
      <use x="55.615234" xlink:href="#ArialMT-46"/>
      <use x="83.398438" xlink:href="#ArialMT-48"/>
      <use x="139.013672" xlink:href="#ArialMT-48"/>
      <use x="194.628906" xlink:href="#ArialMT-49"/>
     </g>
    </g>
    <g id="PathCollection_15">
     <defs>
      <path d="M -2.12132 -2.12132 
L -2.12132 2.12132 
L 2.12132 2.12132 
L 2.12132 -2.12132 
z
" id="m3327665091" style="stroke:#333333;"/>
     </defs>
     <g>
      <use style="fill:#333333;stroke:#333333;" x="174.093293" xlink:href="#m3327665091" y="129.251562"/>
     </g>
    </g>
    <g id="text_14">
     <!-- 0.005 -->
     <g transform="translate(192.093293 131.876562)scale(0.1 -0.1)">
      <use xlink:href="#ArialMT-48"/>
      <use x="55.615234" xlink:href="#ArialMT-46"/>
      <use x="83.398438" xlink:href="#ArialMT-48"/>
      <use x="139.013672" xlink:href="#ArialMT-48"/>
      <use x="194.628906" xlink:href="#ArialMT-53"/>
     </g>
    </g>
   </g>
  </g>
 </g>
 <defs>
  <clipPath id="p3adff31b56">
   <rect height="71.929152" width="123.0576" x="30.882812" y="7.2"/>
  </clipPath>
 </defs>
</svg>
