<?xml version="1.0" encoding="UTF-8" standalone="no"?>
<!-- Created with Inkscape (http://www.inkscape.org/) -->

<svg
   xmlns:dc="http://purl.org/dc/elements/1.1/"
   xmlns:cc="http://creativecommons.org/ns#"
   xmlns:rdf="http://www.w3.org/1999/02/22-rdf-syntax-ns#"
   xmlns:svg="http://www.w3.org/2000/svg"
   xmlns="http://www.w3.org/2000/svg"
   xmlns:sodipodi="http://sodipodi.sourceforge.net/DTD/sodipodi-0.dtd"
   xmlns:inkscape="http://www.inkscape.org/namespaces/inkscape"
   width="76.632454mm"
   height="78.109001mm"
   viewBox="0 0 76.632454 78.109001"
   version="1.1"
   id="svg1456"
   inkscape:version="0.92.5 (2060ec1f9f, 2020-04-08)"
   sodipodi:docname="cat_V1_L5_model_depolarization_block.svg">
  <defs
     id="defs1450">
    <clipPath
       id="p134bc3c675"
       style="stroke-linecap:butt;stroke-linejoin:round">
      <rect
         id="rect15331"
         y="128.62048"
         x="35.304688"
         width="184.5864"
         height="25.295935"
         style="stroke-linecap:butt;stroke-linejoin:round" />
    </clipPath>
    <clipPath
       id="p3a149103b2"
       style="stroke-linecap:butt;stroke-linejoin:round">
      <rect
         id="rect15328"
         y="98.265366"
         x="35.304688"
         width="184.5864"
         height="25.295935"
         style="stroke-linecap:butt;stroke-linejoin:round" />
    </clipPath>
    <clipPath
       id="ped6f405032"
       style="stroke-linecap:butt;stroke-linejoin:round">
      <rect
         id="rect15325"
         y="67.91024"
         x="35.304688"
         width="184.5864"
         height="25.295935"
         style="stroke-linecap:butt;stroke-linejoin:round" />
    </clipPath>
    <clipPath
       id="pcafe6b9bea"
       style="stroke-linecap:butt;stroke-linejoin:round">
      <rect
         id="rect15322"
         y="37.555122"
         x="35.304688"
         width="184.5864"
         height="25.295935"
         style="stroke-linecap:butt;stroke-linejoin:round" />
    </clipPath>
    <clipPath
       id="pd2e7351383"
       style="stroke-linecap:butt;stroke-linejoin:round">
      <rect
         id="rect15319"
         y="7.1999998"
         x="35.304688"
         width="184.5864"
         height="25.295935"
         style="stroke-linecap:butt;stroke-linejoin:round" />
    </clipPath>
  </defs>
  <sodipodi:namedview
     id="base"
     pagecolor="#ffffff"
     bordercolor="#666666"
     borderopacity="1.0"
     inkscape:pageopacity="0.0"
     inkscape:pageshadow="2"
     inkscape:zoom="0.35"
     inkscape:cx="-272.32562"
     inkscape:cy="-180.96386"
     inkscape:document-units="mm"
     inkscape:current-layer="layer1"
     showgrid="false"
     fit-margin-top="0"
     fit-margin-left="0"
     fit-margin-right="0"
     fit-margin-bottom="0"
     inkscape:window-width="1848"
     inkscape:window-height="1016"
     inkscape:window-x="72"
     inkscape:window-y="27"
     inkscape:window-maximized="1" />
  <metadata
     id="metadata1453">
    <rdf:RDF>
      <cc:Work
         rdf:about="">
        <dc:format>image/svg+xml</dc:format>
        <dc:type
           rdf:resource="http://purl.org/dc/dcmitype/StillImage" />
        <dc:title></dc:title>
      </cc:Work>
    </rdf:RDF>
  </metadata>
  <g
     inkscape:label="Layer 1"
     inkscape:groupmode="layer"
     id="layer1"
     transform="translate(-39.546867,-22.844311)">
    <g
       id="g36024"
       transform="matrix(0.26458333,0,0,0.26458333,179.0486,-124.25303)"
       style="stroke-linecap:butt;stroke-linejoin:round">
      <path
         inkscape:connector-curvature="0"
         id="path17757"
         d="m -295.17318,568.47144 v 16.091 l 57.55701,-2e-5"
         style="fill:none;stroke:#000000;stroke-width:1px;stroke-linecap:butt;stroke-linejoin:miter;stroke-opacity:1" />
      <text
         y="595.66754"
         x="-283.86081"
         id="text26-2-3"
         font-size="12.5669"
         style="font-size:10.66666698px;font-family:Arial;stroke-width:1;stroke-linecap:butt;stroke-linejoin:round">200 ms</text>
      <text
         y="576.53516"
         x="-292.74969"
         id="text28-5-9"
         font-size="12.5669"
         style="font-size:10.66666698px;font-family:Arial;stroke-width:1;stroke-linecap:butt;stroke-linejoin:round">50 mV</text>
    </g>
    <path
       inkscape:connector-curvature="0"
       clip-path="url(#pd2e7351383)"
       d="m 35.304688,29.070914 6.991209,0.07824 59.067653,0.0053 0.92293,-0.09061 0.0923,-0.852277 0.16151,-3.401689 0.0461,-4.837912 0.0462,-11.866265 0.0692,4.015123 0.23073,12.702075 0.0461,0.253318 0.0692,-0.159746 0.39224,-2.359681 0.11537,-1.422376 0.16151,-2.7717 0.0231,0.04836 0.39225,2.370749 0.0923,-0.07885 0.32302,-0.65788 0.11537,0.139184 0.18458,0.0893 0.6922,-0.07229 2.6765,0.313093 0.27689,0.06881 1.17673,0.06119 0.27688,0.06316 1.31518,0.06202 8.88322,0.331313 13.221,0.139027 25.26527,0.04397 3.57636,-6.25e-4 0.78449,3.441041 0.39225,0.490389 0.78449,0.50711 2.51499,1.382886 1.68435,0.602959 2.37655,0.598362 3.59943,0.670093 4.36086,0.578118 4.91461,0.404528 5.97598,0.242267 7.96029,0.08154 14.67462,-0.120201 7.63726,-0.09936 v 0"
       style="fill:none;stroke:#000000;stroke-width:0.4383122;stroke-linecap:square;stroke-linejoin:round;stroke-miterlimit:4;stroke-dasharray:none"
       id="path14547"
       transform="matrix(0.30492488,0,0,0.58554609,49.12906,22.328438)" />
    <g
       id="line2d_44-8"
       style="stroke-width:0.4383122;stroke-linecap:butt;stroke-linejoin:round;stroke-miterlimit:4;stroke-dasharray:none"
       transform="matrix(0.30492488,0,0,0.58554609,49.12906,18.139507)">
      <path
         id="path14727"
         style="fill:none;stroke:#000000;stroke-width:0.4383122;stroke-linecap:square;stroke-linejoin:round;stroke-miterlimit:4;stroke-dasharray:none"
         d="m 35.304688,59.426035 6.991209,0.07824 59.067653,0.0053 0.946,-0.07431 0.11537,-0.599275 0.23073,-3.039529 0.0462,-2.695686 0.0692,-14.591401 0.0923,6.40594 0.23073,11.651383 0.0692,0.306585 0.0462,-0.08695 0.23073,-1.287777 0.36917,-2.926719 0.18459,-6.529972 0.0461,0.685264 0.32302,5.910875 0.0923,0.126367 0.0461,-0.0423 0.16152,-0.454374 0.16151,-0.999662 0.18459,-0.972035 0.16151,0.149291 0.36917,0.390372 0.92293,0.04916 0.29996,-0.03618 0.43839,0.01319 1.66128,0.169004 2.90723,0.207934 0.13844,0.02452 0.23074,0.08128 1.13059,-0.02541 0.27688,0.11519 1.13059,-0.03162 0.25381,0.120035 1.22288,0.0055 0.25381,0.06167 0.87678,-0.06648 0.87679,0.03821 0.46146,-0.01238 0.99216,0.07161 0.43839,-0.04092 1.06137,0.07852 0.41532,-0.04584 0.53068,0.207351 0.25381,0.01185 0.80757,-0.174972 0.89986,0.132275 0.50761,-0.127778 0.43839,0.162042 0.27688,0.118827 0.3461,-0.139368 0.48454,-0.127208 0.39225,0.162601 0.27688,0.156952 0.29995,-0.102534 0.57683,-0.212744 0.3461,0.136985 0.27688,0.206481 0.27688,-0.05994 0.6922,-0.259243 0.32302,0.166552 0.29996,0.185478 0.29995,-0.09422 0.64605,-0.25771 0.27688,0.140799 0.29995,0.237585 0.27688,-0.04521 0.87679,-0.345821 0.53069,0.418562 0.32302,-0.139192 0.57683,-0.258136 0.20766,0.09186 0.32303,0.293356 0.27688,-0.0079 0.99215,-0.265145 0.3461,0.295818 0.29995,-0.01969 0.92294,-0.3028 0.36917,0.323062 0.29995,-0.0091 0.53069,-0.320866 0.32302,-0.07235 0.39225,0.378652 0.32303,0.02123 0.43839,-0.23925 0.43839,-0.157555 0.39225,0.373187 0.32302,0.04109 0.39225,-0.199384 0.48454,-0.225297 0.41532,0.38495 0.32303,0.03793 0.41532,-0.205044 0.46146,-0.183634 0.39225,0.338047 0.3461,0.03906 0.43839,-0.206089 0.43839,-0.158773 0.39225,0.339123 0.3461,0.04076 0.41532,-0.206381 0.46146,-0.181758 0.39225,0.34864 0.3461,0.04362 0.43839,-0.209783 0.43839,-0.178263 0.39225,0.336228 0.3461,0.04702 0.41532,-0.186172 0.48454,-0.182119 0.39224,0.343235 0.3461,0.04193 0.39225,-0.197064 0.48454,-0.21989 0.41532,0.379846 0.3461,0.04346 0.39224,-0.189341 0.48454,-0.23063 0.41532,0.365112 0.3461,0.05475 0.39225,-0.188607 0.48454,-0.223756 0.41532,0.367103 0.3461,0.04725 0.39224,-0.194687 0.48454,-0.228986 0.41532,0.370285 0.3461,0.06519 0.36917,-0.171654 0.53069,-0.250494 0.46147,0.37997 0.34609,0.02761 0.41533,-0.231998 0.41531,-0.174157 0.4384,0.361115 0.3461,0.04271 0.39224,-0.194446 0.46147,-0.22475 0.43839,0.381791 0.20766,0.162842 0.80757,3.454167 0.41532,0.541511 0.71527,0.497612 1.86893,0.990961 1.66128,0.619294 1.96123,0.504857 3.32256,0.590369 3.96861,0.482211 4.89154,0.366986 5.99905,0.216818 8.60634,0.06341 16.98195,-0.162746 6.43745,-0.0836 v 0"
         clip-path="url(#pcafe6b9bea)"
         inkscape:connector-curvature="0" />
    </g>
    <g
       id="line2d_67-0"
       style="stroke-width:0.4383122;stroke-linecap:butt;stroke-linejoin:round;stroke-miterlimit:4;stroke-dasharray:none"
       transform="matrix(0.30492488,0,0,0.58554609,49.12906,13.966541)">
      <path
         id="path14903"
         style="fill:none;stroke:#000000;stroke-width:0.4383122;stroke-linecap:square;stroke-linejoin:round;stroke-miterlimit:4;stroke-dasharray:none"
         d="m 35.304688,89.781155 6.991209,0.07824 59.067653,0.0053 0.946,-0.05961 0.11537,-0.488905 0.23073,-2.533966 0.0692,-2.331352 0.0923,-15.640183 0.0692,5.491318 0.23074,12.70157 0.0923,0.534644 0.0461,-0.08731 0.20766,-1.125469 0.41532,-3.29101 0.16151,-7.388928 0.0692,1.110871 0.29995,6.779991 0.11537,0.228043 0.0231,-0.01647 0.13844,-0.31053 0.20766,-0.964273 0.32303,-2.195232 0.0231,0.01593 0.13844,0.413688 0.27688,0.708401 0.16151,-0.02 0.53069,-0.280913 0.39224,0.182764 0.53069,-0.03641 1.6382,0.162123 1.7305,0.139937 0.16151,0.02071 0.23074,0.07883 0.96908,-0.0067 2.30733,0.112085 0.48454,0.03125 0.92293,0.06216 0.46146,-0.02022 1.10752,0.07668 0.46147,-0.01243 0.99215,0.09088 0.43839,-0.05827 0.66913,0.228735 0.27688,-0.04449 0.57683,-0.150124 0.53069,0.166493 0.2538,0.104012 0.36918,-0.141423 0.46146,-0.09081 0.46147,0.173515 0.27688,0.12258 0.3461,-0.144039 0.46146,-0.137664 0.41532,0.138094 0.27688,0.210925 0.27688,-0.06987 0.66913,-0.266408 0.36917,0.181229 0.27688,0.208107 0.27688,-0.06064 0.76142,-0.304214 0.27688,0.177836 0.29995,0.230183 0.27688,-0.05539 0.87679,-0.369005 0.69219,0.450322 0.4384,-0.305725 0.41532,-0.190061 0.11536,0.09372 0.36918,0.416699 0.29995,0.03077 0.36917,-0.225567 0.53069,-0.311075 0.50761,0.529693 0.29995,0.01926 0.3461,-0.215666 0.46147,-0.317922 0.0231,0.02797 0.53069,0.473271 0.32302,0.03538 0.36918,-0.211042 0.43839,-0.232695 0.73834,0.443827 0.32303,-0.04639 0.39225,-0.307609 0.11536,-0.07295 0.0231,0.01489 0.76142,0.339288 0.39224,0.01644 0.36917,-0.211196 0.13844,-0.01642 0.3461,0.07675 1.19982,-0.03107 0.11536,0.03853 0.29995,0.110888 0.55377,-0.09391 0.78449,-0.05191 0.29995,0.254452 0.29995,8.06e-4 0.55376,-0.315591 0.43839,-0.122656 0.13844,0.183679 0.36918,0.367625 0.27688,0.0052 0.3461,-0.246296 0.55375,-0.512394 0.0231,0.02403 0.6922,0.861786 0.2538,-0.03612 0.29996,-0.297723 0.53068,-0.583197 0.23074,0.282488 0.53068,0.700967 0.25381,-0.01695 0.27688,-0.280454 0.5999,-0.746556 0.16152,0.14095 0.71527,0.975226 0.23073,-0.10077 0.43839,-0.554108 0.4384,-0.553651 0.0231,0.01626 0.20766,0.361942 0.48454,0.846199 0.23073,0.02237 0.4384,-0.36813 0.27687,-0.610656 0.27688,-0.457722 0.11537,0.116161 0.32303,0.871736 0.32302,0.546058 0.13844,-0.04534 0.13844,0.04992 0.18459,-0.06582 0.20766,-0.331846 0.32302,-1.067331 0.20766,-0.407308 0.11537,0.213389 0.64605,1.755531 0.3461,0.09502 0.20766,-0.32077 0.27688,-0.979723 0.29995,-1.135858 0.0231,0.01834 0.11536,0.391534 0.48454,2.002871 0.16152,0.199372 0.18458,0.05645 0.20766,-0.215718 0.23074,-0.627118 0.32302,-1.69677 0.11537,-0.389932 0.0462,0.04996 0.13844,0.702534 0.39224,1.934113 0.4384,0.308865 0.20765,-0.30751 0.23074,-0.782075 0.39224,-2.066537 0.0923,0.301042 0.55376,2.722495 0.20765,0.23978 0.18459,-0.107971 0.23073,-0.445616 0.27688,-1.189689 0.25381,-1.539629 0.0692,0.173539 0.20766,1.794777 0.43839,3.436999 0.32303,0.971178 0.36917,0.440142 0.59991,0.311827 3.43792,1.335842 2.05352,0.500788 3.16104,0.53418 4.01476,0.459278 4.96076,0.342229 6.69126,0.204346 9.22932,0.03048 20.46601,-0.225691 1.61513,-0.02088 v 0"
         clip-path="url(#ped6f405032)"
         inkscape:connector-curvature="0" />
    </g>
    <g
       id="line2d_90-4"
       style="stroke-width:0.4383122;stroke-linecap:butt;stroke-linejoin:round;stroke-miterlimit:4;stroke-dasharray:none"
       transform="matrix(0.30492488,0,0,0.58554609,49.12906,9.6072929)">
      <path
         id="path15075"
         style="fill:none;stroke:#000000;stroke-width:0.4383122;stroke-linecap:square;stroke-linejoin:round;stroke-miterlimit:4;stroke-dasharray:none"
         d="m 35.304688,120.13628 6.991209,0.0782 59.067653,0.005 1.03829,-0.10648 0.16152,-0.45785 0.27688,-1.58857 0.0692,-0.90289 0.0923,-6.16627 0.0692,-11.527963 0.0461,3.423523 0.27688,15.93275 0.13844,0.93634 0.0231,-0.005 0.11536,-0.3226 0.48455,-2.57858 0.23073,-1.55158 0.0692,-3.61031 0.0923,-10.11308 0.0462,2.61759 0.2538,12.844 0.18459,1.12918 0.0923,-0.1578 0.32303,-1.30914 0.36917,-2.02902 0.20766,-10.54073 0.0692,2.74666 0.27688,9.22705 0.18459,0.7542 0.11536,-0.14162 0.29996,-0.9365 0.27688,-1.3091 0.29995,-8.0897 0.0692,1.33781 0.32303,7.12969 0.20766,0.73438 0.13843,-0.0708 0.25381,-0.5409 0.18459,-0.78398 0.43839,-6.14486 0.0923,1.20685 0.32303,4.54376 0.23073,0.7785 0.16152,0.0207 0.18458,-0.2523 0.16152,-0.6145 0.41532,-3.16326 0.11536,-1.29954 0.0461,0.18556 0.62298,4.51158 0.18458,0.0903 0.18459,-0.19413 0.29995,-0.82203 0.16152,-0.76976 0.2538,-2.16982 0.0923,0.3439 0.53068,3.14322 0.23073,0.25503 0.18459,-0.0829 0.18459,-0.35839 0.46146,-1.94929 0.16152,-0.98143 0.0461,0.0711 0.16152,1.00829 0.36917,1.90289 0.27688,0.42086 0.20766,-0.0323 0.20766,-0.2859 0.46146,-1.67853 0.20766,-1.45547 0.0461,0.0751 0.16151,1.07681 0.36918,2.05216 0.27688,0.46951 0.20765,-0.009 0.23074,-0.27291 0.39224,-0.99478 0.16152,-1.27322 0.18458,-1.48199 0.0231,0.0585 0.13844,1.09619 0.36917,2.59479 0.25381,0.56897 0.20766,0.0396 0.23073,-0.23217 0.43839,-0.92909 0.16152,-0.94811 0.23073,-2.73569 0.0692,0.31738 0.57683,4.57728 0.23073,0.26788 0.20766,-0.0947 0.23074,-0.38454 0.55376,-1.79176 0.23073,-3.31783 0.0923,0.68465 0.43839,4.54429 0.23074,0.56853 0.18458,0.0254 0.23074,-0.23234 0.18458,-0.45301 0.18459,-0.3894 0.13844,-0.26483 0.16151,-0.75967 0.13844,-2.09889 0.11537,-1.96391 0.0461,0.14257 0.25381,3.73286 0.27688,2.10504 0.23073,0.40451 0.18459,-0.056 0.27688,-0.38499 0.55376,-1.47847 0.13844,-1.45521 0.16151,-3.32963 0.0692,0.48918 0.48454,5.9699 0.23073,0.43638 0.18459,-0.0655 0.27688,-0.38721 0.16151,-0.56985 0.16152,-0.31243 0.11536,-0.17051 0.16152,-0.62128 0.11536,-1.21749 0.18459,-3.79936 0.0461,0.44891 0.48454,6.42861 0.20766,0.42316 0.18459,-0.0531 0.29995,-0.41788 0.16152,-0.50903 0.13844,-0.48401 0.0461,0.0125 0.11537,-0.16214 0.16151,-0.63226 0.11537,-1.2923 0.16151,-4.00753 0.0692,0.62846 0.43839,6.48297 0.20766,0.55846 0.16152,-10e-4 0.2538,-0.29911 0.25381,-0.56795 0.16151,-0.70666 0.0692,0.0245 0.11537,-0.17916 0.16151,-0.6846 0.11537,-1.53818 0.16151,-3.9067 0.0462,0.5605 0.46146,6.98812 0.20766,0.45889 0.16152,-0.0463 0.29995,-0.41673 0.20766,-0.52534 0.16151,-0.746 0.0461,0.0341 0.0923,-0.0845 0.16152,-0.5431 0.11536,-1.08695 0.18459,-4.79146 0.0923,1.50823 0.3461,5.92618 0.23073,0.85342 0.16152,0.0152 0.2538,-0.31073 0.29996,-0.63754 0.18458,-0.89571 0.0923,0.0222 0.13844,-0.3333 0.13844,-0.91709 0.0923,-2.07853 0.11537,-3.32927 0.0461,0.48068 0.48454,7.77114 0.20766,0.36389 0.16151,-0.0949 0.3461,-0.55253 0.18459,-0.5561 0.13844,-0.80122 0.0461,0.0304 0.0692,-0.0159 0.0231,-0.0374 0.13844,-0.47465 0.11537,-1.11636 0.18458,-5.14092 0.0692,1.25769 0.3461,6.64345 0.23074,0.92883 0.16151,0.009 0.2538,-0.33591 0.3461,-0.77329 0.18459,-0.99522 0.0692,0.037 0.11537,-0.26672 0.13844,-0.96453 0.0923,-2.37928 0.0923,-3.35155 0.0692,0.78619 0.39225,7.63186 0.20766,0.72345 0.16151,-0.0116 0.27688,-0.40129 0.3461,-0.85056 0.16151,-0.98889 0.0462,0.0504 0.0692,-0.0581 0.13844,-0.57306 0.11537,-1.69515 0.13844,-4.83286 0.0692,1.28227 0.3461,7.26323 0.20766,0.90479 0.16151,0.0267 0.23073,-0.31357 0.41532,-0.92128 0.27688,-1.16388 0.11537,-0.43366 0.11536,-1.44853 0.13844,-5.41158 0.0692,1.09751 0.36918,7.93076 0.20766,0.78339 0.13844,-0.003 0.2538,-0.37202 0.41532,-0.97203 0.18459,-1.24574 0.0692,0.0153 0.11536,-0.48003 0.0923,-1.25365 0.13844,-5.72621 0.0923,1.93249 0.32303,7.30381 0.20766,0.91988 0.13844,0.0153 0.23073,-0.3372 0.46147,-1.07146 0.46146,-4.14384 0.11537,-4.84959 0.0461,0.95078 0.36918,8.81723 0.20766,0.78204 0.13844,-0.0353 0.2538,-0.4326 0.4384,-1.08889 0.41532,-4.34656 0.0923,-4.89201 0.0692,1.22214 0.3461,8.85149 0.20766,0.87146 0.13844,-0.0339 0.2538,-0.45283 0.46147,-1.18286 0.3461,-3.68612 0.11537,-5.92047 0.0692,1.69817 0.32302,8.8124 0.20766,0.94648 0.13844,-0.0422 0.27688,-0.53979 0.46147,-1.23929 0.29995,-4.10719 0.11537,-5.80843 0.0461,1.23118 0.3461,9.92944 0.18459,0.78887 0.11537,-0.0272 0.23073,-0.44643 0.55376,-1.52002 0.2538,-4.18666 0.11537,-6.10818 0.0461,1.34245 0.32302,10.21931 0.18459,0.94153 0.11537,-0.0157 0.20766,-0.41767 0.5999,-1.66893 0.20766,-3.58161 0.11537,-7.16046 0.0923,2.87462 0.27688,9.10711 0.18459,1.07016 0.11536,-0.012 0.20766,-0.44069 0.62298,-1.85193 0.18459,-3.87673 0.11536,-7.27349 0.0692,2.46446 0.29996,10.31107 0.18458,0.90039 0.11537,-0.0714 0.25381,-0.63464 0.0461,0.21091 0.27688,0.65455 0.29996,0.17605 2.37655,0.59978 2.16889,0.80169 2.14581,0.49082 3.04568,0.39754 4.52237,0.31588 6.02213,0.19044 9.48312,0.0487 19.42772,-0.18108 7.84492,-0.0867 v 0"
         clip-path="url(#p3a149103b2)"
         inkscape:connector-curvature="0" />
    </g>
    <g
       id="line2d_113"
       style="stroke-width:0.4383122;stroke-linecap:butt;stroke-linejoin:round;stroke-miterlimit:4;stroke-dasharray:none"
       transform="matrix(0.30492488,0,0,0.58554609,49.12906,5.0341809)">
      <path
         id="path15291"
         style="fill:none;stroke:#000000;stroke-width:0.4383122;stroke-linecap:square;stroke-linejoin:round;stroke-miterlimit:4;stroke-dasharray:none"
         d="m 35.304688,150.4914 6.991209,0.0782 59.067653,0.005 1.66127,-0.11098 0.80757,-0.36566 0.83064,-0.54939 0.0692,-0.36128 0.13844,-3.81776 0.0923,-15.35243 0.0923,5.91077 0.27688,14.66249 0.20766,1.96341 0.20766,0.28787 0.20766,-0.0885 0.41532,-0.49852 1.75357,-2.50864 0.0692,-1.42273 0.13844,-7.53566 0.0692,-10.78121 0.0462,3.38283 0.27688,16.67773 0.20766,2.40142 0.20766,0.35182 0.20766,-0.0818 0.43839,-0.54333 1.47669,-1.97336 0.80757,-0.65777 0.78449,-0.62694 0.0692,-1.19765 0.11537,-5.64406 0.0692,-12.08801 0.0692,4.85803 0.27687,15.47941 0.20766,2.11586 0.20766,0.30537 0.20766,-0.0974 0.4384,-0.55607 1.38439,-1.84621 0.83064,-0.67175 0.87679,-0.43016 1.2921,-0.55963 0.0692,-1.18727 0.11537,-5.70459 0.0692,-11.48086 0.0692,4.84642 0.27688,15.2071 0.20766,2.10672 0.20766,0.3166 0.20766,-0.0905 0.43839,-0.54812 1.31518,-1.73813 0.87678,-0.70336 0.92294,-0.43261 1.15366,-0.27711 1.68435,-0.14918 3.78402,-0.0461 32.18726,0.0215 1.91508,0.87594 1.59206,0.44877 1.86894,0.29957 2.49191,0.19108 4.36086,0.10855 11.55972,0.0253 33.59472,-0.0545 v 0"
         clip-path="url(#p134bc3c675)"
         inkscape:connector-curvature="0" />
    </g>
    <rect
       style="opacity:0.1;fill:#5183ae;stroke-width:0.26458332;stroke-linecap:butt;stroke-linejoin:round"
       x="80.234108"
       y="26.155043"
       width="18.420799"
       height="72.499527"
       id="rect194-1" />
    <text
       id="text230-4"
       font-size="14"
       style="font-size:2.82222223px;font-family:Arial;text-align:end;text-anchor:end;fill:#5183ae;stroke-width:0.26458332;stroke-linecap:butt;stroke-linejoin:round"
       x="65.121605"
       y="88.21151">1.0 10</text>
    <text
       id="text232-5"
       font-size="14"
       style="font-size:1.76388884px;font-family:Arial;fill:#5183ae;stroke-width:0.15425208;stroke-linecap:butt;stroke-linejoin:round"
       x="64.72081"
       y="86.346878">16</text>
    <text
       id="text244-8"
       font-size="14"
       style="font-size:2.82222223px;font-family:Arial;text-align:end;text-anchor:end;fill:#5183ae;stroke-width:0.26458332;stroke-linecap:butt;stroke-linejoin:round"
       x="65.078552"
       y="75.821342">5.1 10</text>
    <text
       id="text246-8"
       font-size="14"
       style="font-size:1.76388884px;font-family:Arial;fill:#5183ae;stroke-width:0.15425208;stroke-linecap:butt;stroke-linejoin:round"
       x="64.72081"
       y="73.956741">17</text>
    <text
       id="text250-4"
       font-size="14"
       style="font-size:2.82222223px;font-family:Arial;text-align:end;text-anchor:end;fill:#5183ae;stroke-width:0.26458332;stroke-linecap:butt;stroke-linejoin:round"
       x="64.885956"
       y="48.109776">2.5 10</text>
    <text
       id="text252-3"
       font-size="14"
       style="font-size:1.76388884px;font-family:Arial;fill:#5183ae;stroke-width:0.15425208;stroke-linecap:butt;stroke-linejoin:round"
       x="64.72081"
       y="46.245159">18</text>
    <text
       id="text256-5"
       font-size="14"
       style="font-size:2.82222223px;font-family:Arial;text-align:end;text-anchor:end;fill:#5183ae;stroke-width:0.26458332;stroke-linecap:butt;stroke-linejoin:round"
       x="65.04792"
       y="33.902954">7.6 10</text>
    <text
       id="text258-0"
       font-size="14"
       style="font-size:1.76388884px;font-family:Arial;fill:#5183ae;stroke-width:0.15425208;stroke-linecap:butt;stroke-linejoin:round"
       x="64.72081"
       y="32.038322">18</text>
    <text
       id="text262-5"
       font-size="14"
       style="font-size:2.82222223px;font-family:Arial;text-align:end;text-anchor:end;fill:#5183ae;stroke-width:0.26458332;stroke-linecap:butt;stroke-linejoin:round"
       x="65.051476"
       y="62.316612">2.0 10</text>
    <text
       id="text264-9"
       font-size="14"
       style="font-size:1.76388884px;font-family:Arial;fill:#5183ae;stroke-width:0.15425208;stroke-linecap:butt;stroke-linejoin:round"
       x="64.72081"
       y="60.452011">18</text>
    <text
       id="text74-4-5"
       font-size="12"
       transform="scale(1.0002,0.99980004)"
       style="font-size:2.82222223px;font-family:Arial;fill:#5183ae;stroke-width:0.26463625;stroke-linecap:butt;stroke-linejoin:round"
       x="57.186699"
       y="99.001671">photons/cm²/s</text>
    <text
       id="text68-4-4-2"
       font-size="14"
       style="font-size:2.82222223px;font-family:Arial;text-align:end;text-anchor:end;fill:#5183ae;stroke-width:0.26458332;stroke-linecap:butt;stroke-linejoin:round"
       x="48.297417"
       y="93.537643">1</text>
    <text
       id="text82-6-9-7"
       font-size="14"
       style="font-size:2.82222223px;font-family:Arial;text-align:end;text-anchor:end;fill:#5183ae;stroke-width:0.26458332;stroke-linecap:butt;stroke-linejoin:round"
       x="48.985744"
       y="80.941704">50</text>
    <text
       id="text88-0-1-6"
       font-size="14"
       style="font-size:2.82222223px;font-family:Arial;text-align:end;text-anchor:end;fill:#5183ae;stroke-width:0.26458332;stroke-linecap:butt;stroke-linejoin:round"
       x="49.786495"
       y="53.401443">250</text>
    <text
       id="text94-6-3-1"
       font-size="14"
       style="font-size:2.82222223px;font-family:Arial;text-align:end;text-anchor:end;fill:#5183ae;stroke-width:0.26458332;stroke-linecap:butt;stroke-linejoin:round"
       x="49.762268"
       y="39.723789">750</text>
    <text
       id="text88-0-1-6-5"
       font-size="14"
       style="font-size:2.82222223px;font-family:Arial;text-align:end;text-anchor:end;fill:#5183ae;stroke-width:0.26458332;stroke-linecap:butt;stroke-linejoin:round"
       x="49.786495"
       y="67.079109">200</text>
    <text
       xml:space="preserve"
       style="font-style:normal;font-variant:normal;font-weight:normal;font-stretch:normal;font-size:2.82222223px;line-height:1;font-family:Arial;-inkscape-font-specification:Arial;text-align:center;letter-spacing:0px;word-spacing:0px;text-anchor:middle;fill:#5183ae;fill-opacity:1;stroke:none;stroke-width:0.26458332;stroke-linecap:butt;stroke-linejoin:round"
       x="47.436825"
       y="97.537155"
       id="text1406-6"><tspan
         sodipodi:role="line"
         id="tspan1404-7"
         style="line-height:1;text-align:center;text-anchor:middle;fill:#5183ae;fill-opacity:1;stroke-width:0.26458332;stroke-linecap:butt;stroke-linejoin:round"
         x="47.436825"
         y="97.537155">norm. stimul.</tspan><tspan
         sodipodi:role="line"
         style="line-height:1;text-align:center;text-anchor:middle;fill:#5183ae;fill-opacity:1;stroke-width:0.26458332;stroke-linecap:butt;stroke-linejoin:round"
         x="47.436825"
         y="100.35938"
         id="tspan1408-5">intensity</tspan></text>
    <text
       xml:space="preserve"
       style="font-style:normal;font-variant:normal;font-weight:normal;font-stretch:normal;font-size:3.52777767px;line-height:1.25;font-family:Arial;-inkscape-font-specification:Arial;letter-spacing:0px;word-spacing:0px;fill:#000000;fill-opacity:1;stroke:none;stroke-width:0.26458332;stroke-linecap:butt;stroke-linejoin:round"
       x="45.049377"
       y="25.41263"
       id="text31370-2"><tspan
         sodipodi:role="line"
         id="tspan31368-0"
         style="font-size:3.52777767px;stroke-width:0.26458332;stroke-linecap:butt;stroke-linejoin:round"
         x="45.049377"
         y="25.41263">cat V1 L5 pyramid ChR2</tspan></text>
  </g>
</svg>
