<?xml version="1.0" encoding="utf-8" standalone="no"?>
<!DOCTYPE svg PUBLIC "-//W3C//DTD SVG 1.1//EN"
  "http://www.w3.org/Graphics/SVG/1.1/DTD/svg11.dtd">
<!-- Created with matplotlib (https://matplotlib.org/) -->
<svg height="177.794541pt" version="1.1" viewBox="0 0 236.634838 177.794541" width="236.634838pt" xmlns="http://www.w3.org/2000/svg" xmlns:xlink="http://www.w3.org/1999/xlink">
 <metadata>
  <rdf:RDF xmlns:cc="http://creativecommons.org/ns#" xmlns:dc="http://purl.org/dc/elements/1.1/" xmlns:rdf="http://www.w3.org/1999/02/22-rdf-syntax-ns#">
   <cc:Work>
    <dc:type rdf:resource="http://purl.org/dc/dcmitype/StillImage"/>
    <dc:date>2023-06-09T14:03:58.780675</dc:date>
    <dc:format>image/svg+xml</dc:format>
    <dc:creator>
     <cc:Agent>
      <dc:title>Matplotlib v3.3.4, https://matplotlib.org/</dc:title>
     </cc:Agent>
    </dc:creator>
   </cc:Work>
  </rdf:RDF>
 </metadata>
 <defs>
  <style type="text/css">*{stroke-linecap:butt;stroke-linejoin:round;}</style>
 </defs>
 <g id="figure_1">
  <g id="patch_1">
   <path d="M 0 177.794541 
L 236.634838 177.794541 
L 236.634838 0 
L 0 0 
z
" style="fill:#ffffff;"/>
  </g>
  <g id="axes_1">
   <g id="patch_2">
    <path d="M 35.304688 39.094873 
L 219.891087 39.094873 
L 219.891087 7.2 
L 35.304688 7.2 
z
" style="fill:#ffffff;"/>
   </g>
   <g id="matplotlib.axis_1">
    <g id="xtick_1">
     <g id="line2d_1">
      <defs>
       <path d="M 0 0 
L 0 3.5 
" id="m01417be471" style="stroke:#000000;stroke-width:0.8;"/>
      </defs>
      <g>
       <use style="stroke:#000000;stroke-width:0.8;" x="35.304688" xlink:href="#m01417be471" y="39.094873"/>
      </g>
     </g>
    </g>
    <g id="xtick_2">
     <g id="line2d_2">
      <g>
       <use style="stroke:#000000;stroke-width:0.8;" x="81.451288" xlink:href="#m01417be471" y="39.094873"/>
      </g>
     </g>
    </g>
    <g id="xtick_3">
     <g id="line2d_3">
      <g>
       <use style="stroke:#000000;stroke-width:0.8;" x="127.597887" xlink:href="#m01417be471" y="39.094873"/>
      </g>
     </g>
    </g>
    <g id="xtick_4">
     <g id="line2d_4">
      <g>
       <use style="stroke:#000000;stroke-width:0.8;" x="173.744487" xlink:href="#m01417be471" y="39.094873"/>
      </g>
     </g>
    </g>
    <g id="xtick_5">
     <g id="line2d_5">
      <g>
       <use style="stroke:#000000;stroke-width:0.8;" x="219.891087" xlink:href="#m01417be471" y="39.094873"/>
      </g>
     </g>
    </g>
   </g>
   <g id="matplotlib.axis_2">
    <g id="ytick_1">
     <g id="line2d_6">
      <defs>
       <path d="M 0 0 
L -3.5 0 
" id="m5ba391c657" style="stroke:#000000;stroke-width:0.8;"/>
      </defs>
      <g>
       <use style="stroke:#000000;stroke-width:0.8;" x="35.304688" xlink:href="#m5ba391c657" y="34.538463"/>
      </g>
     </g>
     <g id="text_1">
      <!-- −70 -->
      <g transform="translate(7.2 38.337681)scale(0.1 -0.1)">
       <defs>
        <path d="M 10.59375 35.5 
L 73.1875 35.5 
L 73.1875 27.203125 
L 10.59375 27.203125 
z
" id="DejaVuSans-8722"/>
        <path d="M 8.203125 72.90625 
L 55.078125 72.90625 
L 55.078125 68.703125 
L 28.609375 0 
L 18.3125 0 
L 43.21875 64.59375 
L 8.203125 64.59375 
z
" id="DejaVuSans-55"/>
        <path d="M 31.78125 66.40625 
Q 24.171875 66.40625 20.328125 58.90625 
Q 16.5 51.421875 16.5 36.375 
Q 16.5 21.390625 20.328125 13.890625 
Q 24.171875 6.390625 31.78125 6.390625 
Q 39.453125 6.390625 43.28125 13.890625 
Q 47.125 21.390625 47.125 36.375 
Q 47.125 51.421875 43.28125 58.90625 
Q 39.453125 66.40625 31.78125 66.40625 
z
M 31.78125 74.21875 
Q 44.046875 74.21875 50.515625 64.515625 
Q 56.984375 54.828125 56.984375 36.375 
Q 56.984375 17.96875 50.515625 8.265625 
Q 44.046875 -1.421875 31.78125 -1.421875 
Q 19.53125 -1.421875 13.0625 8.265625 
Q 6.59375 17.96875 6.59375 36.375 
Q 6.59375 54.828125 13.0625 64.515625 
Q 19.53125 74.21875 31.78125 74.21875 
z
" id="DejaVuSans-48"/>
       </defs>
       <use xlink:href="#DejaVuSans-8722"/>
       <use x="83.789062" xlink:href="#DejaVuSans-55"/>
       <use x="147.412109" xlink:href="#DejaVuSans-48"/>
      </g>
     </g>
    </g>
    <g id="ytick_2">
     <g id="line2d_7">
      <g>
       <use style="stroke:#000000;stroke-width:0.8;" x="35.304688" xlink:href="#m5ba391c657" y="18.591026"/>
      </g>
     </g>
     <g id="text_2">
      <!-- 0 -->
      <g transform="translate(21.942187 22.390245)scale(0.1 -0.1)">
       <use xlink:href="#DejaVuSans-48"/>
      </g>
     </g>
    </g>
    <g id="ytick_3">
     <g id="line2d_8">
      <defs>
       <path d="M 0 0 
L -2 0 
" id="mc483f2bb6f" style="stroke:#000000;stroke-width:0.6;"/>
      </defs>
      <g>
       <use style="stroke:#000000;stroke-width:0.6;" x="35.304688" xlink:href="#mc483f2bb6f" y="39.094873"/>
      </g>
     </g>
    </g>
    <g id="ytick_4">
     <g id="line2d_9">
      <g>
       <use style="stroke:#000000;stroke-width:0.6;" x="35.304688" xlink:href="#mc483f2bb6f" y="36.816668"/>
      </g>
     </g>
    </g>
    <g id="ytick_5">
     <g id="line2d_10">
      <g>
       <use style="stroke:#000000;stroke-width:0.6;" x="35.304688" xlink:href="#mc483f2bb6f" y="32.260257"/>
      </g>
     </g>
    </g>
    <g id="ytick_6">
     <g id="line2d_11">
      <g>
       <use style="stroke:#000000;stroke-width:0.6;" x="35.304688" xlink:href="#mc483f2bb6f" y="29.982052"/>
      </g>
     </g>
    </g>
    <g id="ytick_7">
     <g id="line2d_12">
      <g>
       <use style="stroke:#000000;stroke-width:0.6;" x="35.304688" xlink:href="#mc483f2bb6f" y="27.703847"/>
      </g>
     </g>
    </g>
    <g id="ytick_8">
     <g id="line2d_13">
      <g>
       <use style="stroke:#000000;stroke-width:0.6;" x="35.304688" xlink:href="#mc483f2bb6f" y="25.425642"/>
      </g>
     </g>
    </g>
    <g id="ytick_9">
     <g id="line2d_14">
      <g>
       <use style="stroke:#000000;stroke-width:0.6;" x="35.304688" xlink:href="#mc483f2bb6f" y="23.147437"/>
      </g>
     </g>
    </g>
    <g id="ytick_10">
     <g id="line2d_15">
      <g>
       <use style="stroke:#000000;stroke-width:0.6;" x="35.304688" xlink:href="#mc483f2bb6f" y="20.869231"/>
      </g>
     </g>
    </g>
    <g id="ytick_11">
     <g id="line2d_16">
      <g>
       <use style="stroke:#000000;stroke-width:0.6;" x="35.304688" xlink:href="#mc483f2bb6f" y="16.312821"/>
      </g>
     </g>
    </g>
    <g id="ytick_12">
     <g id="line2d_17">
      <g>
       <use style="stroke:#000000;stroke-width:0.6;" x="35.304688" xlink:href="#mc483f2bb6f" y="14.034616"/>
      </g>
     </g>
    </g>
    <g id="ytick_13">
     <g id="line2d_18">
      <g>
       <use style="stroke:#000000;stroke-width:0.6;" x="35.304688" xlink:href="#mc483f2bb6f" y="11.75641"/>
      </g>
     </g>
    </g>
    <g id="ytick_14">
     <g id="line2d_19">
      <g>
       <use style="stroke:#000000;stroke-width:0.6;" x="35.304688" xlink:href="#mc483f2bb6f" y="9.478205"/>
      </g>
     </g>
    </g>
    <g id="ytick_15">
     <g id="line2d_20">
      <g>
       <use style="stroke:#000000;stroke-width:0.6;" x="35.304688" xlink:href="#mc483f2bb6f" y="7.2"/>
      </g>
     </g>
    </g>
   </g>
   <g id="line2d_21">
    <path clip-path="url(#p034a7f3320)" d="M 35.304688 34.77637 
L 41.372965 34.872314 
L 79.143957 34.881656 
L 102.286477 34.81814 
L 102.378771 34.195692 
L 102.58643 30.242733 
L 102.632577 27.397932 
L 102.701797 8.51075 
L 102.79409 16.148242 
L 103.024823 30.485077 
L 103.07097 30.713243 
L 103.117116 30.612407 
L 103.347849 28.971502 
L 103.670875 25.873025 
L 103.855462 19.794288 
L 103.901608 20.071949 
L 104.293854 25.074379 
L 104.386148 24.950603 
L 104.570734 24.213295 
L 104.732247 23.440598 
L 104.778394 23.487138 
L 105.055273 23.773035 
L 106.093572 23.732565 
L 106.347378 23.859334 
L 106.947284 23.860413 
L 108.539342 24.073519 
L 108.700855 24.104167 
L 108.931588 24.178992 
L 109.623787 24.193006 
L 111.123551 24.330645 
L 111.261991 24.352199 
L 111.492724 24.444113 
L 112.346436 24.44555 
L 114.492253 24.571038 
L 115.207525 24.609762 
L 115.461332 24.743568 
L 116.56885 24.702199 
L 116.799583 24.824946 
L 117.976321 24.822488 
L 118.207054 24.885509 
L 119.08384 24.796634 
L 119.914479 24.819142 
L 120.329798 24.809173 
L 121.25273 24.880136 
L 121.668049 24.839362 
L 122.221809 25.043479 
L 122.475615 25.002591 
L 123.006301 24.856014 
L 123.513913 25.015809 
L 123.744646 25.095589 
L 124.852165 24.953581 
L 125.082898 25.13247 
L 125.359777 25.045239 
L 125.844317 24.899249 
L 126.305783 25.035064 
L 126.536516 25.172547 
L 126.813395 25.06241 
L 127.274861 24.915654 
L 127.736327 25.057004 
L 127.96706 25.195634 
L 128.24394 25.087077 
L 128.705406 24.934975 
L 129.166872 25.070761 
L 129.397605 25.21893 
L 129.674485 25.116032 
L 130.159024 24.944957 
L 130.597417 25.063875 
L 130.851223 25.239323 
L 131.128102 25.136153 
L 131.635715 24.959631 
L 132.051034 25.081797 
L 132.304841 25.259211 
L 132.58172 25.152465 
L 133.089333 24.963562 
L 133.504652 25.093903 
L 133.758459 25.281369 
L 134.012265 25.188286 
L 134.542951 24.969745 
L 134.95827 25.089663 
L 135.212076 25.291571 
L 135.465883 25.205222 
L 135.996569 24.981613 
L 136.434961 25.115124 
L 136.688768 25.301888 
L 136.942574 25.210715 
L 137.47326 24.985899 
L 137.888579 25.087655 
L 138.142386 25.3092 
L 138.396192 25.240289 
L 138.996098 24.992368 
L 139.388344 25.130547 
L 139.64215 25.321752 
L 139.895956 25.233897 
L 140.449716 24.993016 
L 140.841962 25.095677 
L 141.095768 25.33095 
L 141.349574 25.260969 
L 141.94948 24.996644 
L 142.341726 25.123518 
L 142.595532 25.336796 
L 142.849339 25.256825 
L 143.426171 25.005622 
L 143.841491 25.145677 
L 144.095297 25.341655 
L 144.349103 25.255749 
L 144.925936 25.004221 
L 145.318182 25.124267 
L 145.571988 25.35147 
L 145.825795 25.278942 
L 146.4257 25.001127 
L 146.817946 25.136802 
L 147.071753 25.354257 
L 147.325559 25.275422 
L 147.902391 25.008022 
L 148.317711 25.150302 
L 148.571517 25.357903 
L 148.825323 25.272709 
L 149.402156 25.006094 
L 149.817475 25.149148 
L 150.071282 25.359941 
L 150.325088 25.28174 
L 150.924994 25.011375 
L 151.31724 25.142605 
L 151.571046 25.359858 
L 151.824852 25.282144 
L 152.424758 25.008135 
L 152.817004 25.145389 
L 153.070811 25.369716 
L 153.301544 25.304659 
L 153.947596 25.008516 
L 154.339842 25.170491 
L 154.593649 25.369253 
L 154.847455 25.27766 
L 155.424287 25.012775 
L 155.839607 25.154827 
L 156.093413 25.368288 
L 156.347219 25.284595 
L 156.924052 25.006128 
L 157.339371 25.140574 
L 157.593177 25.376035 
L 157.823911 25.31428 
L 158.469963 25.004519 
L 158.862209 25.159935 
L 159.116015 25.375791 
L 159.346748 25.301836 
L 159.946654 25.010063 
L 160.361973 25.134274 
L 160.61578 25.370092 
L 160.846513 25.308721 
L 161.492565 25.008623 
L 161.907885 25.186104 
L 162.161691 25.379658 
L 162.207837 25.379059 
L 163.015403 29.725066 
L 163.407649 30.346284 
L 164.076775 30.918705 
L 166.199518 32.393923 
L 167.653136 33.107869 
L 169.660513 33.803216 
L 172.636969 34.541764 
L 176.444064 35.226296 
L 180.412671 35.711657 
L 184.981185 36.049566 
L 191.072536 36.252533 
L 199.56351 36.282327 
L 215.830187 36.06498 
L 219.868014 35.998123 
L 219.868014 35.998123 
" style="fill:none;stroke:#000000;stroke-linecap:square;stroke-width:0.5;"/>
   </g>
   <g id="line2d_22">
    <path clip-path="url(#p034a7f3320)" d="M 102.217258 39.094873 
L 102.217258 7.2 
" style="fill:none;stroke:#1f77b4;stroke-linecap:square;stroke-width:1.5;"/>
   </g>
   <g id="line2d_23">
    <path clip-path="url(#p034a7f3320)" d="M 162.207837 39.094873 
L 162.207837 7.2 
" style="fill:none;stroke:#1f77b4;stroke-linecap:square;stroke-width:1.5;"/>
   </g>
   <g id="patch_3">
    <path d="M 35.304688 39.094873 
L 35.304688 7.2 
" style="fill:none;stroke:#000000;stroke-linecap:square;stroke-linejoin:miter;stroke-width:0.8;"/>
   </g>
   <g id="patch_4">
    <path d="M 35.304688 39.094873 
L 219.891087 39.094873 
" style="fill:none;stroke:#000000;stroke-linecap:square;stroke-linejoin:miter;stroke-width:0.8;"/>
   </g>
   <g id="text_3">
    <!-- 4.1E+18 -->
    <g transform="translate(53.763328 19.957949)scale(0.1 -0.1)">
     <defs>
      <path d="M 37.796875 64.3125 
L 12.890625 25.390625 
L 37.796875 25.390625 
z
M 35.203125 72.90625 
L 47.609375 72.90625 
L 47.609375 25.390625 
L 58.015625 25.390625 
L 58.015625 17.1875 
L 47.609375 17.1875 
L 47.609375 0 
L 37.796875 0 
L 37.796875 17.1875 
L 4.890625 17.1875 
L 4.890625 26.703125 
z
" id="DejaVuSans-52"/>
      <path d="M 10.6875 12.40625 
L 21 12.40625 
L 21 0 
L 10.6875 0 
z
" id="DejaVuSans-46"/>
      <path d="M 12.40625 8.296875 
L 28.515625 8.296875 
L 28.515625 63.921875 
L 10.984375 60.40625 
L 10.984375 69.390625 
L 28.421875 72.90625 
L 38.28125 72.90625 
L 38.28125 8.296875 
L 54.390625 8.296875 
L 54.390625 0 
L 12.40625 0 
z
" id="DejaVuSans-49"/>
      <path d="M 9.8125 72.90625 
L 55.90625 72.90625 
L 55.90625 64.59375 
L 19.671875 64.59375 
L 19.671875 43.015625 
L 54.390625 43.015625 
L 54.390625 34.71875 
L 19.671875 34.71875 
L 19.671875 8.296875 
L 56.78125 8.296875 
L 56.78125 0 
L 9.8125 0 
z
" id="DejaVuSans-69"/>
      <path d="M 46 62.703125 
L 46 35.5 
L 73.1875 35.5 
L 73.1875 27.203125 
L 46 27.203125 
L 46 0 
L 37.796875 0 
L 37.796875 27.203125 
L 10.59375 27.203125 
L 10.59375 35.5 
L 37.796875 35.5 
L 37.796875 62.703125 
z
" id="DejaVuSans-43"/>
      <path d="M 31.78125 34.625 
Q 24.75 34.625 20.71875 30.859375 
Q 16.703125 27.09375 16.703125 20.515625 
Q 16.703125 13.921875 20.71875 10.15625 
Q 24.75 6.390625 31.78125 6.390625 
Q 38.8125 6.390625 42.859375 10.171875 
Q 46.921875 13.96875 46.921875 20.515625 
Q 46.921875 27.09375 42.890625 30.859375 
Q 38.875 34.625 31.78125 34.625 
z
M 21.921875 38.8125 
Q 15.578125 40.375 12.03125 44.71875 
Q 8.5 49.078125 8.5 55.328125 
Q 8.5 64.0625 14.71875 69.140625 
Q 20.953125 74.21875 31.78125 74.21875 
Q 42.671875 74.21875 48.875 69.140625 
Q 55.078125 64.0625 55.078125 55.328125 
Q 55.078125 49.078125 51.53125 44.71875 
Q 48 40.375 41.703125 38.8125 
Q 48.828125 37.15625 52.796875 32.3125 
Q 56.78125 27.484375 56.78125 20.515625 
Q 56.78125 9.90625 50.3125 4.234375 
Q 43.84375 -1.421875 31.78125 -1.421875 
Q 19.734375 -1.421875 13.25 4.234375 
Q 6.78125 9.90625 6.78125 20.515625 
Q 6.78125 27.484375 10.78125 32.3125 
Q 14.796875 37.15625 21.921875 38.8125 
z
M 18.3125 54.390625 
Q 18.3125 48.734375 21.84375 45.5625 
Q 25.390625 42.390625 31.78125 42.390625 
Q 38.140625 42.390625 41.71875 45.5625 
Q 45.3125 48.734375 45.3125 54.390625 
Q 45.3125 60.0625 41.71875 63.234375 
Q 38.140625 66.40625 31.78125 66.40625 
Q 25.390625 66.40625 21.84375 63.234375 
Q 18.3125 60.0625 18.3125 54.390625 
z
" id="DejaVuSans-56"/>
     </defs>
     <use xlink:href="#DejaVuSans-52"/>
     <use x="63.623047" xlink:href="#DejaVuSans-46"/>
     <use x="95.410156" xlink:href="#DejaVuSans-49"/>
     <use x="159.033203" xlink:href="#DejaVuSans-69"/>
     <use x="222.216797" xlink:href="#DejaVuSans-43"/>
     <use x="306.005859" xlink:href="#DejaVuSans-49"/>
     <use x="369.628906" xlink:href="#DejaVuSans-56"/>
    </g>
   </g>
  </g>
  <g id="axes_2">
   <g id="patch_5">
    <path d="M 35.304688 77.368721 
L 219.891087 77.368721 
L 219.891087 45.473848 
L 35.304688 45.473848 
z
" style="fill:#ffffff;"/>
   </g>
   <g id="matplotlib.axis_3">
    <g id="xtick_6">
     <g id="line2d_24">
      <g>
       <use style="stroke:#000000;stroke-width:0.8;" x="35.304688" xlink:href="#m01417be471" y="77.368721"/>
      </g>
     </g>
    </g>
    <g id="xtick_7">
     <g id="line2d_25">
      <g>
       <use style="stroke:#000000;stroke-width:0.8;" x="81.451288" xlink:href="#m01417be471" y="77.368721"/>
      </g>
     </g>
    </g>
    <g id="xtick_8">
     <g id="line2d_26">
      <g>
       <use style="stroke:#000000;stroke-width:0.8;" x="127.597887" xlink:href="#m01417be471" y="77.368721"/>
      </g>
     </g>
    </g>
    <g id="xtick_9">
     <g id="line2d_27">
      <g>
       <use style="stroke:#000000;stroke-width:0.8;" x="173.744487" xlink:href="#m01417be471" y="77.368721"/>
      </g>
     </g>
    </g>
    <g id="xtick_10">
     <g id="line2d_28">
      <g>
       <use style="stroke:#000000;stroke-width:0.8;" x="219.891087" xlink:href="#m01417be471" y="77.368721"/>
      </g>
     </g>
    </g>
   </g>
   <g id="matplotlib.axis_4">
    <g id="ytick_16">
     <g id="line2d_29">
      <g>
       <use style="stroke:#000000;stroke-width:0.8;" x="35.304688" xlink:href="#m5ba391c657" y="72.81231"/>
      </g>
     </g>
     <g id="text_4">
      <!-- −70 -->
      <g transform="translate(7.2 76.611529)scale(0.1 -0.1)">
       <use xlink:href="#DejaVuSans-8722"/>
       <use x="83.789062" xlink:href="#DejaVuSans-55"/>
       <use x="147.412109" xlink:href="#DejaVuSans-48"/>
      </g>
     </g>
    </g>
    <g id="ytick_17">
     <g id="line2d_30">
      <g>
       <use style="stroke:#000000;stroke-width:0.8;" x="35.304688" xlink:href="#m5ba391c657" y="56.864874"/>
      </g>
     </g>
     <g id="text_5">
      <!-- 0 -->
      <g transform="translate(21.942187 60.664092)scale(0.1 -0.1)">
       <use xlink:href="#DejaVuSans-48"/>
      </g>
     </g>
    </g>
    <g id="ytick_18">
     <g id="line2d_31">
      <g>
       <use style="stroke:#000000;stroke-width:0.6;" x="35.304688" xlink:href="#mc483f2bb6f" y="77.368721"/>
      </g>
     </g>
    </g>
    <g id="ytick_19">
     <g id="line2d_32">
      <g>
       <use style="stroke:#000000;stroke-width:0.6;" x="35.304688" xlink:href="#mc483f2bb6f" y="75.090515"/>
      </g>
     </g>
    </g>
    <g id="ytick_20">
     <g id="line2d_33">
      <g>
       <use style="stroke:#000000;stroke-width:0.6;" x="35.304688" xlink:href="#mc483f2bb6f" y="70.534105"/>
      </g>
     </g>
    </g>
    <g id="ytick_21">
     <g id="line2d_34">
      <g>
       <use style="stroke:#000000;stroke-width:0.6;" x="35.304688" xlink:href="#mc483f2bb6f" y="68.2559"/>
      </g>
     </g>
    </g>
    <g id="ytick_22">
     <g id="line2d_35">
      <g>
       <use style="stroke:#000000;stroke-width:0.6;" x="35.304688" xlink:href="#mc483f2bb6f" y="65.977695"/>
      </g>
     </g>
    </g>
    <g id="ytick_23">
     <g id="line2d_36">
      <g>
       <use style="stroke:#000000;stroke-width:0.6;" x="35.304688" xlink:href="#mc483f2bb6f" y="63.699489"/>
      </g>
     </g>
    </g>
    <g id="ytick_24">
     <g id="line2d_37">
      <g>
       <use style="stroke:#000000;stroke-width:0.6;" x="35.304688" xlink:href="#mc483f2bb6f" y="61.421284"/>
      </g>
     </g>
    </g>
    <g id="ytick_25">
     <g id="line2d_38">
      <g>
       <use style="stroke:#000000;stroke-width:0.6;" x="35.304688" xlink:href="#mc483f2bb6f" y="59.143079"/>
      </g>
     </g>
    </g>
    <g id="ytick_26">
     <g id="line2d_39">
      <g>
       <use style="stroke:#000000;stroke-width:0.6;" x="35.304688" xlink:href="#mc483f2bb6f" y="54.586669"/>
      </g>
     </g>
    </g>
    <g id="ytick_27">
     <g id="line2d_40">
      <g>
       <use style="stroke:#000000;stroke-width:0.6;" x="35.304688" xlink:href="#mc483f2bb6f" y="52.308463"/>
      </g>
     </g>
    </g>
    <g id="ytick_28">
     <g id="line2d_41">
      <g>
       <use style="stroke:#000000;stroke-width:0.6;" x="35.304688" xlink:href="#mc483f2bb6f" y="50.030258"/>
      </g>
     </g>
    </g>
    <g id="ytick_29">
     <g id="line2d_42">
      <g>
       <use style="stroke:#000000;stroke-width:0.6;" x="35.304688" xlink:href="#mc483f2bb6f" y="47.752053"/>
      </g>
     </g>
    </g>
    <g id="ytick_30">
     <g id="line2d_43">
      <g>
       <use style="stroke:#000000;stroke-width:0.6;" x="35.304688" xlink:href="#mc483f2bb6f" y="45.473848"/>
      </g>
     </g>
    </g>
   </g>
   <g id="line2d_44">
    <path clip-path="url(#pdac5ed3383)" d="M 35.304688 73.050218 
L 41.372965 73.146161 
L 79.143957 73.155503 
L 102.332624 73.059717 
L 102.447991 72.518794 
L 102.678724 69.930792 
L 102.771017 67.281026 
L 102.840237 51.814161 
L 102.86331 46.918507 
L 102.93253 51.665925 
L 103.186336 70.106366 
L 103.278629 70.890529 
L 103.324776 70.840038 
L 103.486289 69.893304 
L 103.993902 65.494714 
L 104.155415 53.426034 
L 104.247708 57.0951 
L 104.501514 66.458762 
L 104.616881 66.98001 
L 104.663027 66.950385 
L 104.82454 66.449596 
L 105.124493 64.751814 
L 105.30908 61.340579 
L 105.470593 59.480207 
L 105.493666 59.581932 
L 105.701326 62.18354 
L 105.932059 63.49089 
L 106.024352 63.52173 
L 106.047425 63.500499 
L 106.185865 63.163772 
L 106.508891 62.254562 
L 107.016504 62.412532 
L 107.524116 62.494276 
L 108.008656 62.586358 
L 108.216315 62.666905 
L 109.093101 62.633508 
L 110.062179 62.727688 
L 110.454426 62.731667 
L 111.585017 62.895604 
L 112.02341 62.853924 
L 113.338588 62.971372 
L 113.730834 62.978014 
L 114.815279 63.143571 
L 115.276745 63.063427 
L 115.992018 63.265152 
L 116.222751 63.341513 
L 117.261049 63.247868 
L 117.999395 63.400139 
L 118.576227 63.20338 
L 119.176133 63.367902 
L 119.429939 63.588317 
L 119.683746 63.512456 
L 120.283651 63.237605 
L 120.652824 63.396638 
L 120.952777 63.630478 
L 121.206583 63.7067 
L 121.52961 63.490465 
L 121.968002 63.273367 
L 122.267955 63.391573 
L 123.029374 63.765467 
L 123.860013 63.297581 
L 124.206112 63.649464 
L 124.482992 63.98199 
L 124.690652 63.965851 
L 124.990605 63.670634 
L 125.498217 63.172434 
L 125.752023 63.299724 
L 125.959683 63.775101 
L 126.259636 64.141001 
L 126.490369 64.110608 
L 126.790322 63.774821 
L 127.390228 63.006525 
L 127.505594 63.232197 
L 127.96706 64.203597 
L 128.197793 64.299127 
L 128.428526 64.14181 
L 128.751553 63.598179 
L 129.097652 62.887976 
L 129.143799 62.927913 
L 129.397605 63.415083 
L 129.882144 64.364865 
L 130.112877 64.417607 
L 130.34361 64.217786 
L 130.62049 63.659259 
L 130.966589 62.941704 
L 131.105029 62.946969 
L 131.266542 63.253842 
L 131.843375 64.553825 
L 132.051034 64.583134 
L 132.281767 64.3572 
L 132.674014 63.518008 
L 133.043186 62.628362 
L 133.089333 62.66289 
L 133.250846 63.108503 
L 133.781532 64.742316 
L 134.012265 64.843685 
L 134.173778 64.694621 
L 134.358364 64.437733 
L 134.519878 64.202871 
L 134.75061 63.388297 
L 135.073637 62.100764 
L 135.09671 62.123939 
L 135.212076 62.520472 
L 135.811982 65.071151 
L 135.996569 65.163689 
L 136.504181 64.643376 
L 136.711841 63.858331 
L 137.081014 61.361202 
L 137.173307 61.624631 
L 137.865506 65.469404 
L 137.934726 65.489954 
L 137.957799 65.455194 
L 138.073166 65.310262 
L 138.119312 65.350871 
L 138.257752 65.332086 
L 138.465412 65.010085 
L 138.673071 64.243109 
L 138.903804 62.23655 
L 139.088391 60.709716 
L 139.111464 60.768147 
L 139.249904 62.039922 
L 139.619077 65.233814 
L 139.84981 65.747789 
L 139.965176 65.707655 
L 140.103616 65.482889 
L 140.149763 65.509133 
L 140.288203 65.435337 
L 140.518935 64.979239 
L 140.703522 64.118414 
L 140.911182 61.851552 
L 141.072695 60.311184 
L 141.095768 60.39105 
L 141.234208 61.937485 
L 141.580307 65.332142 
L 141.81104 65.917707 
L 141.972553 65.894021 
L 142.064847 65.699241 
L 142.249433 65.418112 
L 142.410946 65.214962 
L 142.641679 64.496278 
L 142.803192 63.198132 
L 143.056998 60.150322 
L 143.103145 60.379677 
L 143.795344 65.996589 
L 143.956857 65.973161 
L 144.11837 65.691355 
L 144.302957 65.302576 
L 144.441396 65.105479 
L 144.649056 64.404081 
L 144.810569 63.008061 
L 145.041302 60.08052 
L 145.087449 60.299391 
L 145.779648 66.039663 
L 145.941161 66.01734 
L 146.125747 65.730033 
L 146.35648 65.210045 
L 146.517993 64.883215 
L 146.70258 64.042891 
L 146.864093 62.056046 
L 147.025606 60.014688 
L 147.071753 60.196666 
L 147.302486 63.351351 
L 147.602439 65.750581 
L 147.810098 66.098871 
L 147.971611 66.013194 
L 148.156198 65.643332 
L 148.340784 65.197989 
L 148.479224 64.970078 
L 148.686884 64.123815 
L 148.848397 62.249218 
L 149.032983 59.97476 
L 149.056057 60.074833 
L 149.21757 62.220833 
L 149.540596 65.545561 
L 149.771329 66.127141 
L 149.932842 66.087467 
L 150.140502 65.735653 
L 150.463528 65.003137 
L 150.671188 64.203267 
L 150.832701 62.442888 
L 151.017287 59.904733 
L 151.063434 60.119248 
L 151.755633 66.150826 
L 151.917146 66.127672 
L 152.124805 65.798344 
L 152.701638 63.9981 
L 152.863151 61.837166 
L 153.001591 59.853659 
L 153.047737 59.963975 
L 153.20925 62.212227 
L 153.532277 65.612496 
L 153.76301 66.189171 
L 153.924523 66.147195 
L 154.132182 65.802818 
L 154.709015 63.952558 
L 154.870528 61.677041 
L 155.008968 59.789342 
L 155.055115 59.974693 
L 155.285847 63.368198 
L 155.5858 65.882763 
L 155.79346 66.225415 
L 155.954973 66.131508 
L 156.162633 65.728269 
L 156.485659 64.964811 
L 156.670245 64.24006 
L 156.808685 62.869196 
L 157.016345 59.755364 
L 157.062492 59.994254 
L 157.731617 66.213382 
L 157.89313 66.211178 
L 158.10079 65.901031 
L 158.654549 64.331871 
L 158.816062 62.775958 
L 159.023722 59.754863 
L 159.069869 60.049126 
L 159.692848 66.1753 
L 159.854361 66.247591 
L 160.038947 66.039868 
L 160.223534 65.498331 
L 160.40812 65.07828 
L 160.569633 64.675275 
L 160.75422 63.527871 
L 161.008026 59.740597 
L 161.100319 60.495662 
L 161.561785 65.834159 
L 161.769445 66.260545 
L 161.930958 66.194982 
L 162.138618 65.825212 
L 162.207837 65.586777 
L 162.277057 65.739495 
L 163.06155 68.929861 
L 163.546089 69.602145 
L 164.353654 70.288552 
L 165.876492 71.291877 
L 167.353183 71.991521 
L 169.129828 72.574726 
L 171.598671 73.130455 
L 175.013519 73.654626 
L 179.097493 74.060893 
L 184.058253 74.335773 
L 190.47263 74.468862 
L 200.186489 74.437939 
L 219.868014 74.148762 
L 219.868014 74.148762 
" style="fill:none;stroke:#000000;stroke-linecap:square;stroke-width:0.5;"/>
   </g>
   <g id="line2d_45">
    <path clip-path="url(#pdac5ed3383)" d="M 102.217258 77.368721 
L 102.217258 45.473848 
" style="fill:none;stroke:#1f77b4;stroke-linecap:square;stroke-width:1.5;"/>
   </g>
   <g id="line2d_46">
    <path clip-path="url(#pdac5ed3383)" d="M 162.207837 77.368721 
L 162.207837 45.473848 
" style="fill:none;stroke:#1f77b4;stroke-linecap:square;stroke-width:1.5;"/>
   </g>
   <g id="patch_6">
    <path d="M 35.304688 77.368721 
L 35.304688 45.473848 
" style="fill:none;stroke:#000000;stroke-linecap:square;stroke-linejoin:miter;stroke-width:0.8;"/>
   </g>
   <g id="patch_7">
    <path d="M 35.304688 77.368721 
L 219.891087 77.368721 
" style="fill:none;stroke:#000000;stroke-linecap:square;stroke-linejoin:miter;stroke-width:0.8;"/>
   </g>
   <g id="text_6">
    <!-- 1.4E+18 -->
    <g transform="translate(53.763328 58.231797)scale(0.1 -0.1)">
     <use xlink:href="#DejaVuSans-49"/>
     <use x="63.623047" xlink:href="#DejaVuSans-46"/>
     <use x="95.410156" xlink:href="#DejaVuSans-52"/>
     <use x="159.033203" xlink:href="#DejaVuSans-69"/>
     <use x="222.216797" xlink:href="#DejaVuSans-43"/>
     <use x="306.005859" xlink:href="#DejaVuSans-49"/>
     <use x="369.628906" xlink:href="#DejaVuSans-56"/>
    </g>
   </g>
  </g>
  <g id="axes_3">
   <g id="patch_8">
    <path d="M 35.304688 115.642568 
L 219.891087 115.642568 
L 219.891087 83.747695 
L 35.304688 83.747695 
z
" style="fill:#ffffff;"/>
   </g>
   <g id="matplotlib.axis_5">
    <g id="xtick_11">
     <g id="line2d_47">
      <g>
       <use style="stroke:#000000;stroke-width:0.8;" x="35.304688" xlink:href="#m01417be471" y="115.642568"/>
      </g>
     </g>
    </g>
    <g id="xtick_12">
     <g id="line2d_48">
      <g>
       <use style="stroke:#000000;stroke-width:0.8;" x="81.451288" xlink:href="#m01417be471" y="115.642568"/>
      </g>
     </g>
    </g>
    <g id="xtick_13">
     <g id="line2d_49">
      <g>
       <use style="stroke:#000000;stroke-width:0.8;" x="127.597887" xlink:href="#m01417be471" y="115.642568"/>
      </g>
     </g>
    </g>
    <g id="xtick_14">
     <g id="line2d_50">
      <g>
       <use style="stroke:#000000;stroke-width:0.8;" x="173.744487" xlink:href="#m01417be471" y="115.642568"/>
      </g>
     </g>
    </g>
    <g id="xtick_15">
     <g id="line2d_51">
      <g>
       <use style="stroke:#000000;stroke-width:0.8;" x="219.891087" xlink:href="#m01417be471" y="115.642568"/>
      </g>
     </g>
    </g>
   </g>
   <g id="matplotlib.axis_6">
    <g id="ytick_31">
     <g id="line2d_52">
      <g>
       <use style="stroke:#000000;stroke-width:0.8;" x="35.304688" xlink:href="#m5ba391c657" y="111.086158"/>
      </g>
     </g>
     <g id="text_7">
      <!-- −70 -->
      <g transform="translate(7.2 114.885377)scale(0.1 -0.1)">
       <use xlink:href="#DejaVuSans-8722"/>
       <use x="83.789062" xlink:href="#DejaVuSans-55"/>
       <use x="147.412109" xlink:href="#DejaVuSans-48"/>
      </g>
     </g>
    </g>
    <g id="ytick_32">
     <g id="line2d_53">
      <g>
       <use style="stroke:#000000;stroke-width:0.8;" x="35.304688" xlink:href="#m5ba391c657" y="95.138721"/>
      </g>
     </g>
     <g id="text_8">
      <!-- 0 -->
      <g transform="translate(21.942187 98.93794)scale(0.1 -0.1)">
       <use xlink:href="#DejaVuSans-48"/>
      </g>
     </g>
    </g>
    <g id="ytick_33">
     <g id="line2d_54">
      <g>
       <use style="stroke:#000000;stroke-width:0.6;" x="35.304688" xlink:href="#mc483f2bb6f" y="115.642568"/>
      </g>
     </g>
    </g>
    <g id="ytick_34">
     <g id="line2d_55">
      <g>
       <use style="stroke:#000000;stroke-width:0.6;" x="35.304688" xlink:href="#mc483f2bb6f" y="113.364363"/>
      </g>
     </g>
    </g>
    <g id="ytick_35">
     <g id="line2d_56">
      <g>
       <use style="stroke:#000000;stroke-width:0.6;" x="35.304688" xlink:href="#mc483f2bb6f" y="108.807953"/>
      </g>
     </g>
    </g>
    <g id="ytick_36">
     <g id="line2d_57">
      <g>
       <use style="stroke:#000000;stroke-width:0.6;" x="35.304688" xlink:href="#mc483f2bb6f" y="106.529747"/>
      </g>
     </g>
    </g>
    <g id="ytick_37">
     <g id="line2d_58">
      <g>
       <use style="stroke:#000000;stroke-width:0.6;" x="35.304688" xlink:href="#mc483f2bb6f" y="104.251542"/>
      </g>
     </g>
    </g>
    <g id="ytick_38">
     <g id="line2d_59">
      <g>
       <use style="stroke:#000000;stroke-width:0.6;" x="35.304688" xlink:href="#mc483f2bb6f" y="101.973337"/>
      </g>
     </g>
    </g>
    <g id="ytick_39">
     <g id="line2d_60">
      <g>
       <use style="stroke:#000000;stroke-width:0.6;" x="35.304688" xlink:href="#mc483f2bb6f" y="99.695132"/>
      </g>
     </g>
    </g>
    <g id="ytick_40">
     <g id="line2d_61">
      <g>
       <use style="stroke:#000000;stroke-width:0.6;" x="35.304688" xlink:href="#mc483f2bb6f" y="97.416927"/>
      </g>
     </g>
    </g>
    <g id="ytick_41">
     <g id="line2d_62">
      <g>
       <use style="stroke:#000000;stroke-width:0.6;" x="35.304688" xlink:href="#mc483f2bb6f" y="92.860516"/>
      </g>
     </g>
    </g>
    <g id="ytick_42">
     <g id="line2d_63">
      <g>
       <use style="stroke:#000000;stroke-width:0.6;" x="35.304688" xlink:href="#mc483f2bb6f" y="90.582311"/>
      </g>
     </g>
    </g>
    <g id="ytick_43">
     <g id="line2d_64">
      <g>
       <use style="stroke:#000000;stroke-width:0.6;" x="35.304688" xlink:href="#mc483f2bb6f" y="88.304106"/>
      </g>
     </g>
    </g>
    <g id="ytick_44">
     <g id="line2d_65">
      <g>
       <use style="stroke:#000000;stroke-width:0.6;" x="35.304688" xlink:href="#mc483f2bb6f" y="86.025901"/>
      </g>
     </g>
    </g>
    <g id="ytick_45">
     <g id="line2d_66">
      <g>
       <use style="stroke:#000000;stroke-width:0.6;" x="35.304688" xlink:href="#mc483f2bb6f" y="83.747695"/>
      </g>
     </g>
    </g>
   </g>
   <g id="line2d_67">
    <path clip-path="url(#p03e02d8c71)" d="M 35.304688 111.324066 
L 41.372965 111.420009 
L 79.143957 111.429351 
L 102.424917 111.32438 
L 102.609504 110.871764 
L 102.909457 109.372677 
L 103.024823 108.151703 
L 103.117116 103.185478 
L 103.186336 85.384327 
L 103.278629 92.765027 
L 103.532436 110.138092 
L 103.717022 111.743678 
L 103.809315 111.557868 
L 104.086195 110.10237 
L 104.616881 106.425883 
L 104.709174 102.648354 
L 104.801467 86.615466 
L 104.870687 92.387163 
L 105.124493 108.904573 
L 105.30908 110.467755 
L 105.3783 110.384596 
L 105.585959 109.51172 
L 106.278158 105.535858 
L 106.370452 99.183075 
L 106.439671 87.972996 
L 106.508891 92.225616 
L 106.762698 108.038453 
L 106.947284 109.757871 
L 107.016504 109.735164 
L 107.039577 109.691398 
L 107.247237 108.887781 
L 107.893289 105.454705 
L 108.008656 98.35618 
L 108.077876 88.943966 
L 108.147096 92.6886 
L 108.423975 108.00065 
L 108.608562 109.348923 
L 108.700855 109.259698 
L 108.931588 108.381798 
L 109.531494 105.20853 
L 109.669933 95.87295 
L 109.739153 89.568828 
L 109.7853 92.146882 
L 110.062179 107.465261 
L 110.246766 109.061889 
L 110.315986 109.075756 
L 110.339059 109.045679 
L 110.523646 108.464214 
L 111.169698 105.363277 
L 111.308138 98.709129 
L 111.400431 90.010412 
L 111.446578 92.491838 
L 111.723457 107.25758 
L 111.908043 108.885547 
L 111.977263 108.919406 
L 112.02341 108.858342 
L 112.23107 108.17219 
L 112.830975 105.41743 
L 112.969415 99.93657 
L 113.061708 90.267209 
L 113.130928 93.264155 
L 113.407808 107.293891 
L 113.592394 108.815548 
L 113.661614 108.842401 
L 113.707761 108.781577 
L 113.915421 108.111365 
L 114.515326 105.424442 
L 114.653766 100.302175 
L 114.769133 90.404543 
L 114.815279 92.876639 
L 115.115232 107.557425 
L 115.299819 108.822758 
L 115.392112 108.781461 
L 115.576698 108.228618 
L 116.222751 105.373579 
L 116.384264 97.956616 
L 116.453484 90.462053 
L 116.522703 93.064501 
L 116.799583 107.211583 
L 116.984169 108.820261 
L 117.053389 108.864348 
L 117.099536 108.811782 
L 117.284122 108.257764 
L 117.930175 105.480544 
L 118.068615 100.575335 
L 118.183981 90.29828 
L 118.253201 94.359689 
L 118.530081 107.587295 
L 118.714667 108.919335 
L 118.783887 108.920152 
L 118.80696 108.889846 
L 118.991547 108.347233 
L 119.660672 105.407399 
L 119.822185 97.466468 
L 119.891405 90.164122 
L 119.960625 93.340945 
L 120.237505 107.509453 
L 120.422091 109.023957 
L 120.491311 109.044964 
L 120.514384 109.01898 
L 120.675897 108.575086 
L 121.368096 105.692698 
L 121.437316 103.807665 
L 121.552683 96.749376 
L 121.621903 89.913357 
L 121.668049 91.907084 
L 121.968002 107.77385 
L 122.152589 109.164915 
L 122.221809 109.160594 
L 122.244882 109.127898 
L 122.429468 108.567861 
L 123.121667 105.593803 
L 123.260107 99.76458 
L 123.3524 89.701052 
L 123.42162 93.552275 
L 123.6985 107.910456 
L 123.883086 109.299505 
L 123.975379 109.252967 
L 124.183039 108.580338 
L 124.875238 105.422914 
L 125.013678 98.099958 
L 125.082898 89.576903 
L 125.152118 92.899156 
L 125.428997 107.933787 
L 125.613584 109.418853 
L 125.682804 109.41468 
L 125.705877 109.380902 
L 125.890463 108.803766 
L 126.605736 105.694917 
L 126.744175 99.073295 
L 126.836469 89.392822 
L 126.882615 92.226212 
L 127.159495 107.941305 
L 127.344081 109.529491 
L 127.413301 109.53543 
L 127.436374 109.503487 
L 127.620961 108.929614 
L 128.359306 105.622654 
L 128.497746 97.57949 
L 128.566966 89.08933 
L 128.613113 91.196604 
L 128.913066 108.347977 
L 129.097652 109.689076 
L 129.189945 109.610675 
L 129.420678 108.798053 
L 130.112877 105.695981 
L 130.251317 97.138584 
L 130.320537 88.869244 
L 130.366683 91.357346 
L 130.666636 108.537757 
L 130.851223 109.803492 
L 130.943516 109.702803 
L 131.197322 108.765769 
L 131.866448 105.866856 
L 131.981814 100.574843 
L 132.074108 88.720872 
L 132.143328 92.973351 
L 132.420207 108.559784 
L 132.604794 109.893119 
L 132.697087 109.799563 
L 132.92782 108.958106 
L 133.643092 105.674432 
L 133.781532 95.451365 
L 133.850752 88.769131 
L 133.896898 92.087044 
L 134.173778 108.482811 
L 134.358364 109.966067 
L 134.450658 109.895169 
L 134.658317 109.166196 
L 135.419736 105.413145 
L 135.535103 97.855046 
L 135.604323 88.453932 
L 135.650469 90.8825 
L 135.950422 108.780999 
L 136.135008 110.063588 
L 136.227302 109.955094 
L 136.481108 108.998935 
L 137.173307 105.948277 
L 137.288674 100.023613 
L 137.380967 88.370707 
L 137.427113 91.465028 
L 137.703993 108.584408 
L 137.888579 110.146735 
L 137.980873 110.076416 
L 138.188532 109.344566 
L 138.973024 105.521021 
L 139.088391 97.396488 
L 139.157611 88.19627 
L 139.203757 91.057165 
L 139.480637 108.575863 
L 139.665223 110.20955 
L 139.757517 110.146718 
L 139.965176 109.420068 
L 140.749668 105.97562 
L 140.865035 99.443743 
L 140.934255 88.293806 
L 141.003475 91.987291 
L 141.280354 108.831445 
L 141.464941 110.268491 
L 141.557234 110.174128 
L 141.787967 109.321502 
L 142.549386 105.924576 
L 142.664752 98.851029 
L 142.733972 88.08079 
L 142.803192 92.438423 
L 143.056998 108.483506 
L 143.241585 110.300343 
L 143.310805 110.299404 
L 143.333878 110.262993 
L 143.518464 109.649043 
L 144.349103 105.945582 
L 144.46447 98.698572 
L 144.53369 87.975244 
L 144.60291 92.550759 
L 144.856716 108.587621 
L 145.041302 110.368496 
L 145.110522 110.361181 
L 145.133596 110.323152 
L 145.341255 109.602088 
L 146.148821 106.114246 
L 146.264187 99.736477 
L 146.35648 88.103504 
L 146.402627 91.77017 
L 146.679507 108.985763 
L 146.864093 110.438698 
L 146.956386 110.342002 
L 147.187119 109.483313 
L 147.971611 106.05823 
L 148.086978 98.897259 
L 148.156198 87.825571 
L 148.225418 92.424468 
L 148.479224 108.667035 
L 148.66381 110.465543 
L 148.73303 110.457687 
L 148.756104 110.419408 
L 148.963763 109.696965 
L 149.794402 106.090088 
L 149.909769 98.920377 
L 149.978989 87.767337 
L 150.048208 92.414094 
L 150.302015 108.703795 
L 150.486601 110.504296 
L 150.555821 110.496586 
L 150.578894 110.45837 
L 150.786554 109.736583 
L 151.617193 106.187431 
L 151.732559 99.626648 
L 151.801779 87.849472 
L 151.870999 91.887087 
L 152.147879 109.135286 
L 152.332465 110.561207 
L 152.424758 110.459577 
L 152.655491 109.597774 
L 153.463057 105.946338 
L 153.578423 97.482023 
L 153.647643 87.66913 
L 153.69379 90.904396 
L 153.970669 108.983298 
L 154.155256 110.598522 
L 154.247549 110.524181 
L 154.478282 109.682794 
L 155.308921 105.738659 
L 155.424287 96.070327 
L 155.493507 87.804026 
L 155.539654 91.561389 
L 155.816533 109.166499 
L 156.00112 110.647082 
L 156.093413 110.551456 
L 156.324146 109.69501 
L 157.154785 105.741133 
L 157.270151 95.838792 
L 157.316298 87.742638 
L 157.385518 91.65071 
L 157.662397 109.226471 
L 157.846984 110.686657 
L 157.939277 110.587958 
L 158.17001 109.730174 
L 159.000649 105.927489 
L 159.116015 96.666296 
L 159.185235 87.620679 
L 159.231382 91.268608 
L 159.508261 109.188802 
L 159.692848 110.722094 
L 159.785141 110.633787 
L 160.015874 109.78525 
L 160.846513 106.22132 
L 160.961879 98.686503 
L 161.031099 87.411151 
L 161.077246 90.197851 
L 161.354125 109.004158 
L 161.538712 110.753622 
L 161.607932 110.736363 
L 161.631005 110.696069 
L 161.838665 109.971569 
L 162.207837 108.328388 
L 162.253984 108.502618 
L 162.530864 109.054211 
L 162.85389 109.224267 
L 164.676681 109.701842 
L 167.67621 111.000673 
L 169.475927 111.464317 
L 171.66789 111.809034 
L 175.128885 112.112549 
L 180.251158 112.325168 
L 187.95764 112.410486 
L 202.170793 112.300496 
L 219.868014 112.083507 
L 219.868014 112.083507 
" style="fill:none;stroke:#000000;stroke-linecap:square;stroke-width:0.5;"/>
   </g>
   <g id="line2d_68">
    <path clip-path="url(#p03e02d8c71)" d="M 102.217258 115.642568 
L 102.217258 83.747695 
" style="fill:none;stroke:#1f77b4;stroke-linecap:square;stroke-width:1.5;"/>
   </g>
   <g id="line2d_69">
    <path clip-path="url(#p03e02d8c71)" d="M 162.207837 115.642568 
L 162.207837 83.747695 
" style="fill:none;stroke:#1f77b4;stroke-linecap:square;stroke-width:1.5;"/>
   </g>
   <g id="patch_9">
    <path d="M 35.304688 115.642568 
L 35.304688 83.747695 
" style="fill:none;stroke:#000000;stroke-linecap:square;stroke-linejoin:miter;stroke-width:0.8;"/>
   </g>
   <g id="patch_10">
    <path d="M 35.304688 115.642568 
L 219.891087 115.642568 
" style="fill:none;stroke:#000000;stroke-linecap:square;stroke-linejoin:miter;stroke-width:0.8;"/>
   </g>
   <g id="text_9">
    <!-- 2.8E+17 -->
    <g transform="translate(53.763328 96.505645)scale(0.1 -0.1)">
     <defs>
      <path d="M 19.1875 8.296875 
L 53.609375 8.296875 
L 53.609375 0 
L 7.328125 0 
L 7.328125 8.296875 
Q 12.9375 14.109375 22.625 23.890625 
Q 32.328125 33.6875 34.8125 36.53125 
Q 39.546875 41.84375 41.421875 45.53125 
Q 43.3125 49.21875 43.3125 52.78125 
Q 43.3125 58.59375 39.234375 62.25 
Q 35.15625 65.921875 28.609375 65.921875 
Q 23.96875 65.921875 18.8125 64.3125 
Q 13.671875 62.703125 7.8125 59.421875 
L 7.8125 69.390625 
Q 13.765625 71.78125 18.9375 73 
Q 24.125 74.21875 28.421875 74.21875 
Q 39.75 74.21875 46.484375 68.546875 
Q 53.21875 62.890625 53.21875 53.421875 
Q 53.21875 48.921875 51.53125 44.890625 
Q 49.859375 40.875 45.40625 35.40625 
Q 44.1875 33.984375 37.640625 27.21875 
Q 31.109375 20.453125 19.1875 8.296875 
z
" id="DejaVuSans-50"/>
     </defs>
     <use xlink:href="#DejaVuSans-50"/>
     <use x="63.623047" xlink:href="#DejaVuSans-46"/>
     <use x="95.410156" xlink:href="#DejaVuSans-56"/>
     <use x="159.033203" xlink:href="#DejaVuSans-69"/>
     <use x="222.216797" xlink:href="#DejaVuSans-43"/>
     <use x="306.005859" xlink:href="#DejaVuSans-49"/>
     <use x="369.628906" xlink:href="#DejaVuSans-55"/>
    </g>
   </g>
  </g>
  <g id="axes_4">
   <g id="patch_11">
    <path d="M 35.304688 153.916416 
L 219.891087 153.916416 
L 219.891087 122.021543 
L 35.304688 122.021543 
z
" style="fill:#ffffff;"/>
   </g>
   <g id="matplotlib.axis_7">
    <g id="xtick_16">
     <g id="line2d_70">
      <g>
       <use style="stroke:#000000;stroke-width:0.8;" x="35.304688" xlink:href="#m01417be471" y="153.916416"/>
      </g>
     </g>
     <g id="text_10">
      <!-- 0 -->
      <g transform="translate(32.123438 168.514854)scale(0.1 -0.1)">
       <use xlink:href="#DejaVuSans-48"/>
      </g>
     </g>
    </g>
    <g id="xtick_17">
     <g id="line2d_71">
      <g>
       <use style="stroke:#000000;stroke-width:0.8;" x="81.451288" xlink:href="#m01417be471" y="153.916416"/>
      </g>
     </g>
     <g id="text_11">
      <!-- 200 -->
      <g transform="translate(71.907538 168.514854)scale(0.1 -0.1)">
       <use xlink:href="#DejaVuSans-50"/>
       <use x="63.623047" xlink:href="#DejaVuSans-48"/>
       <use x="127.246094" xlink:href="#DejaVuSans-48"/>
      </g>
     </g>
    </g>
    <g id="xtick_18">
     <g id="line2d_72">
      <g>
       <use style="stroke:#000000;stroke-width:0.8;" x="127.597887" xlink:href="#m01417be471" y="153.916416"/>
      </g>
     </g>
     <g id="text_12">
      <!-- 400 -->
      <g transform="translate(118.054137 168.514854)scale(0.1 -0.1)">
       <use xlink:href="#DejaVuSans-52"/>
       <use x="63.623047" xlink:href="#DejaVuSans-48"/>
       <use x="127.246094" xlink:href="#DejaVuSans-48"/>
      </g>
     </g>
    </g>
    <g id="xtick_19">
     <g id="line2d_73">
      <g>
       <use style="stroke:#000000;stroke-width:0.8;" x="173.744487" xlink:href="#m01417be471" y="153.916416"/>
      </g>
     </g>
     <g id="text_13">
      <!-- 600 -->
      <g transform="translate(164.200738 168.514854)scale(0.1 -0.1)">
       <defs>
        <path d="M 33.015625 40.375 
Q 26.375 40.375 22.484375 35.828125 
Q 18.609375 31.296875 18.609375 23.390625 
Q 18.609375 15.53125 22.484375 10.953125 
Q 26.375 6.390625 33.015625 6.390625 
Q 39.65625 6.390625 43.53125 10.953125 
Q 47.40625 15.53125 47.40625 23.390625 
Q 47.40625 31.296875 43.53125 35.828125 
Q 39.65625 40.375 33.015625 40.375 
z
M 52.59375 71.296875 
L 52.59375 62.3125 
Q 48.875 64.0625 45.09375 64.984375 
Q 41.3125 65.921875 37.59375 65.921875 
Q 27.828125 65.921875 22.671875 59.328125 
Q 17.53125 52.734375 16.796875 39.40625 
Q 19.671875 43.65625 24.015625 45.921875 
Q 28.375 48.1875 33.59375 48.1875 
Q 44.578125 48.1875 50.953125 41.515625 
Q 57.328125 34.859375 57.328125 23.390625 
Q 57.328125 12.15625 50.6875 5.359375 
Q 44.046875 -1.421875 33.015625 -1.421875 
Q 20.359375 -1.421875 13.671875 8.265625 
Q 6.984375 17.96875 6.984375 36.375 
Q 6.984375 53.65625 15.1875 63.9375 
Q 23.390625 74.21875 37.203125 74.21875 
Q 40.921875 74.21875 44.703125 73.484375 
Q 48.484375 72.75 52.59375 71.296875 
z
" id="DejaVuSans-54"/>
       </defs>
       <use xlink:href="#DejaVuSans-54"/>
       <use x="63.623047" xlink:href="#DejaVuSans-48"/>
       <use x="127.246094" xlink:href="#DejaVuSans-48"/>
      </g>
     </g>
    </g>
    <g id="xtick_20">
     <g id="line2d_74">
      <g>
       <use style="stroke:#000000;stroke-width:0.8;" x="219.891087" xlink:href="#m01417be471" y="153.916416"/>
      </g>
     </g>
     <g id="text_14">
      <!-- 800 -->
      <g transform="translate(210.347338 168.514854)scale(0.1 -0.1)">
       <use xlink:href="#DejaVuSans-56"/>
       <use x="63.623047" xlink:href="#DejaVuSans-48"/>
       <use x="127.246094" xlink:href="#DejaVuSans-48"/>
      </g>
     </g>
    </g>
   </g>
   <g id="matplotlib.axis_8">
    <g id="ytick_46">
     <g id="line2d_75">
      <g>
       <use style="stroke:#000000;stroke-width:0.8;" x="35.304688" xlink:href="#m5ba391c657" y="149.360006"/>
      </g>
     </g>
     <g id="text_15">
      <!-- −70 -->
      <g transform="translate(7.2 153.159224)scale(0.1 -0.1)">
       <use xlink:href="#DejaVuSans-8722"/>
       <use x="83.789062" xlink:href="#DejaVuSans-55"/>
       <use x="147.412109" xlink:href="#DejaVuSans-48"/>
      </g>
     </g>
    </g>
    <g id="ytick_47">
     <g id="line2d_76">
      <g>
       <use style="stroke:#000000;stroke-width:0.8;" x="35.304688" xlink:href="#m5ba391c657" y="133.412569"/>
      </g>
     </g>
     <g id="text_16">
      <!-- 0 -->
      <g transform="translate(21.942187 137.211788)scale(0.1 -0.1)">
       <use xlink:href="#DejaVuSans-48"/>
      </g>
     </g>
    </g>
    <g id="ytick_48">
     <g id="line2d_77">
      <g>
       <use style="stroke:#000000;stroke-width:0.6;" x="35.304688" xlink:href="#mc483f2bb6f" y="153.916416"/>
      </g>
     </g>
    </g>
    <g id="ytick_49">
     <g id="line2d_78">
      <g>
       <use style="stroke:#000000;stroke-width:0.6;" x="35.304688" xlink:href="#mc483f2bb6f" y="151.638211"/>
      </g>
     </g>
    </g>
    <g id="ytick_50">
     <g id="line2d_79">
      <g>
       <use style="stroke:#000000;stroke-width:0.6;" x="35.304688" xlink:href="#mc483f2bb6f" y="147.0818"/>
      </g>
     </g>
    </g>
    <g id="ytick_51">
     <g id="line2d_80">
      <g>
       <use style="stroke:#000000;stroke-width:0.6;" x="35.304688" xlink:href="#mc483f2bb6f" y="144.803595"/>
      </g>
     </g>
    </g>
    <g id="ytick_52">
     <g id="line2d_81">
      <g>
       <use style="stroke:#000000;stroke-width:0.6;" x="35.304688" xlink:href="#mc483f2bb6f" y="142.52539"/>
      </g>
     </g>
    </g>
    <g id="ytick_53">
     <g id="line2d_82">
      <g>
       <use style="stroke:#000000;stroke-width:0.6;" x="35.304688" xlink:href="#mc483f2bb6f" y="140.247185"/>
      </g>
     </g>
    </g>
    <g id="ytick_54">
     <g id="line2d_83">
      <g>
       <use style="stroke:#000000;stroke-width:0.6;" x="35.304688" xlink:href="#mc483f2bb6f" y="137.968979"/>
      </g>
     </g>
    </g>
    <g id="ytick_55">
     <g id="line2d_84">
      <g>
       <use style="stroke:#000000;stroke-width:0.6;" x="35.304688" xlink:href="#mc483f2bb6f" y="135.690774"/>
      </g>
     </g>
    </g>
    <g id="ytick_56">
     <g id="line2d_85">
      <g>
       <use style="stroke:#000000;stroke-width:0.6;" x="35.304688" xlink:href="#mc483f2bb6f" y="131.134364"/>
      </g>
     </g>
    </g>
    <g id="ytick_57">
     <g id="line2d_86">
      <g>
       <use style="stroke:#000000;stroke-width:0.6;" x="35.304688" xlink:href="#mc483f2bb6f" y="128.856159"/>
      </g>
     </g>
    </g>
    <g id="ytick_58">
     <g id="line2d_87">
      <g>
       <use style="stroke:#000000;stroke-width:0.6;" x="35.304688" xlink:href="#mc483f2bb6f" y="126.577953"/>
      </g>
     </g>
    </g>
    <g id="ytick_59">
     <g id="line2d_88">
      <g>
       <use style="stroke:#000000;stroke-width:0.6;" x="35.304688" xlink:href="#mc483f2bb6f" y="124.299748"/>
      </g>
     </g>
    </g>
    <g id="ytick_60">
     <g id="line2d_89">
      <g>
       <use style="stroke:#000000;stroke-width:0.6;" x="35.304688" xlink:href="#mc483f2bb6f" y="122.021543"/>
      </g>
     </g>
    </g>
   </g>
   <g id="line2d_90">
    <path clip-path="url(#p73e38b3c00)" d="M 35.304688 149.597913 
L 41.372965 149.693857 
L 79.143957 149.703198 
L 103.140189 149.598299 
L 104.201561 149.210153 
L 106.393525 148.395705 
L 107.154944 148.088107 
L 107.224164 147.705483 
L 107.362603 143.174628 
L 107.431823 128.888231 
L 107.47797 123.994383 
L 107.524116 128.126742 
L 107.800996 148.918203 
L 108.008656 152.076099 
L 108.216315 152.641582 
L 108.400902 152.654644 
L 108.723928 152.35198 
L 109.554567 151.153318 
L 110.546719 149.927372 
L 111.423504 149.187249 
L 112.392583 148.65695 
L 113.546248 148.287811 
L 115.069086 148.052681 
L 117.491782 147.933921 
L 124.459919 147.894961 
L 162.369351 147.898838 
L 165.115073 148.906681 
L 166.937864 149.279087 
L 169.522074 149.542667 
L 173.721414 149.688589 
L 184.335132 149.740274 
L 219.868014 149.726356 
L 219.868014 149.726356 
" style="fill:none;stroke:#000000;stroke-linecap:square;stroke-width:0.5;"/>
   </g>
   <g id="patch_12">
    <path d="M 35.304688 153.916416 
L 35.304688 122.021543 
" style="fill:none;stroke:#000000;stroke-linecap:square;stroke-linejoin:miter;stroke-width:0.8;"/>
   </g>
   <g id="patch_13">
    <path d="M 35.304688 153.916416 
L 219.891087 153.916416 
" style="fill:none;stroke:#000000;stroke-linecap:square;stroke-linejoin:miter;stroke-width:0.8;"/>
   </g>
   <g id="text_17">
    <!-- 5.5E+15 -->
    <g transform="translate(53.763328 134.779492)scale(0.1 -0.1)">
     <defs>
      <path d="M 10.796875 72.90625 
L 49.515625 72.90625 
L 49.515625 64.59375 
L 19.828125 64.59375 
L 19.828125 46.734375 
Q 21.96875 47.46875 24.109375 47.828125 
Q 26.265625 48.1875 28.421875 48.1875 
Q 40.625 48.1875 47.75 41.5 
Q 54.890625 34.8125 54.890625 23.390625 
Q 54.890625 11.625 47.5625 5.09375 
Q 40.234375 -1.421875 26.90625 -1.421875 
Q 22.3125 -1.421875 17.546875 -0.640625 
Q 12.796875 0.140625 7.71875 1.703125 
L 7.71875 11.625 
Q 12.109375 9.234375 16.796875 8.0625 
Q 21.484375 6.890625 26.703125 6.890625 
Q 35.15625 6.890625 40.078125 11.328125 
Q 45.015625 15.765625 45.015625 23.390625 
Q 45.015625 31 40.078125 35.4375 
Q 35.15625 39.890625 26.703125 39.890625 
Q 22.75 39.890625 18.8125 39.015625 
Q 14.890625 38.140625 10.796875 36.28125 
z
" id="DejaVuSans-53"/>
     </defs>
     <use xlink:href="#DejaVuSans-53"/>
     <use x="63.623047" xlink:href="#DejaVuSans-46"/>
     <use x="95.410156" xlink:href="#DejaVuSans-53"/>
     <use x="159.033203" xlink:href="#DejaVuSans-69"/>
     <use x="222.216797" xlink:href="#DejaVuSans-43"/>
     <use x="306.005859" xlink:href="#DejaVuSans-49"/>
     <use x="369.628906" xlink:href="#DejaVuSans-53"/>
    </g>
   </g>
  </g>
 </g>
 <defs>
  <clipPath id="p034a7f3320">
   <rect height="31.894873" width="184.5864" x="35.304688" y="7.2"/>
  </clipPath>
  <clipPath id="pdac5ed3383">
   <rect height="31.894873" width="184.5864" x="35.304688" y="45.473848"/>
  </clipPath>
  <clipPath id="p03e02d8c71">
   <rect height="31.894873" width="184.5864" x="35.304688" y="83.747695"/>
  </clipPath>
  <clipPath id="p73e38b3c00">
   <rect height="31.894873" width="184.5864" x="35.304688" y="122.021543"/>
  </clipPath>
 </defs>
</svg>
