<?xml version="1.0" encoding="utf-8" standalone="no"?>
<!DOCTYPE svg PUBLIC "-//W3C//DTD SVG 1.1//EN"
  "http://www.w3.org/Graphics/SVG/1.1/DTD/svg11.dtd">
<!-- Created with matplotlib (https://matplotlib.org/) -->
<svg height="177.794541pt" version="1.1" viewBox="0 0 236.634838 177.794541" width="236.634838pt" xmlns="http://www.w3.org/2000/svg" xmlns:xlink="http://www.w3.org/1999/xlink">
 <metadata>
  <rdf:RDF xmlns:cc="http://creativecommons.org/ns#" xmlns:dc="http://purl.org/dc/elements/1.1/" xmlns:rdf="http://www.w3.org/1999/02/22-rdf-syntax-ns#">
   <cc:Work>
    <dc:type rdf:resource="http://purl.org/dc/dcmitype/StillImage"/>
    <dc:date>2023-06-09T14:47:51.973827</dc:date>
    <dc:format>image/svg+xml</dc:format>
    <dc:creator>
     <cc:Agent>
      <dc:title>Matplotlib v3.3.4, https://matplotlib.org/</dc:title>
     </cc:Agent>
    </dc:creator>
   </cc:Work>
  </rdf:RDF>
 </metadata>
 <defs>
  <style type="text/css">*{stroke-linecap:butt;stroke-linejoin:round;}</style>
 </defs>
 <g id="figure_1">
  <g id="patch_1">
   <path d="M 0 177.794541 
L 236.634838 177.794541 
L 236.634838 0 
L 0 0 
z
" style="fill:#ffffff;"/>
  </g>
  <g id="axes_1">
   <g id="patch_2">
    <path d="M 35.304688 32.495934 
L 219.891087 32.495934 
L 219.891087 7.2 
L 35.304688 7.2 
z
" style="fill:#ffffff;"/>
   </g>
   <g id="matplotlib.axis_1">
    <g id="xtick_1">
     <g id="line2d_1">
      <defs>
       <path d="M 0 0 
L 0 3.5 
" id="mdc23ab870a" style="stroke:#000000;stroke-width:0.8;"/>
      </defs>
      <g>
       <use style="stroke:#000000;stroke-width:0.8;" x="35.304688" xlink:href="#mdc23ab870a" y="32.495934"/>
      </g>
     </g>
    </g>
    <g id="xtick_2">
     <g id="line2d_2">
      <g>
       <use style="stroke:#000000;stroke-width:0.8;" x="81.451288" xlink:href="#mdc23ab870a" y="32.495934"/>
      </g>
     </g>
    </g>
    <g id="xtick_3">
     <g id="line2d_3">
      <g>
       <use style="stroke:#000000;stroke-width:0.8;" x="127.597887" xlink:href="#mdc23ab870a" y="32.495934"/>
      </g>
     </g>
    </g>
    <g id="xtick_4">
     <g id="line2d_4">
      <g>
       <use style="stroke:#000000;stroke-width:0.8;" x="173.744487" xlink:href="#mdc23ab870a" y="32.495934"/>
      </g>
     </g>
    </g>
    <g id="xtick_5">
     <g id="line2d_5">
      <g>
       <use style="stroke:#000000;stroke-width:0.8;" x="219.891087" xlink:href="#mdc23ab870a" y="32.495934"/>
      </g>
     </g>
    </g>
   </g>
   <g id="matplotlib.axis_2">
    <g id="ytick_1">
     <g id="line2d_6">
      <defs>
       <path d="M 0 0 
L -3.5 0 
" id="me910b22cb0" style="stroke:#000000;stroke-width:0.8;"/>
      </defs>
      <g>
       <use style="stroke:#000000;stroke-width:0.8;" x="35.304688" xlink:href="#me910b22cb0" y="28.882229"/>
      </g>
     </g>
     <g id="text_1">
      <!-- −70 -->
      <g transform="translate(7.2 32.681448)scale(0.1 -0.1)">
       <defs>
        <path d="M 10.59375 35.5 
L 73.1875 35.5 
L 73.1875 27.203125 
L 10.59375 27.203125 
z
" id="DejaVuSans-8722"/>
        <path d="M 8.203125 72.90625 
L 55.078125 72.90625 
L 55.078125 68.703125 
L 28.609375 0 
L 18.3125 0 
L 43.21875 64.59375 
L 8.203125 64.59375 
z
" id="DejaVuSans-55"/>
        <path d="M 31.78125 66.40625 
Q 24.171875 66.40625 20.328125 58.90625 
Q 16.5 51.421875 16.5 36.375 
Q 16.5 21.390625 20.328125 13.890625 
Q 24.171875 6.390625 31.78125 6.390625 
Q 39.453125 6.390625 43.28125 13.890625 
Q 47.125 21.390625 47.125 36.375 
Q 47.125 51.421875 43.28125 58.90625 
Q 39.453125 66.40625 31.78125 66.40625 
z
M 31.78125 74.21875 
Q 44.046875 74.21875 50.515625 64.515625 
Q 56.984375 54.828125 56.984375 36.375 
Q 56.984375 17.96875 50.515625 8.265625 
Q 44.046875 -1.421875 31.78125 -1.421875 
Q 19.53125 -1.421875 13.0625 8.265625 
Q 6.59375 17.96875 6.59375 36.375 
Q 6.59375 54.828125 13.0625 64.515625 
Q 19.53125 74.21875 31.78125 74.21875 
z
" id="DejaVuSans-48"/>
       </defs>
       <use xlink:href="#DejaVuSans-8722"/>
       <use x="83.789062" xlink:href="#DejaVuSans-55"/>
       <use x="147.412109" xlink:href="#DejaVuSans-48"/>
      </g>
     </g>
    </g>
    <g id="ytick_2">
     <g id="line2d_7">
      <g>
       <use style="stroke:#000000;stroke-width:0.8;" x="35.304688" xlink:href="#me910b22cb0" y="16.234262"/>
      </g>
     </g>
     <g id="text_2">
      <!-- 0 -->
      <g transform="translate(21.942187 20.033481)scale(0.1 -0.1)">
       <use xlink:href="#DejaVuSans-48"/>
      </g>
     </g>
    </g>
    <g id="ytick_3">
     <g id="line2d_8">
      <defs>
       <path d="M 0 0 
L -2 0 
" id="m4793c4cfc5" style="stroke:#000000;stroke-width:0.6;"/>
      </defs>
      <g>
       <use style="stroke:#000000;stroke-width:0.6;" x="35.304688" xlink:href="#m4793c4cfc5" y="32.495934"/>
      </g>
     </g>
    </g>
    <g id="ytick_4">
     <g id="line2d_9">
      <g>
       <use style="stroke:#000000;stroke-width:0.6;" x="35.304688" xlink:href="#m4793c4cfc5" y="30.689081"/>
      </g>
     </g>
    </g>
    <g id="ytick_5">
     <g id="line2d_10">
      <g>
       <use style="stroke:#000000;stroke-width:0.6;" x="35.304688" xlink:href="#m4793c4cfc5" y="27.075377"/>
      </g>
     </g>
    </g>
    <g id="ytick_6">
     <g id="line2d_11">
      <g>
       <use style="stroke:#000000;stroke-width:0.6;" x="35.304688" xlink:href="#m4793c4cfc5" y="25.268524"/>
      </g>
     </g>
    </g>
    <g id="ytick_7">
     <g id="line2d_12">
      <g>
       <use style="stroke:#000000;stroke-width:0.6;" x="35.304688" xlink:href="#m4793c4cfc5" y="23.461672"/>
      </g>
     </g>
    </g>
    <g id="ytick_8">
     <g id="line2d_13">
      <g>
       <use style="stroke:#000000;stroke-width:0.6;" x="35.304688" xlink:href="#m4793c4cfc5" y="21.654819"/>
      </g>
     </g>
    </g>
    <g id="ytick_9">
     <g id="line2d_14">
      <g>
       <use style="stroke:#000000;stroke-width:0.6;" x="35.304688" xlink:href="#m4793c4cfc5" y="19.847967"/>
      </g>
     </g>
    </g>
    <g id="ytick_10">
     <g id="line2d_15">
      <g>
       <use style="stroke:#000000;stroke-width:0.6;" x="35.304688" xlink:href="#m4793c4cfc5" y="18.041114"/>
      </g>
     </g>
    </g>
    <g id="ytick_11">
     <g id="line2d_16">
      <g>
       <use style="stroke:#000000;stroke-width:0.6;" x="35.304688" xlink:href="#m4793c4cfc5" y="14.42741"/>
      </g>
     </g>
    </g>
    <g id="ytick_12">
     <g id="line2d_17">
      <g>
       <use style="stroke:#000000;stroke-width:0.6;" x="35.304688" xlink:href="#m4793c4cfc5" y="12.620557"/>
      </g>
     </g>
    </g>
    <g id="ytick_13">
     <g id="line2d_18">
      <g>
       <use style="stroke:#000000;stroke-width:0.6;" x="35.304688" xlink:href="#m4793c4cfc5" y="10.813705"/>
      </g>
     </g>
    </g>
    <g id="ytick_14">
     <g id="line2d_19">
      <g>
       <use style="stroke:#000000;stroke-width:0.6;" x="35.304688" xlink:href="#m4793c4cfc5" y="9.006852"/>
      </g>
     </g>
    </g>
    <g id="ytick_15">
     <g id="line2d_20">
      <g>
       <use style="stroke:#000000;stroke-width:0.6;" x="35.304688" xlink:href="#m4793c4cfc5" y="7.2"/>
      </g>
     </g>
    </g>
   </g>
   <g id="line2d_21">
    <path clip-path="url(#p0ee60afe56)" d="M 35.304688 29.070914 
L 42.295897 29.149158 
L 101.363545 29.154432 
L 102.286477 29.063823 
L 102.378771 28.211546 
L 102.540284 24.809857 
L 102.58643 19.971945 
L 102.632577 8.10568 
L 102.701797 12.120803 
L 102.93253 24.822878 
L 102.978676 25.076196 
L 103.047896 24.91645 
L 103.440142 22.556769 
L 103.555509 21.134393 
L 103.717022 18.362693 
L 103.740095 18.411049 
L 104.132341 20.781798 
L 104.224635 20.70295 
L 104.547661 20.04507 
L 104.663027 20.184254 
L 104.847614 20.27355 
L 105.539813 20.201262 
L 108.216315 20.514355 
L 108.493195 20.583163 
L 109.669933 20.644349 
L 109.946813 20.70751 
L 111.261991 20.76953 
L 120.145212 21.100843 
L 133.366213 21.23987 
L 158.631476 21.283835 
L 162.207837 21.28321 
L 162.99233 24.724251 
L 163.384576 25.21464 
L 164.169068 25.72175 
L 166.684058 27.104636 
L 168.368409 27.707595 
L 170.744958 28.305957 
L 174.344393 28.97605 
L 178.705247 29.554168 
L 183.61986 29.958696 
L 189.595845 30.200963 
L 197.556133 30.2825 
L 212.230752 30.162299 
L 219.868014 30.062937 
L 219.868014 30.062937 
" style="fill:none;stroke:#000000;stroke-linecap:square;stroke-width:0.5;"/>
   </g>
   <g id="line2d_22">
    <path clip-path="url(#p0ee60afe56)" d="M 102.217258 32.495934 
L 102.217258 7.2 
" style="fill:none;stroke:#1f77b4;stroke-linecap:square;stroke-width:1.5;"/>
   </g>
   <g id="line2d_23">
    <path clip-path="url(#p0ee60afe56)" d="M 162.207837 32.495934 
L 162.207837 7.2 
" style="fill:none;stroke:#1f77b4;stroke-linecap:square;stroke-width:1.5;"/>
   </g>
   <g id="patch_3">
    <path d="M 35.304688 32.495934 
L 35.304688 7.2 
" style="fill:none;stroke:#000000;stroke-linecap:square;stroke-linejoin:miter;stroke-width:0.8;"/>
   </g>
   <g id="patch_4">
    <path d="M 35.304688 32.495934 
L 219.891087 32.495934 
" style="fill:none;stroke:#000000;stroke-linecap:square;stroke-linejoin:miter;stroke-width:0.8;"/>
   </g>
   <g id="text_3">
    <!-- 7.6E+18 -->
    <g transform="translate(53.763328 17.318374)scale(0.1 -0.1)">
     <defs>
      <path d="M 10.6875 12.40625 
L 21 12.40625 
L 21 0 
L 10.6875 0 
z
" id="DejaVuSans-46"/>
      <path d="M 33.015625 40.375 
Q 26.375 40.375 22.484375 35.828125 
Q 18.609375 31.296875 18.609375 23.390625 
Q 18.609375 15.53125 22.484375 10.953125 
Q 26.375 6.390625 33.015625 6.390625 
Q 39.65625 6.390625 43.53125 10.953125 
Q 47.40625 15.53125 47.40625 23.390625 
Q 47.40625 31.296875 43.53125 35.828125 
Q 39.65625 40.375 33.015625 40.375 
z
M 52.59375 71.296875 
L 52.59375 62.3125 
Q 48.875 64.0625 45.09375 64.984375 
Q 41.3125 65.921875 37.59375 65.921875 
Q 27.828125 65.921875 22.671875 59.328125 
Q 17.53125 52.734375 16.796875 39.40625 
Q 19.671875 43.65625 24.015625 45.921875 
Q 28.375 48.1875 33.59375 48.1875 
Q 44.578125 48.1875 50.953125 41.515625 
Q 57.328125 34.859375 57.328125 23.390625 
Q 57.328125 12.15625 50.6875 5.359375 
Q 44.046875 -1.421875 33.015625 -1.421875 
Q 20.359375 -1.421875 13.671875 8.265625 
Q 6.984375 17.96875 6.984375 36.375 
Q 6.984375 53.65625 15.1875 63.9375 
Q 23.390625 74.21875 37.203125 74.21875 
Q 40.921875 74.21875 44.703125 73.484375 
Q 48.484375 72.75 52.59375 71.296875 
z
" id="DejaVuSans-54"/>
      <path d="M 9.8125 72.90625 
L 55.90625 72.90625 
L 55.90625 64.59375 
L 19.671875 64.59375 
L 19.671875 43.015625 
L 54.390625 43.015625 
L 54.390625 34.71875 
L 19.671875 34.71875 
L 19.671875 8.296875 
L 56.78125 8.296875 
L 56.78125 0 
L 9.8125 0 
z
" id="DejaVuSans-69"/>
      <path d="M 46 62.703125 
L 46 35.5 
L 73.1875 35.5 
L 73.1875 27.203125 
L 46 27.203125 
L 46 0 
L 37.796875 0 
L 37.796875 27.203125 
L 10.59375 27.203125 
L 10.59375 35.5 
L 37.796875 35.5 
L 37.796875 62.703125 
z
" id="DejaVuSans-43"/>
      <path d="M 12.40625 8.296875 
L 28.515625 8.296875 
L 28.515625 63.921875 
L 10.984375 60.40625 
L 10.984375 69.390625 
L 28.421875 72.90625 
L 38.28125 72.90625 
L 38.28125 8.296875 
L 54.390625 8.296875 
L 54.390625 0 
L 12.40625 0 
z
" id="DejaVuSans-49"/>
      <path d="M 31.78125 34.625 
Q 24.75 34.625 20.71875 30.859375 
Q 16.703125 27.09375 16.703125 20.515625 
Q 16.703125 13.921875 20.71875 10.15625 
Q 24.75 6.390625 31.78125 6.390625 
Q 38.8125 6.390625 42.859375 10.171875 
Q 46.921875 13.96875 46.921875 20.515625 
Q 46.921875 27.09375 42.890625 30.859375 
Q 38.875 34.625 31.78125 34.625 
z
M 21.921875 38.8125 
Q 15.578125 40.375 12.03125 44.71875 
Q 8.5 49.078125 8.5 55.328125 
Q 8.5 64.0625 14.71875 69.140625 
Q 20.953125 74.21875 31.78125 74.21875 
Q 42.671875 74.21875 48.875 69.140625 
Q 55.078125 64.0625 55.078125 55.328125 
Q 55.078125 49.078125 51.53125 44.71875 
Q 48 40.375 41.703125 38.8125 
Q 48.828125 37.15625 52.796875 32.3125 
Q 56.78125 27.484375 56.78125 20.515625 
Q 56.78125 9.90625 50.3125 4.234375 
Q 43.84375 -1.421875 31.78125 -1.421875 
Q 19.734375 -1.421875 13.25 4.234375 
Q 6.78125 9.90625 6.78125 20.515625 
Q 6.78125 27.484375 10.78125 32.3125 
Q 14.796875 37.15625 21.921875 38.8125 
z
M 18.3125 54.390625 
Q 18.3125 48.734375 21.84375 45.5625 
Q 25.390625 42.390625 31.78125 42.390625 
Q 38.140625 42.390625 41.71875 45.5625 
Q 45.3125 48.734375 45.3125 54.390625 
Q 45.3125 60.0625 41.71875 63.234375 
Q 38.140625 66.40625 31.78125 66.40625 
Q 25.390625 66.40625 21.84375 63.234375 
Q 18.3125 60.0625 18.3125 54.390625 
z
" id="DejaVuSans-56"/>
     </defs>
     <use xlink:href="#DejaVuSans-55"/>
     <use x="63.623047" xlink:href="#DejaVuSans-46"/>
     <use x="95.410156" xlink:href="#DejaVuSans-54"/>
     <use x="159.033203" xlink:href="#DejaVuSans-69"/>
     <use x="222.216797" xlink:href="#DejaVuSans-43"/>
     <use x="306.005859" xlink:href="#DejaVuSans-49"/>
     <use x="369.628906" xlink:href="#DejaVuSans-56"/>
    </g>
   </g>
  </g>
  <g id="axes_2">
   <g id="patch_5">
    <path d="M 35.304688 62.851054 
L 219.891087 62.851054 
L 219.891087 37.555121 
L 35.304688 37.555121 
z
" style="fill:#ffffff;"/>
   </g>
   <g id="matplotlib.axis_3">
    <g id="xtick_6">
     <g id="line2d_24">
      <g>
       <use style="stroke:#000000;stroke-width:0.8;" x="35.304688" xlink:href="#mdc23ab870a" y="62.851054"/>
      </g>
     </g>
    </g>
    <g id="xtick_7">
     <g id="line2d_25">
      <g>
       <use style="stroke:#000000;stroke-width:0.8;" x="81.451288" xlink:href="#mdc23ab870a" y="62.851054"/>
      </g>
     </g>
    </g>
    <g id="xtick_8">
     <g id="line2d_26">
      <g>
       <use style="stroke:#000000;stroke-width:0.8;" x="127.597887" xlink:href="#mdc23ab870a" y="62.851054"/>
      </g>
     </g>
    </g>
    <g id="xtick_9">
     <g id="line2d_27">
      <g>
       <use style="stroke:#000000;stroke-width:0.8;" x="173.744487" xlink:href="#mdc23ab870a" y="62.851054"/>
      </g>
     </g>
    </g>
    <g id="xtick_10">
     <g id="line2d_28">
      <g>
       <use style="stroke:#000000;stroke-width:0.8;" x="219.891087" xlink:href="#mdc23ab870a" y="62.851054"/>
      </g>
     </g>
    </g>
   </g>
   <g id="matplotlib.axis_4">
    <g id="ytick_16">
     <g id="line2d_29">
      <g>
       <use style="stroke:#000000;stroke-width:0.8;" x="35.304688" xlink:href="#me910b22cb0" y="59.23735"/>
      </g>
     </g>
     <g id="text_4">
      <!-- −70 -->
      <g transform="translate(7.2 63.036568)scale(0.1 -0.1)">
       <use xlink:href="#DejaVuSans-8722"/>
       <use x="83.789062" xlink:href="#DejaVuSans-55"/>
       <use x="147.412109" xlink:href="#DejaVuSans-48"/>
      </g>
     </g>
    </g>
    <g id="ytick_17">
     <g id="line2d_30">
      <g>
       <use style="stroke:#000000;stroke-width:0.8;" x="35.304688" xlink:href="#me910b22cb0" y="46.589383"/>
      </g>
     </g>
     <g id="text_5">
      <!-- 0 -->
      <g transform="translate(21.942187 50.388601)scale(0.1 -0.1)">
       <use xlink:href="#DejaVuSans-48"/>
      </g>
     </g>
    </g>
    <g id="ytick_18">
     <g id="line2d_31">
      <g>
       <use style="stroke:#000000;stroke-width:0.6;" x="35.304688" xlink:href="#m4793c4cfc5" y="62.851054"/>
      </g>
     </g>
    </g>
    <g id="ytick_19">
     <g id="line2d_32">
      <g>
       <use style="stroke:#000000;stroke-width:0.6;" x="35.304688" xlink:href="#m4793c4cfc5" y="61.044202"/>
      </g>
     </g>
    </g>
    <g id="ytick_20">
     <g id="line2d_33">
      <g>
       <use style="stroke:#000000;stroke-width:0.6;" x="35.304688" xlink:href="#m4793c4cfc5" y="57.430497"/>
      </g>
     </g>
    </g>
    <g id="ytick_21">
     <g id="line2d_34">
      <g>
       <use style="stroke:#000000;stroke-width:0.6;" x="35.304688" xlink:href="#m4793c4cfc5" y="55.623645"/>
      </g>
     </g>
    </g>
    <g id="ytick_22">
     <g id="line2d_35">
      <g>
       <use style="stroke:#000000;stroke-width:0.6;" x="35.304688" xlink:href="#m4793c4cfc5" y="53.816792"/>
      </g>
     </g>
    </g>
    <g id="ytick_23">
     <g id="line2d_36">
      <g>
       <use style="stroke:#000000;stroke-width:0.6;" x="35.304688" xlink:href="#m4793c4cfc5" y="52.00994"/>
      </g>
     </g>
    </g>
    <g id="ytick_24">
     <g id="line2d_37">
      <g>
       <use style="stroke:#000000;stroke-width:0.6;" x="35.304688" xlink:href="#m4793c4cfc5" y="50.203087"/>
      </g>
     </g>
    </g>
    <g id="ytick_25">
     <g id="line2d_38">
      <g>
       <use style="stroke:#000000;stroke-width:0.6;" x="35.304688" xlink:href="#m4793c4cfc5" y="48.396235"/>
      </g>
     </g>
    </g>
    <g id="ytick_26">
     <g id="line2d_39">
      <g>
       <use style="stroke:#000000;stroke-width:0.6;" x="35.304688" xlink:href="#m4793c4cfc5" y="44.78253"/>
      </g>
     </g>
    </g>
    <g id="ytick_27">
     <g id="line2d_40">
      <g>
       <use style="stroke:#000000;stroke-width:0.6;" x="35.304688" xlink:href="#m4793c4cfc5" y="42.975678"/>
      </g>
     </g>
    </g>
    <g id="ytick_28">
     <g id="line2d_41">
      <g>
       <use style="stroke:#000000;stroke-width:0.6;" x="35.304688" xlink:href="#m4793c4cfc5" y="41.168825"/>
      </g>
     </g>
    </g>
    <g id="ytick_29">
     <g id="line2d_42">
      <g>
       <use style="stroke:#000000;stroke-width:0.6;" x="35.304688" xlink:href="#m4793c4cfc5" y="39.361973"/>
      </g>
     </g>
    </g>
    <g id="ytick_30">
     <g id="line2d_43">
      <g>
       <use style="stroke:#000000;stroke-width:0.6;" x="35.304688" xlink:href="#m4793c4cfc5" y="37.555121"/>
      </g>
     </g>
    </g>
   </g>
   <g id="line2d_44">
    <path clip-path="url(#pc5ad9af533)" d="M 35.304688 59.426035 
L 42.295897 59.504278 
L 101.363545 59.509553 
L 102.309551 59.435245 
L 102.424917 58.83597 
L 102.65565 55.796441 
L 102.701797 53.100755 
L 102.771017 38.509354 
L 102.86331 44.915294 
L 103.094043 56.566677 
L 103.163263 56.873262 
L 103.209409 56.786317 
L 103.440142 55.49854 
L 103.809315 52.571821 
L 103.993902 46.041849 
L 104.040048 46.727113 
L 104.363074 52.637988 
L 104.455368 52.764355 
L 104.501514 52.722051 
L 104.663027 52.267677 
L 104.82454 51.268015 
L 105.009127 50.29598 
L 105.17064 50.445271 
L 105.539813 50.835643 
L 106.462745 50.884807 
L 106.762698 50.848625 
L 107.20109 50.86181 
L 108.862368 51.030814 
L 111.769604 51.238748 
L 111.908043 51.263273 
L 112.138776 51.344554 
L 113.269368 51.319143 
L 113.546248 51.434333 
L 114.676839 51.402718 
L 114.930646 51.522753 
L 116.153531 51.52828 
L 116.407337 51.589946 
L 117.284122 51.52347 
L 118.160908 51.561681 
L 118.622374 51.549299 
L 119.614526 51.620904 
L 120.052918 51.579989 
L 121.11429 51.658513 
L 121.52961 51.612671 
L 122.060295 51.820022 
L 122.314102 51.831872 
L 123.121667 51.6569 
L 124.021526 51.789175 
L 124.529139 51.661397 
L 124.967531 51.823439 
L 125.244411 51.942266 
L 125.59051 51.802898 
L 126.07505 51.67569 
L 126.467296 51.838291 
L 126.744175 51.995243 
L 127.044128 51.892709 
L 127.620961 51.679965 
L 127.96706 51.81695 
L 128.24394 52.023431 
L 128.52082 51.963491 
L 129.213019 51.704248 
L 129.536045 51.8708 
L 129.835998 52.056278 
L 130.13595 51.962058 
L 130.782003 51.704348 
L 131.058882 51.845147 
L 131.358835 52.082732 
L 131.635715 52.037526 
L 132.5125 51.691705 
L 133.043186 52.110267 
L 133.366213 51.971075 
L 133.943045 51.712939 
L 134.150705 51.804796 
L 134.473731 52.098152 
L 134.75061 52.090234 
L 135.742762 51.825089 
L 136.088862 52.120907 
L 136.388815 52.101215 
L 137.311747 51.798415 
L 137.68092 52.121477 
L 137.980873 52.112421 
L 138.511558 51.791555 
L 138.834585 51.719208 
L 139.226831 52.09786 
L 139.549857 52.119086 
L 139.98825 51.879836 
L 140.426642 51.722281 
L 140.818888 52.095468 
L 141.141915 52.136556 
L 141.534161 51.937172 
L 142.0187 51.711875 
L 142.434019 52.096825 
L 142.757046 52.134752 
L 143.172365 51.929708 
L 143.633831 51.746074 
L 144.026077 52.084121 
L 144.372177 52.123182 
L 144.810569 51.917093 
L 145.248962 51.75832 
L 145.641208 52.097443 
L 145.987308 52.138203 
L 146.402627 51.931822 
L 146.864093 51.750064 
L 147.256339 52.098704 
L 147.602439 52.14232 
L 148.040831 51.932537 
L 148.479224 51.754274 
L 148.87147 52.090502 
L 149.21757 52.137526 
L 149.632889 51.951354 
L 150.117428 51.769235 
L 150.509674 52.11247 
L 150.855774 52.154397 
L 151.24802 51.957333 
L 151.732559 51.737443 
L 152.147879 52.117289 
L 152.493978 52.160753 
L 152.886224 51.971412 
L 153.370764 51.740782 
L 153.786083 52.105894 
L 154.132182 52.16064 
L 154.524429 51.972033 
L 155.008968 51.748277 
L 155.424287 52.11538 
L 155.770387 52.162631 
L 156.162633 51.967944 
L 156.647172 51.738958 
L 157.062492 52.109243 
L 157.408591 52.17443 
L 157.777764 52.002776 
L 158.30845 51.752282 
L 158.769916 52.132252 
L 159.116015 52.159863 
L 159.531335 51.927865 
L 159.946654 51.753708 
L 160.385047 52.114823 
L 160.731146 52.157536 
L 161.123392 51.96309 
L 161.584858 51.73834 
L 162.023251 52.120131 
L 162.230911 52.282973 
L 163.038476 55.73714 
L 163.453796 56.278651 
L 164.169068 56.776263 
L 166.038005 57.767224 
L 167.699283 58.386518 
L 169.660513 58.891375 
L 172.983069 59.481744 
L 176.951676 59.963955 
L 181.843216 60.330941 
L 187.842274 60.547759 
L 196.448615 60.611165 
L 213.430564 60.448419 
L 219.868014 60.364817 
L 219.868014 60.364817 
" style="fill:none;stroke:#000000;stroke-linecap:square;stroke-width:0.5;"/>
   </g>
   <g id="line2d_45">
    <path clip-path="url(#pc5ad9af533)" d="M 102.217258 62.851054 
L 102.217258 37.555121 
" style="fill:none;stroke:#1f77b4;stroke-linecap:square;stroke-width:1.5;"/>
   </g>
   <g id="line2d_46">
    <path clip-path="url(#pc5ad9af533)" d="M 162.207837 62.851054 
L 162.207837 37.555121 
" style="fill:none;stroke:#1f77b4;stroke-linecap:square;stroke-width:1.5;"/>
   </g>
   <g id="patch_6">
    <path d="M 35.304688 62.851054 
L 35.304688 37.555121 
" style="fill:none;stroke:#000000;stroke-linecap:square;stroke-linejoin:miter;stroke-width:0.8;"/>
   </g>
   <g id="patch_7">
    <path d="M 35.304688 62.851054 
L 219.891087 62.851054 
" style="fill:none;stroke:#000000;stroke-linecap:square;stroke-linejoin:miter;stroke-width:0.8;"/>
   </g>
   <g id="text_6">
    <!-- 2.5E+18 -->
    <g transform="translate(53.763328 47.673494)scale(0.1 -0.1)">
     <defs>
      <path d="M 19.1875 8.296875 
L 53.609375 8.296875 
L 53.609375 0 
L 7.328125 0 
L 7.328125 8.296875 
Q 12.9375 14.109375 22.625 23.890625 
Q 32.328125 33.6875 34.8125 36.53125 
Q 39.546875 41.84375 41.421875 45.53125 
Q 43.3125 49.21875 43.3125 52.78125 
Q 43.3125 58.59375 39.234375 62.25 
Q 35.15625 65.921875 28.609375 65.921875 
Q 23.96875 65.921875 18.8125 64.3125 
Q 13.671875 62.703125 7.8125 59.421875 
L 7.8125 69.390625 
Q 13.765625 71.78125 18.9375 73 
Q 24.125 74.21875 28.421875 74.21875 
Q 39.75 74.21875 46.484375 68.546875 
Q 53.21875 62.890625 53.21875 53.421875 
Q 53.21875 48.921875 51.53125 44.890625 
Q 49.859375 40.875 45.40625 35.40625 
Q 44.1875 33.984375 37.640625 27.21875 
Q 31.109375 20.453125 19.1875 8.296875 
z
" id="DejaVuSans-50"/>
      <path d="M 10.796875 72.90625 
L 49.515625 72.90625 
L 49.515625 64.59375 
L 19.828125 64.59375 
L 19.828125 46.734375 
Q 21.96875 47.46875 24.109375 47.828125 
Q 26.265625 48.1875 28.421875 48.1875 
Q 40.625 48.1875 47.75 41.5 
Q 54.890625 34.8125 54.890625 23.390625 
Q 54.890625 11.625 47.5625 5.09375 
Q 40.234375 -1.421875 26.90625 -1.421875 
Q 22.3125 -1.421875 17.546875 -0.640625 
Q 12.796875 0.140625 7.71875 1.703125 
L 7.71875 11.625 
Q 12.109375 9.234375 16.796875 8.0625 
Q 21.484375 6.890625 26.703125 6.890625 
Q 35.15625 6.890625 40.078125 11.328125 
Q 45.015625 15.765625 45.015625 23.390625 
Q 45.015625 31 40.078125 35.4375 
Q 35.15625 39.890625 26.703125 39.890625 
Q 22.75 39.890625 18.8125 39.015625 
Q 14.890625 38.140625 10.796875 36.28125 
z
" id="DejaVuSans-53"/>
     </defs>
     <use xlink:href="#DejaVuSans-50"/>
     <use x="63.623047" xlink:href="#DejaVuSans-46"/>
     <use x="95.410156" xlink:href="#DejaVuSans-53"/>
     <use x="159.033203" xlink:href="#DejaVuSans-69"/>
     <use x="222.216797" xlink:href="#DejaVuSans-43"/>
     <use x="306.005859" xlink:href="#DejaVuSans-49"/>
     <use x="369.628906" xlink:href="#DejaVuSans-56"/>
    </g>
   </g>
  </g>
  <g id="axes_3">
   <g id="patch_8">
    <path d="M 35.304688 93.206175 
L 219.891087 93.206175 
L 219.891087 67.910241 
L 35.304688 67.910241 
z
" style="fill:#ffffff;"/>
   </g>
   <g id="matplotlib.axis_5">
    <g id="xtick_11">
     <g id="line2d_47">
      <g>
       <use style="stroke:#000000;stroke-width:0.8;" x="35.304688" xlink:href="#mdc23ab870a" y="93.206175"/>
      </g>
     </g>
    </g>
    <g id="xtick_12">
     <g id="line2d_48">
      <g>
       <use style="stroke:#000000;stroke-width:0.8;" x="81.451288" xlink:href="#mdc23ab870a" y="93.206175"/>
      </g>
     </g>
    </g>
    <g id="xtick_13">
     <g id="line2d_49">
      <g>
       <use style="stroke:#000000;stroke-width:0.8;" x="127.597887" xlink:href="#mdc23ab870a" y="93.206175"/>
      </g>
     </g>
    </g>
    <g id="xtick_14">
     <g id="line2d_50">
      <g>
       <use style="stroke:#000000;stroke-width:0.8;" x="173.744487" xlink:href="#mdc23ab870a" y="93.206175"/>
      </g>
     </g>
    </g>
    <g id="xtick_15">
     <g id="line2d_51">
      <g>
       <use style="stroke:#000000;stroke-width:0.8;" x="219.891087" xlink:href="#mdc23ab870a" y="93.206175"/>
      </g>
     </g>
    </g>
   </g>
   <g id="matplotlib.axis_6">
    <g id="ytick_31">
     <g id="line2d_52">
      <g>
       <use style="stroke:#000000;stroke-width:0.8;" x="35.304688" xlink:href="#me910b22cb0" y="89.59247"/>
      </g>
     </g>
     <g id="text_7">
      <!-- −70 -->
      <g transform="translate(7.2 93.391689)scale(0.1 -0.1)">
       <use xlink:href="#DejaVuSans-8722"/>
       <use x="83.789062" xlink:href="#DejaVuSans-55"/>
       <use x="147.412109" xlink:href="#DejaVuSans-48"/>
      </g>
     </g>
    </g>
    <g id="ytick_32">
     <g id="line2d_53">
      <g>
       <use style="stroke:#000000;stroke-width:0.8;" x="35.304688" xlink:href="#me910b22cb0" y="76.944503"/>
      </g>
     </g>
     <g id="text_8">
      <!-- 0 -->
      <g transform="translate(21.942187 80.743722)scale(0.1 -0.1)">
       <use xlink:href="#DejaVuSans-48"/>
      </g>
     </g>
    </g>
    <g id="ytick_33">
     <g id="line2d_54">
      <g>
       <use style="stroke:#000000;stroke-width:0.6;" x="35.304688" xlink:href="#m4793c4cfc5" y="93.206175"/>
      </g>
     </g>
    </g>
    <g id="ytick_34">
     <g id="line2d_55">
      <g>
       <use style="stroke:#000000;stroke-width:0.6;" x="35.304688" xlink:href="#m4793c4cfc5" y="91.399322"/>
      </g>
     </g>
    </g>
    <g id="ytick_35">
     <g id="line2d_56">
      <g>
       <use style="stroke:#000000;stroke-width:0.6;" x="35.304688" xlink:href="#m4793c4cfc5" y="87.785618"/>
      </g>
     </g>
    </g>
    <g id="ytick_36">
     <g id="line2d_57">
      <g>
       <use style="stroke:#000000;stroke-width:0.6;" x="35.304688" xlink:href="#m4793c4cfc5" y="85.978765"/>
      </g>
     </g>
    </g>
    <g id="ytick_37">
     <g id="line2d_58">
      <g>
       <use style="stroke:#000000;stroke-width:0.6;" x="35.304688" xlink:href="#m4793c4cfc5" y="84.171913"/>
      </g>
     </g>
    </g>
    <g id="ytick_38">
     <g id="line2d_59">
      <g>
       <use style="stroke:#000000;stroke-width:0.6;" x="35.304688" xlink:href="#m4793c4cfc5" y="82.36506"/>
      </g>
     </g>
    </g>
    <g id="ytick_39">
     <g id="line2d_60">
      <g>
       <use style="stroke:#000000;stroke-width:0.6;" x="35.304688" xlink:href="#m4793c4cfc5" y="80.558208"/>
      </g>
     </g>
    </g>
    <g id="ytick_40">
     <g id="line2d_61">
      <g>
       <use style="stroke:#000000;stroke-width:0.6;" x="35.304688" xlink:href="#m4793c4cfc5" y="78.751356"/>
      </g>
     </g>
    </g>
    <g id="ytick_41">
     <g id="line2d_62">
      <g>
       <use style="stroke:#000000;stroke-width:0.6;" x="35.304688" xlink:href="#m4793c4cfc5" y="75.137651"/>
      </g>
     </g>
    </g>
    <g id="ytick_42">
     <g id="line2d_63">
      <g>
       <use style="stroke:#000000;stroke-width:0.6;" x="35.304688" xlink:href="#m4793c4cfc5" y="73.330798"/>
      </g>
     </g>
    </g>
    <g id="ytick_43">
     <g id="line2d_64">
      <g>
       <use style="stroke:#000000;stroke-width:0.6;" x="35.304688" xlink:href="#m4793c4cfc5" y="71.523946"/>
      </g>
     </g>
    </g>
    <g id="ytick_44">
     <g id="line2d_65">
      <g>
       <use style="stroke:#000000;stroke-width:0.6;" x="35.304688" xlink:href="#m4793c4cfc5" y="69.717094"/>
      </g>
     </g>
    </g>
    <g id="ytick_45">
     <g id="line2d_66">
      <g>
       <use style="stroke:#000000;stroke-width:0.6;" x="35.304688" xlink:href="#m4793c4cfc5" y="67.910241"/>
      </g>
     </g>
    </g>
   </g>
   <g id="line2d_67">
    <path clip-path="url(#p588a317273)" d="M 35.304688 89.781155 
L 42.295897 89.859399 
L 101.363545 89.864673 
L 102.309551 89.805067 
L 102.424917 89.316162 
L 102.65565 86.782196 
L 102.72487 84.450844 
L 102.817163 68.810661 
L 102.886383 74.301979 
L 103.117116 87.003549 
L 103.209409 87.538193 
L 103.255556 87.450886 
L 103.463216 86.325417 
L 103.878535 83.034407 
L 104.040048 75.645479 
L 104.109268 76.75635 
L 104.409221 83.536341 
L 104.524587 83.764384 
L 104.547661 83.747917 
L 104.686101 83.437387 
L 104.89376 82.473114 
L 105.216786 80.277882 
L 105.23986 80.293812 
L 105.3783 80.7075 
L 105.655179 81.415901 
L 105.816692 81.395903 
L 106.347378 81.11499 
L 106.739624 81.297754 
L 107.27031 81.261344 
L 108.908514 81.423467 
L 110.639012 81.563404 
L 110.800525 81.584119 
L 111.031258 81.662945 
L 112.000337 81.656261 
L 114.307667 81.768346 
L 114.792206 81.799594 
L 115.715138 81.861756 
L 116.176604 81.841531 
L 117.284122 81.918215 
L 117.745588 81.905781 
L 118.73774 81.99666 
L 119.176133 81.93839 
L 119.845259 82.167125 
L 120.122138 82.122639 
L 120.698971 81.972515 
L 121.229657 82.139008 
L 121.483463 82.24302 
L 121.852636 82.101597 
L 122.314102 82.010791 
L 122.775568 82.184306 
L 123.052447 82.306886 
L 123.398547 82.162847 
L 123.860013 82.025183 
L 124.275332 82.163277 
L 124.552212 82.374202 
L 124.829092 82.30433 
L 125.498217 82.037922 
L 125.86739 82.219151 
L 126.14427 82.427258 
L 126.421149 82.366613 
L 127.182568 82.062399 
L 127.459448 82.240235 
L 127.759401 82.470418 
L 128.03628 82.41503 
L 128.913066 82.046025 
L 129.605265 82.496347 
L 130.043657 82.190622 
L 130.458977 82.000561 
L 130.574343 82.094284 
L 130.943516 82.510983 
L 131.243469 82.541755 
L 131.612642 82.316188 
L 132.143328 82.005113 
L 132.65094 82.534806 
L 132.950893 82.554065 
L 133.296993 82.338399 
L 133.758459 82.020477 
L 133.781532 82.048452 
L 134.312218 82.521723 
L 134.635244 82.5571 
L 135.004417 82.346058 
L 135.44281 82.113363 
L 136.181155 82.55719 
L 136.504181 82.510803 
L 136.896427 82.203194 
L 137.011794 82.130243 
L 137.034867 82.145129 
L 137.796286 82.484417 
L 138.188532 82.500858 
L 138.557705 82.289662 
L 138.696145 82.273246 
L 139.042244 82.349994 
L 140.242056 82.318925 
L 140.357422 82.357459 
L 140.657375 82.468347 
L 141.211135 82.374436 
L 141.995627 82.322525 
L 142.29558 82.576977 
L 142.595532 82.577783 
L 143.149292 82.262192 
L 143.587684 82.139536 
L 143.726124 82.323215 
L 144.095297 82.69084 
L 144.372177 82.696023 
L 144.718276 82.449727 
L 145.272035 81.937333 
L 145.295109 81.96136 
L 145.987308 82.823146 
L 146.241114 82.787021 
L 146.541067 82.489298 
L 147.071753 81.906101 
L 147.302486 82.188589 
L 147.833172 82.889556 
L 148.086978 82.872601 
L 148.363857 82.592147 
L 148.963763 81.845591 
L 149.125276 81.986541 
L 149.840549 82.961767 
L 150.071282 82.860997 
L 150.509674 82.306889 
L 150.948067 81.753238 
L 150.97114 81.769499 
L 151.1788 82.131441 
L 151.663339 82.97764 
L 151.894072 83.000005 
L 152.332465 82.631875 
L 152.609345 82.021219 
L 152.886224 81.563497 
L 153.001591 81.679658 
L 153.324617 82.551394 
L 153.647643 83.097452 
L 153.786083 83.052109 
L 153.924523 83.102026 
L 154.109109 83.036202 
L 154.316769 82.704356 
L 154.639795 81.637025 
L 154.847455 81.229717 
L 154.962821 81.443106 
L 155.608874 83.198637 
L 155.954973 83.293655 
L 156.162633 82.972885 
L 156.439512 81.993162 
L 156.739465 80.857304 
L 156.762539 80.87564 
L 156.877905 81.267174 
L 157.362444 83.270045 
L 157.523958 83.469417 
L 157.708544 83.525866 
L 157.916204 83.310148 
L 158.146937 82.68303 
L 158.469963 80.98626 
L 158.585329 80.596328 
L 158.631476 80.646288 
L 158.769916 81.348822 
L 159.162162 83.282935 
L 159.600555 83.5918 
L 159.808214 83.28429 
L 160.038947 82.502215 
L 160.431193 80.435678 
L 160.523487 80.73672 
L 161.077246 83.459215 
L 161.284905 83.698995 
L 161.469492 83.591024 
L 161.700225 83.145408 
L 161.977104 81.955719 
L 162.230911 80.41609 
L 162.300131 80.589629 
L 162.50779 82.384406 
L 162.946183 85.821405 
L 163.269209 86.792583 
L 163.638382 87.232725 
L 164.238288 87.544552 
L 167.67621 88.880394 
L 169.729733 89.381182 
L 172.890775 89.915362 
L 176.90553 90.37464 
L 181.866289 90.716869 
L 188.557546 90.921215 
L 197.786866 90.951697 
L 218.252883 90.726006 
L 219.868014 90.705121 
L 219.868014 90.705121 
" style="fill:none;stroke:#000000;stroke-linecap:square;stroke-width:0.5;"/>
   </g>
   <g id="line2d_68">
    <path clip-path="url(#p588a317273)" d="M 102.217258 93.206175 
L 102.217258 67.910241 
" style="fill:none;stroke:#1f77b4;stroke-linecap:square;stroke-width:1.5;"/>
   </g>
   <g id="line2d_69">
    <path clip-path="url(#p588a317273)" d="M 162.207837 93.206175 
L 162.207837 67.910241 
" style="fill:none;stroke:#1f77b4;stroke-linecap:square;stroke-width:1.5;"/>
   </g>
   <g id="patch_9">
    <path d="M 35.304688 93.206175 
L 35.304688 67.910241 
" style="fill:none;stroke:#000000;stroke-linecap:square;stroke-linejoin:miter;stroke-width:0.8;"/>
   </g>
   <g id="patch_10">
    <path d="M 35.304688 93.206175 
L 219.891087 93.206175 
" style="fill:none;stroke:#000000;stroke-linecap:square;stroke-linejoin:miter;stroke-width:0.8;"/>
   </g>
   <g id="text_9">
    <!-- 2.0E+18 -->
    <g transform="translate(53.763328 78.028615)scale(0.1 -0.1)">
     <use xlink:href="#DejaVuSans-50"/>
     <use x="63.623047" xlink:href="#DejaVuSans-46"/>
     <use x="95.410156" xlink:href="#DejaVuSans-48"/>
     <use x="159.033203" xlink:href="#DejaVuSans-69"/>
     <use x="222.216797" xlink:href="#DejaVuSans-43"/>
     <use x="306.005859" xlink:href="#DejaVuSans-49"/>
     <use x="369.628906" xlink:href="#DejaVuSans-56"/>
    </g>
   </g>
  </g>
  <g id="axes_4">
   <g id="patch_11">
    <path d="M 35.304688 123.561295 
L 219.891087 123.561295 
L 219.891087 98.265362 
L 35.304688 98.265362 
z
" style="fill:#ffffff;"/>
   </g>
   <g id="matplotlib.axis_7">
    <g id="xtick_16">
     <g id="line2d_70">
      <g>
       <use style="stroke:#000000;stroke-width:0.8;" x="35.304688" xlink:href="#mdc23ab870a" y="123.561295"/>
      </g>
     </g>
    </g>
    <g id="xtick_17">
     <g id="line2d_71">
      <g>
       <use style="stroke:#000000;stroke-width:0.8;" x="81.451288" xlink:href="#mdc23ab870a" y="123.561295"/>
      </g>
     </g>
    </g>
    <g id="xtick_18">
     <g id="line2d_72">
      <g>
       <use style="stroke:#000000;stroke-width:0.8;" x="127.597887" xlink:href="#mdc23ab870a" y="123.561295"/>
      </g>
     </g>
    </g>
    <g id="xtick_19">
     <g id="line2d_73">
      <g>
       <use style="stroke:#000000;stroke-width:0.8;" x="173.744487" xlink:href="#mdc23ab870a" y="123.561295"/>
      </g>
     </g>
    </g>
    <g id="xtick_20">
     <g id="line2d_74">
      <g>
       <use style="stroke:#000000;stroke-width:0.8;" x="219.891087" xlink:href="#mdc23ab870a" y="123.561295"/>
      </g>
     </g>
    </g>
   </g>
   <g id="matplotlib.axis_8">
    <g id="ytick_46">
     <g id="line2d_75">
      <g>
       <use style="stroke:#000000;stroke-width:0.8;" x="35.304688" xlink:href="#me910b22cb0" y="119.947591"/>
      </g>
     </g>
     <g id="text_10">
      <!-- −70 -->
      <g transform="translate(7.2 123.746809)scale(0.1 -0.1)">
       <use xlink:href="#DejaVuSans-8722"/>
       <use x="83.789062" xlink:href="#DejaVuSans-55"/>
       <use x="147.412109" xlink:href="#DejaVuSans-48"/>
      </g>
     </g>
    </g>
    <g id="ytick_47">
     <g id="line2d_76">
      <g>
       <use style="stroke:#000000;stroke-width:0.8;" x="35.304688" xlink:href="#me910b22cb0" y="107.299624"/>
      </g>
     </g>
     <g id="text_11">
      <!-- 0 -->
      <g transform="translate(21.942187 111.098842)scale(0.1 -0.1)">
       <use xlink:href="#DejaVuSans-48"/>
      </g>
     </g>
    </g>
    <g id="ytick_48">
     <g id="line2d_77">
      <g>
       <use style="stroke:#000000;stroke-width:0.6;" x="35.304688" xlink:href="#m4793c4cfc5" y="123.561295"/>
      </g>
     </g>
    </g>
    <g id="ytick_49">
     <g id="line2d_78">
      <g>
       <use style="stroke:#000000;stroke-width:0.6;" x="35.304688" xlink:href="#m4793c4cfc5" y="121.754443"/>
      </g>
     </g>
    </g>
    <g id="ytick_50">
     <g id="line2d_79">
      <g>
       <use style="stroke:#000000;stroke-width:0.6;" x="35.304688" xlink:href="#m4793c4cfc5" y="118.140738"/>
      </g>
     </g>
    </g>
    <g id="ytick_51">
     <g id="line2d_80">
      <g>
       <use style="stroke:#000000;stroke-width:0.6;" x="35.304688" xlink:href="#m4793c4cfc5" y="116.333886"/>
      </g>
     </g>
    </g>
    <g id="ytick_52">
     <g id="line2d_81">
      <g>
       <use style="stroke:#000000;stroke-width:0.6;" x="35.304688" xlink:href="#m4793c4cfc5" y="114.527033"/>
      </g>
     </g>
    </g>
    <g id="ytick_53">
     <g id="line2d_82">
      <g>
       <use style="stroke:#000000;stroke-width:0.6;" x="35.304688" xlink:href="#m4793c4cfc5" y="112.720181"/>
      </g>
     </g>
    </g>
    <g id="ytick_54">
     <g id="line2d_83">
      <g>
       <use style="stroke:#000000;stroke-width:0.6;" x="35.304688" xlink:href="#m4793c4cfc5" y="110.913329"/>
      </g>
     </g>
    </g>
    <g id="ytick_55">
     <g id="line2d_84">
      <g>
       <use style="stroke:#000000;stroke-width:0.6;" x="35.304688" xlink:href="#m4793c4cfc5" y="109.106476"/>
      </g>
     </g>
    </g>
    <g id="ytick_56">
     <g id="line2d_85">
      <g>
       <use style="stroke:#000000;stroke-width:0.6;" x="35.304688" xlink:href="#m4793c4cfc5" y="105.492771"/>
      </g>
     </g>
    </g>
    <g id="ytick_57">
     <g id="line2d_86">
      <g>
       <use style="stroke:#000000;stroke-width:0.6;" x="35.304688" xlink:href="#m4793c4cfc5" y="103.685919"/>
      </g>
     </g>
    </g>
    <g id="ytick_58">
     <g id="line2d_87">
      <g>
       <use style="stroke:#000000;stroke-width:0.6;" x="35.304688" xlink:href="#m4793c4cfc5" y="101.879066"/>
      </g>
     </g>
    </g>
    <g id="ytick_59">
     <g id="line2d_88">
      <g>
       <use style="stroke:#000000;stroke-width:0.6;" x="35.304688" xlink:href="#m4793c4cfc5" y="100.072214"/>
      </g>
     </g>
    </g>
    <g id="ytick_60">
     <g id="line2d_89">
      <g>
       <use style="stroke:#000000;stroke-width:0.6;" x="35.304688" xlink:href="#m4793c4cfc5" y="98.265362"/>
      </g>
     </g>
    </g>
   </g>
   <g id="line2d_90">
    <path clip-path="url(#pe4222a7a9d)" d="M 35.304688 120.136276 
L 42.295897 120.214519 
L 101.363545 120.219794 
L 102.401844 120.113313 
L 102.563357 119.655462 
L 102.840237 118.066887 
L 102.909457 117.163998 
L 103.00175 110.997728 
L 103.07097 99.469767 
L 103.117116 102.89329 
L 103.393996 118.826038 
L 103.532436 119.762381 
L 103.555509 119.756925 
L 103.670875 119.434319 
L 104.155415 116.855738 
L 104.386148 115.304156 
L 104.455368 111.693853 
L 104.547661 101.580766 
L 104.593807 104.198359 
L 104.847614 117.042359 
L 105.0322 118.171543 
L 105.124493 118.013743 
L 105.447519 116.704599 
L 105.816692 114.675579 
L 106.024352 104.134854 
L 106.093572 106.881505 
L 106.370452 116.108556 
L 106.555038 116.862764 
L 106.670404 116.721136 
L 106.970357 115.784641 
L 107.247237 114.47554 
L 107.54719 106.385839 
L 107.61641 107.723648 
L 107.939436 114.853343 
L 108.147096 115.587722 
L 108.285535 115.516936 
L 108.539342 114.976037 
L 108.723928 114.192063 
L 109.162321 108.047204 
L 109.254614 109.254054 
L 109.57764 113.797813 
L 109.808373 114.576313 
L 109.969886 114.597044 
L 110.154473 114.344742 
L 110.315986 113.730245 
L 110.731305 110.566982 
L 110.846672 109.267437 
L 110.892818 109.453002 
L 111.515797 113.964582 
L 111.700384 114.054863 
L 111.88497 113.860729 
L 112.184923 113.038703 
L 112.346436 112.268937 
L 112.600242 110.099124 
L 112.692536 110.443016 
L 113.223222 113.586239 
L 113.453955 113.841268 
L 113.638541 113.758392 
L 113.823127 113.400001 
L 114.284593 111.450713 
L 114.446106 110.469281 
L 114.492253 110.54036 
L 114.653766 111.548648 
L 115.022939 113.451544 
L 115.299819 113.872397 
L 115.507478 113.840068 
L 115.715138 113.554174 
L 116.176604 111.875637 
L 116.384264 110.420169 
L 116.43041 110.49524 
L 116.591923 111.572052 
L 116.961096 113.624212 
L 117.237976 114.093722 
L 117.445635 114.084518 
L 117.676368 113.811614 
L 118.068615 112.81683 
L 118.230128 111.54361 
L 118.414714 110.06162 
L 118.437787 110.120171 
L 118.576227 111.216356 
L 118.9454 113.811154 
L 119.199206 114.380118 
L 119.406866 114.419702 
L 119.637599 114.18753 
L 120.075992 113.258443 
L 120.237505 112.31033 
L 120.468238 109.574643 
L 120.537458 109.892016 
L 121.11429 114.469295 
L 121.345023 114.737176 
L 121.552683 114.642427 
L 121.783416 114.257894 
L 122.337175 112.466126 
L 122.567908 109.1483 
L 122.660201 109.832952 
L 123.098594 114.377238 
L 123.329327 114.945768 
L 123.513913 114.971204 
L 123.744646 114.738857 
L 123.929233 114.285848 
L 124.113819 113.896454 
L 124.252259 113.631622 
L 124.413772 112.871948 
L 124.552212 110.773061 
L 124.667578 108.809153 
L 124.713725 108.951718 
L 124.967531 112.684584 
L 125.244411 114.789622 
L 125.475144 115.194133 
L 125.65973 115.138121 
L 125.93661 114.753128 
L 126.490369 113.274661 
L 126.628809 111.81945 
L 126.790322 108.489818 
L 126.859542 108.979003 
L 127.344081 114.948899 
L 127.574814 115.385276 
L 127.759401 115.319763 
L 128.03628 114.932553 
L 128.197793 114.362703 
L 128.359306 114.050269 
L 128.474673 113.879762 
L 128.636186 113.258479 
L 128.751553 112.040988 
L 128.936139 108.241634 
L 128.982285 108.690536 
L 129.466825 115.11915 
L 129.674485 115.54231 
L 129.859071 115.489187 
L 130.159024 115.071313 
L 130.320537 114.562281 
L 130.458977 114.078268 
L 130.505123 114.090785 
L 130.62049 113.928642 
L 130.782003 113.296378 
L 130.897369 112.004079 
L 131.058882 107.996554 
L 131.128102 108.625009 
L 131.566495 115.10798 
L 131.774155 115.666435 
L 131.935668 115.664942 
L 132.189474 115.365829 
L 132.443281 114.797882 
L 132.604794 114.091223 
L 132.674014 114.115695 
L 132.78938 113.936543 
L 132.950893 113.251944 
L 133.06626 111.713756 
L 133.227773 107.807062 
L 133.273919 108.367557 
L 133.735385 115.35568 
L 133.943045 115.814574 
L 134.104558 115.76825 
L 134.404511 115.351522 
L 134.612171 114.826175 
L 134.773684 114.080179 
L 134.81983 114.114334 
L 134.912124 114.029778 
L 135.073637 113.486683 
L 135.189003 112.399731 
L 135.37359 107.608268 
L 135.465883 109.116503 
L 135.811982 115.04268 
L 136.042715 115.896101 
L 136.204228 115.911314 
L 136.458035 115.600583 
L 136.757988 114.963044 
L 136.942574 114.067329 
L 137.034867 114.089541 
L 137.173307 113.756244 
L 137.311747 112.839148 
L 137.40404 110.76062 
L 137.519407 107.431351 
L 137.565553 107.912033 
L 138.050092 115.683172 
L 138.257752 116.047057 
L 138.419265 115.952184 
L 138.765365 115.399652 
L 138.949951 114.843553 
L 139.088391 114.042325 
L 139.134537 114.07278 
L 139.203757 114.056845 
L 139.226831 114.019411 
L 139.365271 113.544759 
L 139.480637 112.428399 
L 139.665223 107.287479 
L 139.734443 108.545172 
L 140.080543 115.18862 
L 140.311276 116.117451 
L 140.472789 116.126868 
L 140.726595 115.790962 
L 141.072695 115.017666 
L 141.257281 114.02245 
L 141.326501 114.059451 
L 141.441868 113.792731 
L 141.580307 112.828201 
L 141.6726 110.448923 
L 141.764894 107.097371 
L 141.834114 107.883559 
L 142.22636 115.51542 
L 142.434019 116.238873 
L 142.595532 116.227263 
L 142.872412 115.825969 
L 143.218512 114.975415 
L 143.380025 113.986516 
L 143.426171 114.036957 
L 143.495391 113.978839 
L 143.633831 113.405785 
L 143.749197 111.710634 
L 143.887637 106.877768 
L 143.956857 108.16004 
L 144.302957 115.423267 
L 144.510616 116.328056 
L 144.672129 116.354706 
L 144.902862 116.041143 
L 145.318182 115.119858 
L 145.595061 113.955984 
L 145.710428 113.522317 
L 145.825795 112.073785 
L 145.964234 106.662212 
L 146.033454 107.759717 
L 146.402627 115.690485 
L 146.610287 116.473872 
L 146.748727 116.470824 
L 147.002533 116.0988 
L 147.417852 115.126765 
L 147.602439 113.881027 
L 147.671658 113.896275 
L 147.787025 113.416247 
L 147.879318 112.162597 
L 148.017758 106.436387 
L 148.110051 108.36888 
L 148.433077 115.672687 
L 148.640737 116.592572 
L 148.779177 116.607842 
L 149.00991 116.270639 
L 149.471376 115.199178 
L 149.932842 111.055336 
L 150.048208 106.205747 
L 150.094355 107.156534 
L 150.463528 115.973757 
L 150.671188 116.755798 
L 150.809627 116.720528 
L 151.063434 116.287928 
L 151.501826 115.199044 
L 151.917146 110.852484 
L 152.009439 105.960465 
L 152.078659 107.182614 
L 152.424758 116.0341 
L 152.632418 116.905564 
L 152.770858 116.871652 
L 153.024664 116.418818 
L 153.48613 115.235961 
L 153.83223 111.549838 
L 153.947596 105.629365 
L 154.016816 107.327544 
L 154.339842 116.139945 
L 154.547502 117.086417 
L 154.685942 117.04424 
L 154.962821 116.504446 
L 155.424287 115.265156 
L 155.72424 111.157966 
L 155.839607 105.349541 
L 155.885753 106.580723 
L 156.231853 116.510162 
L 156.416439 117.299034 
L 156.531806 117.271808 
L 156.762539 116.825384 
L 157.316298 115.30536 
L 157.570104 111.118702 
L 157.685471 105.01052 
L 157.731617 106.352968 
L 158.054643 116.572281 
L 158.23923 117.513807 
L 158.354596 117.498149 
L 158.562256 117.080475 
L 159.162162 115.411553 
L 159.369822 111.829939 
L 159.485188 104.669483 
L 159.577481 107.544096 
L 159.854361 116.65121 
L 160.038947 117.721365 
L 160.154314 117.709343 
L 160.361973 117.268648 
L 160.984953 115.416717 
L 161.169539 111.539992 
L 161.284905 104.266498 
L 161.354125 106.730957 
L 161.654078 117.042032 
L 161.838665 117.942422 
L 161.954031 117.870997 
L 162.207837 117.236361 
L 162.253984 117.447265 
L 162.530864 118.101818 
L 162.830817 118.277873 
L 165.207367 118.877646 
L 167.376257 119.67934 
L 169.522074 120.17016 
L 172.567749 120.567699 
L 177.090116 120.883585 
L 183.112247 121.074015 
L 192.595374 121.122755 
L 212.023092 120.941665 
L 219.868014 120.854937 
L 219.868014 120.854937 
" style="fill:none;stroke:#000000;stroke-linecap:square;stroke-width:0.5;"/>
   </g>
   <g id="line2d_91">
    <path clip-path="url(#pe4222a7a9d)" d="M 102.217258 123.561295 
L 102.217258 98.265362 
" style="fill:none;stroke:#1f77b4;stroke-linecap:square;stroke-width:1.5;"/>
   </g>
   <g id="line2d_92">
    <path clip-path="url(#pe4222a7a9d)" d="M 162.207837 123.561295 
L 162.207837 98.265362 
" style="fill:none;stroke:#1f77b4;stroke-linecap:square;stroke-width:1.5;"/>
   </g>
   <g id="patch_12">
    <path d="M 35.304688 123.561295 
L 35.304688 98.265362 
" style="fill:none;stroke:#000000;stroke-linecap:square;stroke-linejoin:miter;stroke-width:0.8;"/>
   </g>
   <g id="patch_13">
    <path d="M 35.304688 123.561295 
L 219.891087 123.561295 
" style="fill:none;stroke:#000000;stroke-linecap:square;stroke-linejoin:miter;stroke-width:0.8;"/>
   </g>
   <g id="text_12">
    <!-- 5.1E+17 -->
    <g transform="translate(53.763328 108.383735)scale(0.1 -0.1)">
     <use xlink:href="#DejaVuSans-53"/>
     <use x="63.623047" xlink:href="#DejaVuSans-46"/>
     <use x="95.410156" xlink:href="#DejaVuSans-49"/>
     <use x="159.033203" xlink:href="#DejaVuSans-69"/>
     <use x="222.216797" xlink:href="#DejaVuSans-43"/>
     <use x="306.005859" xlink:href="#DejaVuSans-49"/>
     <use x="369.628906" xlink:href="#DejaVuSans-55"/>
    </g>
   </g>
  </g>
  <g id="axes_5">
   <g id="patch_14">
    <path d="M 35.304688 153.916416 
L 219.891087 153.916416 
L 219.891087 128.620482 
L 35.304688 128.620482 
z
" style="fill:#ffffff;"/>
   </g>
   <g id="matplotlib.axis_9">
    <g id="xtick_21">
     <g id="line2d_93">
      <g>
       <use style="stroke:#000000;stroke-width:0.8;" x="35.304688" xlink:href="#mdc23ab870a" y="153.916416"/>
      </g>
     </g>
     <g id="text_13">
      <!-- 0 -->
      <g transform="translate(32.123438 168.514854)scale(0.1 -0.1)">
       <use xlink:href="#DejaVuSans-48"/>
      </g>
     </g>
    </g>
    <g id="xtick_22">
     <g id="line2d_94">
      <g>
       <use style="stroke:#000000;stroke-width:0.8;" x="81.451288" xlink:href="#mdc23ab870a" y="153.916416"/>
      </g>
     </g>
     <g id="text_14">
      <!-- 200 -->
      <g transform="translate(71.907538 168.514854)scale(0.1 -0.1)">
       <use xlink:href="#DejaVuSans-50"/>
       <use x="63.623047" xlink:href="#DejaVuSans-48"/>
       <use x="127.246094" xlink:href="#DejaVuSans-48"/>
      </g>
     </g>
    </g>
    <g id="xtick_23">
     <g id="line2d_95">
      <g>
       <use style="stroke:#000000;stroke-width:0.8;" x="127.597887" xlink:href="#mdc23ab870a" y="153.916416"/>
      </g>
     </g>
     <g id="text_15">
      <!-- 400 -->
      <g transform="translate(118.054137 168.514854)scale(0.1 -0.1)">
       <defs>
        <path d="M 37.796875 64.3125 
L 12.890625 25.390625 
L 37.796875 25.390625 
z
M 35.203125 72.90625 
L 47.609375 72.90625 
L 47.609375 25.390625 
L 58.015625 25.390625 
L 58.015625 17.1875 
L 47.609375 17.1875 
L 47.609375 0 
L 37.796875 0 
L 37.796875 17.1875 
L 4.890625 17.1875 
L 4.890625 26.703125 
z
" id="DejaVuSans-52"/>
       </defs>
       <use xlink:href="#DejaVuSans-52"/>
       <use x="63.623047" xlink:href="#DejaVuSans-48"/>
       <use x="127.246094" xlink:href="#DejaVuSans-48"/>
      </g>
     </g>
    </g>
    <g id="xtick_24">
     <g id="line2d_96">
      <g>
       <use style="stroke:#000000;stroke-width:0.8;" x="173.744487" xlink:href="#mdc23ab870a" y="153.916416"/>
      </g>
     </g>
     <g id="text_16">
      <!-- 600 -->
      <g transform="translate(164.200738 168.514854)scale(0.1 -0.1)">
       <use xlink:href="#DejaVuSans-54"/>
       <use x="63.623047" xlink:href="#DejaVuSans-48"/>
       <use x="127.246094" xlink:href="#DejaVuSans-48"/>
      </g>
     </g>
    </g>
    <g id="xtick_25">
     <g id="line2d_97">
      <g>
       <use style="stroke:#000000;stroke-width:0.8;" x="219.891087" xlink:href="#mdc23ab870a" y="153.916416"/>
      </g>
     </g>
     <g id="text_17">
      <!-- 800 -->
      <g transform="translate(210.347338 168.514854)scale(0.1 -0.1)">
       <use xlink:href="#DejaVuSans-56"/>
       <use x="63.623047" xlink:href="#DejaVuSans-48"/>
       <use x="127.246094" xlink:href="#DejaVuSans-48"/>
      </g>
     </g>
    </g>
   </g>
   <g id="matplotlib.axis_10">
    <g id="ytick_61">
     <g id="line2d_98">
      <g>
       <use style="stroke:#000000;stroke-width:0.8;" x="35.304688" xlink:href="#me910b22cb0" y="150.302711"/>
      </g>
     </g>
     <g id="text_18">
      <!-- −70 -->
      <g transform="translate(7.2 154.10193)scale(0.1 -0.1)">
       <use xlink:href="#DejaVuSans-8722"/>
       <use x="83.789062" xlink:href="#DejaVuSans-55"/>
       <use x="147.412109" xlink:href="#DejaVuSans-48"/>
      </g>
     </g>
    </g>
    <g id="ytick_62">
     <g id="line2d_99">
      <g>
       <use style="stroke:#000000;stroke-width:0.8;" x="35.304688" xlink:href="#me910b22cb0" y="137.654744"/>
      </g>
     </g>
     <g id="text_19">
      <!-- 0 -->
      <g transform="translate(21.942187 141.453963)scale(0.1 -0.1)">
       <use xlink:href="#DejaVuSans-48"/>
      </g>
     </g>
    </g>
    <g id="ytick_63">
     <g id="line2d_100">
      <g>
       <use style="stroke:#000000;stroke-width:0.6;" x="35.304688" xlink:href="#m4793c4cfc5" y="153.916416"/>
      </g>
     </g>
    </g>
    <g id="ytick_64">
     <g id="line2d_101">
      <g>
       <use style="stroke:#000000;stroke-width:0.6;" x="35.304688" xlink:href="#m4793c4cfc5" y="152.109564"/>
      </g>
     </g>
    </g>
    <g id="ytick_65">
     <g id="line2d_102">
      <g>
       <use style="stroke:#000000;stroke-width:0.6;" x="35.304688" xlink:href="#m4793c4cfc5" y="148.495859"/>
      </g>
     </g>
    </g>
    <g id="ytick_66">
     <g id="line2d_103">
      <g>
       <use style="stroke:#000000;stroke-width:0.6;" x="35.304688" xlink:href="#m4793c4cfc5" y="146.689006"/>
      </g>
     </g>
    </g>
    <g id="ytick_67">
     <g id="line2d_104">
      <g>
       <use style="stroke:#000000;stroke-width:0.6;" x="35.304688" xlink:href="#m4793c4cfc5" y="144.882154"/>
      </g>
     </g>
    </g>
    <g id="ytick_68">
     <g id="line2d_105">
      <g>
       <use style="stroke:#000000;stroke-width:0.6;" x="35.304688" xlink:href="#m4793c4cfc5" y="143.075302"/>
      </g>
     </g>
    </g>
    <g id="ytick_69">
     <g id="line2d_106">
      <g>
       <use style="stroke:#000000;stroke-width:0.6;" x="35.304688" xlink:href="#m4793c4cfc5" y="141.268449"/>
      </g>
     </g>
    </g>
    <g id="ytick_70">
     <g id="line2d_107">
      <g>
       <use style="stroke:#000000;stroke-width:0.6;" x="35.304688" xlink:href="#m4793c4cfc5" y="139.461597"/>
      </g>
     </g>
    </g>
    <g id="ytick_71">
     <g id="line2d_108">
      <g>
       <use style="stroke:#000000;stroke-width:0.6;" x="35.304688" xlink:href="#m4793c4cfc5" y="135.847892"/>
      </g>
     </g>
    </g>
    <g id="ytick_72">
     <g id="line2d_109">
      <g>
       <use style="stroke:#000000;stroke-width:0.6;" x="35.304688" xlink:href="#m4793c4cfc5" y="134.041039"/>
      </g>
     </g>
    </g>
    <g id="ytick_73">
     <g id="line2d_110">
      <g>
       <use style="stroke:#000000;stroke-width:0.6;" x="35.304688" xlink:href="#m4793c4cfc5" y="132.234187"/>
      </g>
     </g>
    </g>
    <g id="ytick_74">
     <g id="line2d_111">
      <g>
       <use style="stroke:#000000;stroke-width:0.6;" x="35.304688" xlink:href="#m4793c4cfc5" y="130.427335"/>
      </g>
     </g>
    </g>
    <g id="ytick_75">
     <g id="line2d_112">
      <g>
       <use style="stroke:#000000;stroke-width:0.6;" x="35.304688" xlink:href="#m4793c4cfc5" y="128.620482"/>
      </g>
     </g>
    </g>
   </g>
   <g id="line2d_113">
    <path clip-path="url(#pd88dab2b21)" d="M 35.304688 150.491397 
L 42.295897 150.56964 
L 101.363545 150.574915 
L 103.024823 150.46393 
L 103.832388 150.098275 
L 104.663027 149.54888 
L 104.732247 149.1876 
L 104.870687 145.369842 
L 104.96298 130.017409 
L 105.055273 135.928183 
L 105.332153 150.590667 
L 105.539813 152.554078 
L 105.747472 152.841954 
L 105.955132 152.753419 
L 106.370452 152.254903 
L 108.124022 149.746263 
L 108.193242 148.323527 
L 108.331682 140.787868 
L 108.400902 130.006664 
L 108.447048 133.389491 
L 108.723928 150.067223 
L 108.931588 152.468644 
L 109.139247 152.820461 
L 109.346907 152.738675 
L 109.7853 152.195344 
L 111.261991 150.221981 
L 112.069557 149.564211 
L 112.854049 148.937269 
L 112.923269 147.739619 
L 113.038635 142.095565 
L 113.107855 130.007552 
L 113.177075 134.865583 
L 113.453955 150.344988 
L 113.661614 152.460847 
L 113.869274 152.766224 
L 114.076934 152.668789 
L 114.515326 152.112725 
L 115.899724 150.266507 
L 116.730363 149.594761 
L 117.607149 149.164602 
L 118.899253 148.604969 
L 118.968473 147.417703 
L 119.08384 141.713113 
L 119.15306 130.232249 
L 119.22228 135.078673 
L 119.499159 150.285775 
L 119.706819 152.392492 
L 119.914479 152.709091 
L 120.122138 152.618549 
L 120.560531 152.070432 
L 121.875709 150.332297 
L 122.752494 149.628936 
L 123.675427 149.196335 
L 124.829092 148.919218 
L 126.513442 148.770038 
L 130.297464 148.723906 
L 162.484717 148.745437 
L 164.399801 149.621385 
L 165.991859 150.07015 
L 167.860796 150.369724 
L 170.352712 150.560797 
L 174.713566 150.669348 
L 186.273289 150.694633 
L 219.868014 150.640142 
L 219.868014 150.640142 
" style="fill:none;stroke:#000000;stroke-linecap:square;stroke-width:0.5;"/>
   </g>
   <g id="patch_15">
    <path d="M 35.304688 153.916416 
L 35.304688 128.620482 
" style="fill:none;stroke:#000000;stroke-linecap:square;stroke-linejoin:miter;stroke-width:0.8;"/>
   </g>
   <g id="patch_16">
    <path d="M 35.304688 153.916416 
L 219.891087 153.916416 
" style="fill:none;stroke:#000000;stroke-linecap:square;stroke-linejoin:miter;stroke-width:0.8;"/>
   </g>
   <g id="text_20">
    <!-- 1.0E+16 -->
    <g transform="translate(53.763328 138.738856)scale(0.1 -0.1)">
     <use xlink:href="#DejaVuSans-49"/>
     <use x="63.623047" xlink:href="#DejaVuSans-46"/>
     <use x="95.410156" xlink:href="#DejaVuSans-48"/>
     <use x="159.033203" xlink:href="#DejaVuSans-69"/>
     <use x="222.216797" xlink:href="#DejaVuSans-43"/>
     <use x="306.005859" xlink:href="#DejaVuSans-49"/>
     <use x="369.628906" xlink:href="#DejaVuSans-54"/>
    </g>
   </g>
  </g>
 </g>
 <defs>
  <clipPath id="p0ee60afe56">
   <rect height="25.295934" width="184.5864" x="35.304688" y="7.2"/>
  </clipPath>
  <clipPath id="pc5ad9af533">
   <rect height="25.295934" width="184.5864" x="35.304688" y="37.555121"/>
  </clipPath>
  <clipPath id="p588a317273">
   <rect height="25.295934" width="184.5864" x="35.304688" y="67.910241"/>
  </clipPath>
  <clipPath id="pe4222a7a9d">
   <rect height="25.295934" width="184.5864" x="35.304688" y="98.265362"/>
  </clipPath>
  <clipPath id="pd88dab2b21">
   <rect height="25.295934" width="184.5864" x="35.304688" y="128.620482"/>
  </clipPath>
 </defs>
</svg>
