<?xml version="1.0" encoding="utf-8" standalone="no"?>
<!DOCTYPE svg PUBLIC "-//W3C//DTD SVG 1.1//EN"
  "http://www.w3.org/Graphics/SVG/1.1/DTD/svg11.dtd">
<!-- Created with matplotlib (https://matplotlib.org/) -->
<svg height="144pt" version="1.1" viewBox="0 0 288 144" width="288pt" xmlns="http://www.w3.org/2000/svg" xmlns:xlink="http://www.w3.org/1999/xlink">
 <metadata>
  <rdf:RDF xmlns:cc="http://creativecommons.org/ns#" xmlns:dc="http://purl.org/dc/elements/1.1/" xmlns:rdf="http://www.w3.org/1999/02/22-rdf-syntax-ns#">
   <cc:Work>
    <dc:type rdf:resource="http://purl.org/dc/dcmitype/StillImage"/>
    <dc:date>2024-03-04T14:19:25.071167</dc:date>
    <dc:format>image/svg+xml</dc:format>
    <dc:creator>
     <cc:Agent>
      <dc:title>Matplotlib v3.3.4, https://matplotlib.org/</dc:title>
     </cc:Agent>
    </dc:creator>
   </cc:Work>
  </rdf:RDF>
 </metadata>
 <defs>
  <style type="text/css">*{stroke-linecap:butt;stroke-linejoin:round;}</style>
 </defs>
 <g id="figure_1">
  <g id="patch_1">
   <path d="M 0 144 
L 288 144 
L 288 0 
L 0 0 
z
" style="fill:#ffffff;"/>
  </g>
  <g id="axes_1">
   <g id="patch_2">
    <path d="M 36 41.384348 
L 259.2 41.384348 
L 259.2 17.28 
L 36 17.28 
z
" style="fill:#ffffff;"/>
   </g>
   <g id="matplotlib.axis_1"/>
   <g id="matplotlib.axis_2"/>
   <g id="line2d_1">
    <path clip-path="url(#pfaf027eaa1)" d="M 36 38.120667 
L 44.7048 38.195614 
L 116.9379 38.197968 
L 117.0216 38.084103 
L 117.1332 37.42062 
L 117.3564 34.517509 
L 117.4122 31.613532 
L 117.4959 17.979926 
L 117.5796 22.656113 
L 117.8307 34.314967 
L 117.9423 34.96625 
L 117.9702 34.927719 
L 118.1655 34.133 
L 118.6398 31.474799 
L 118.8909 26.947816 
L 118.9467 27.334294 
L 119.3373 30.663141 
L 119.4768 30.652485 
L 119.6721 30.260102 
L 119.9232 29.551587 
L 120.0069 29.622993 
L 120.258 29.799963 
L 120.7044 29.696125 
L 121.3461 29.756551 
L 123.1596 29.921561 
L 123.4386 29.985054 
L 124.3872 30.017096 
L 129.1581 30.307222 
L 129.4371 30.359983 
L 129.7719 30.368536 
L 130.4973 30.356267 
L 132.3108 30.434932 
L 135.045 30.492387 
L 135.8541 30.568754 
L 136.161 30.630484 
L 137.4165 30.550886 
L 137.8071 30.677015 
L 139.0905 30.592902 
L 139.3974 30.720072 
L 142.5501 30.735822 
L 142.857 30.777047 
L 144.0846 30.64314 
L 144.5868 30.795517 
L 145.5354 30.668095 
L 146.5956 30.722968 
L 147.1257 30.662949 
L 147.7674 30.844201 
L 148.1022 30.813902 
L 148.8276 30.674392 
L 149.4414 30.846015 
L 149.7762 30.847069 
L 150.6411 30.691517 
L 151.8408 30.749139 
L 152.3709 30.700568 
L 152.9568 30.883196 
L 153.2916 30.863887 
L 154.1007 30.702019 
L 154.6308 30.86709 
L 154.9377 30.907351 
L 156.1932 30.722258 
L 156.6396 30.924512 
L 157.1976 30.740726 
L 157.6719 30.723882 
L 158.76 30.813157 
L 159.318 30.713139 
L 159.876 30.873929 
L 160.1829 30.935554 
L 161.55 30.797701 
L 161.8569 30.946095 
L 162.2475 30.848098 
L 162.8613 30.720184 
L 163.3914 30.865794 
L 163.6983 30.956568 
L 164.1726 30.795515 
L 164.6748 30.724088 
L 165.2049 30.893739 
L 165.5118 30.955278 
L 166.8789 30.809366 
L 167.1858 30.9625 
L 167.5485 30.874184 
L 168.1623 30.725755 
L 168.7203 30.862291 
L 169.0272 30.967137 
L 169.4457 30.837926 
L 170.0037 30.728795 
L 170.5338 30.88341 
L 170.8407 30.969925 
L 171.315 30.806035 
L 171.8172 30.73124 
L 172.3473 30.907528 
L 172.6542 30.974186 
L 173.268 30.752486 
L 173.7144 30.748578 
L 174.7746 30.857881 
L 175.3326 30.732898 
L 175.8906 30.873184 
L 176.1975 30.977 
L 176.616 30.84022 
L 177.174 30.732996 
L 177.7041 30.886246 
L 178.011 30.983631 
L 178.4295 30.839392 
L 178.9596 30.729181 
L 179.4897 30.874864 
L 179.7966 30.983292 
L 180.2151 30.84252 
L 180.7452 30.731385 
L 181.3032 30.887499 
L 181.6101 30.983255 
L 182.0565 30.826399 
L 182.5587 30.730555 
L 183.1167 30.891234 
L 183.4236 30.983251 
L 183.87 30.828969 
L 184.4001 30.733346 
L 184.9302 30.895425 
L 185.2371 30.984086 
L 185.6835 30.823509 
L 186.1857 30.728404 
L 186.66 30.830168 
L 187.4133 33.923879 
L 187.8039 34.529853 
L 188.3061 34.891098 
L 190.3428 35.830269 
L 192.2679 36.555137 
L 194.4441 37.119317 
L 197.7921 37.717329 
L 202.5909 38.323187 
L 208.0035 38.781483 
L 214.4763 39.092855 
L 223.0695 39.254776 
L 236.1267 39.241772 
L 259.1721 39.021473 
L 259.1721 39.021473 
" style="fill:none;stroke:#000000;stroke-linecap:square;stroke-width:0.5;"/>
   </g>
  </g>
  <g id="axes_2">
   <g id="patch_3">
    <path d="M 36 70.309565 
L 259.2 70.309565 
L 259.2 46.205217 
L 36 46.205217 
z
" style="fill:#ffffff;"/>
   </g>
   <g id="matplotlib.axis_3"/>
   <g id="matplotlib.axis_4"/>
   <g id="line2d_2">
    <path clip-path="url(#pf5a8865343)" d="M 36 67.045884 
L 44.7048 67.120832 
L 116.9379 67.124572 
L 117.0774 66.997102 
L 117.2448 66.311317 
L 117.5238 63.917772 
L 117.6075 59.915395 
L 117.6912 47.051978 
L 117.747 49.762102 
L 118.0539 64.574244 
L 118.1934 65.33106 
L 118.2213 65.305455 
L 118.3608 64.863791 
L 119.0025 61.623458 
L 119.0862 59.407651 
L 119.2536 52.461444 
L 119.3094 53.882124 
L 119.6163 61.635477 
L 119.7837 62.262706 
L 119.8953 62.176244 
L 120.1743 61.476448 
L 120.3975 60.520528 
L 120.7881 57.022506 
L 120.816 57.06744 
L 120.9555 57.926658 
L 121.2624 59.536736 
L 121.4577 59.680361 
L 121.6251 59.481897 
L 122.0436 58.889746 
L 122.5737 58.9834 
L 126.5355 59.209423 
L 127.6236 59.335337 
L 127.9026 59.396411 
L 129.0744 59.376761 
L 130.2462 59.407993 
L 130.8321 59.438677 
L 132.0039 59.529433 
L 132.5898 59.487721 
L 134.1243 59.560732 
L 134.6544 59.564044 
L 135.8541 59.697022 
L 136.4679 59.589743 
L 137.2491 59.773402 
L 137.556 59.857539 
L 138.0582 59.694766 
L 138.5604 59.634815 
L 139.2021 59.830815 
L 139.509 59.946928 
L 139.8996 59.823087 
L 140.4855 59.65353 
L 141.0993 59.801152 
L 141.4341 60.025659 
L 141.7689 59.968318 
L 142.6617 59.669386 
L 143.136 59.884362 
L 143.4708 60.128768 
L 143.7777 60.098838 
L 144.3636 59.721011 
L 144.7263 59.622103 
L 145.089 59.788647 
L 145.4517 60.180755 
L 145.7586 60.227227 
L 146.1492 60.020329 
L 146.8746 59.588177 
L 147.0978 59.70426 
L 147.5442 60.235414 
L 147.879 60.31627 
L 148.2417 60.13756 
L 149.0508 59.494659 
L 149.1066 59.569178 
L 149.8041 60.363606 
L 150.111 60.396396 
L 150.4458 60.199584 
L 150.8922 59.635306 
L 151.0875 59.463854 
L 151.3665 59.634257 
L 152.2872 60.506287 
L 152.5941 60.389794 
L 152.901 60.050914 
L 153.2079 59.649219 
L 153.5427 59.449119 
L 153.738 59.608185 
L 154.575 60.603838 
L 154.8819 60.542191 
L 155.1051 60.277812 
L 155.691 59.549762 
L 155.97 59.241355 
L 156.1374 59.407616 
L 157.0302 60.776569 
L 157.2255 60.690955 
L 157.3929 60.635376 
L 157.5882 60.572791 
L 157.8393 60.254948 
L 158.1462 59.428142 
L 158.4252 58.837064 
L 158.5368 58.938942 
L 158.7879 59.715835 
L 159.2064 60.821274 
L 159.4296 60.985097 
L 159.597 60.974941 
L 159.7923 61.016239 
L 160.0434 60.829352 
L 160.2945 60.354097 
L 160.6014 59.163152 
L 160.8525 58.260254 
L 160.8804 58.277839 
L 160.992 58.616745 
L 161.6337 61.139117 
L 161.8011 61.182681 
L 161.9685 61.28765 
L 162.1917 61.255681 
L 162.4707 60.949087 
L 162.7218 60.279041 
L 163.0008 58.803111 
L 163.1961 57.795947 
L 163.224 57.810457 
L 163.3356 58.274396 
L 163.8936 61.197563 
L 164.1168 61.458625 
L 164.3679 61.413773 
L 164.5632 61.35795 
L 164.8422 61.026392 
L 165.0654 60.421946 
L 165.3165 58.985625 
L 165.5397 57.484364 
L 165.5676 57.505656 
L 165.6792 58.085444 
L 166.1814 61.209851 
L 166.4325 61.599378 
L 166.6557 61.573265 
L 167.0184 61.247999 
L 167.2695 60.930321 
L 167.4927 60.296732 
L 167.7159 58.742797 
L 167.9112 57.366756 
L 167.9391 57.38841 
L 168.0507 58.004909 
L 168.5529 61.257959 
L 168.804 61.652482 
L 169.0272 61.630254 
L 169.1946 61.412495 
L 169.3899 61.180593 
L 169.5852 61.013696 
L 169.8363 60.46926 
L 170.0316 59.384593 
L 170.3106 57.336797 
L 170.3385 57.397575 
L 170.478 58.358322 
L 170.8965 61.150704 
L 171.1476 61.645983 
L 171.3708 61.669215 
L 171.594 61.450312 
L 171.8172 61.137681 
L 172.0125 60.948599 
L 172.2357 60.43736 
L 172.431 59.319372 
L 172.6821 57.31465 
L 172.7379 57.416542 
L 172.9332 58.943826 
L 173.2959 61.202726 
L 173.547 61.673414 
L 173.7702 61.678698 
L 173.9934 61.457662 
L 174.2166 61.120789 
L 174.4119 60.937322 
L 174.6351 60.427903 
L 174.8025 59.534469 
L 175.0815 57.293772 
L 175.1373 57.412685 
L 175.3326 58.973473 
L 175.6953 61.228367 
L 175.9464 61.69461 
L 176.1696 61.698737 
L 176.3928 61.47889 
L 176.6439 61.100021 
L 176.8392 60.884611 
L 177.0624 60.314783 
L 177.2298 59.273967 
L 177.4809 57.273566 
L 177.5367 57.412234 
L 177.7599 59.254559 
L 178.0947 61.256208 
L 178.3458 61.711647 
L 178.569 61.710204 
L 178.8201 61.440493 
L 179.0433 61.095136 
L 179.2386 60.881425 
L 179.4618 60.302045 
L 179.6292 59.240547 
L 179.8803 57.248475 
L 179.9082 57.29764 
L 180.0477 58.274896 
L 180.4662 61.194768 
L 180.7173 61.713762 
L 180.9405 61.737621 
L 181.1916 61.502914 
L 181.8891 60.155876 
L 182.0565 58.891156 
L 182.2797 57.228132 
L 182.3076 57.30078 
L 182.475 58.608661 
L 182.8656 61.24486 
L 183.1167 61.740143 
L 183.3399 61.751205 
L 183.591 61.506356 
L 184.2606 60.223187 
L 184.428 59.054829 
L 184.6512 57.195661 
L 184.6791 57.231895 
L 184.7907 57.941405 
L 185.265 61.303785 
L 185.5161 61.76536 
L 185.7393 61.760664 
L 185.9904 61.503976 
L 186.6879 60.106138 
L 186.8832 59.351735 
L 187.1622 58.06942 
L 187.1901 58.08525 
L 187.3017 58.532708 
L 188.3061 64.434878 
L 188.6967 64.996782 
L 189.1989 65.306985 
L 190.3986 65.683679 
L 193.5513 66.454161 
L 196.8156 66.974998 
L 201.3912 67.456749 
L 206.9991 67.825574 
L 214.0857 68.062652 
L 223.5159 68.151729 
L 240.5907 68.055262 
L 259.1721 67.870966 
L 259.1721 67.870966 
" style="fill:none;stroke:#000000;stroke-linecap:square;stroke-width:0.5;"/>
   </g>
  </g>
  <g id="axes_3">
   <g id="patch_4">
    <path d="M 36 99.234783 
L 259.2 99.234783 
L 259.2 75.130435 
L 36 75.130435 
z
" style="fill:#ffffff;"/>
   </g>
   <g id="matplotlib.axis_5"/>
   <g id="matplotlib.axis_6"/>
   <g id="line2d_3">
    <path clip-path="url(#pbb7367c28e)" d="M 36 95.971102 
L 44.7048 96.046049 
L 116.9658 96.049143 
L 117.189 95.93848 
L 117.4122 95.534835 
L 117.7749 94.292601 
L 117.8586 93.716951 
L 117.9702 90.50387 
L 118.0818 76.217711 
L 118.1655 81.248872 
L 118.4445 94.412198 
L 118.6398 96.167684 
L 118.7235 96.212459 
L 118.7514 96.183672 
L 118.9467 95.686286 
L 119.7 92.721587 
L 119.8395 91.364067 
L 119.8953 88.922224 
L 120.0069 77.428578 
L 120.0627 80.151547 
L 120.3696 93.727462 
L 120.5649 95.168732 
L 120.6486 95.195919 
L 120.6765 95.168772 
L 120.8718 94.710874 
L 121.7367 91.711702 
L 121.7925 90.427274 
L 121.9041 82.699078 
L 121.9599 78.466308 
L 122.0157 80.228585 
L 122.3226 92.989073 
L 122.5179 94.548217 
L 122.6295 94.622775 
L 122.6574 94.598647 
L 122.8527 94.190292 
L 123.6618 91.617653 
L 123.7455 89.669884 
L 123.8292 85.916917 
L 123.9129 79.354627 
L 123.9687 80.609524 
L 124.3035 92.904027 
L 124.4988 94.194554 
L 124.6104 94.254515 
L 124.6383 94.231827 
L 124.8336 93.852999 
L 125.6148 91.513125 
L 125.7264 89.027969 
L 125.8101 84.950058 
L 125.8938 79.905231 
L 125.9496 81.319472 
L 126.2844 92.651749 
L 126.4797 93.921029 
L 126.6192 93.991671 
L 126.8145 93.662493 
L 127.5399 91.651719 
L 127.6236 90.952081 
L 127.791 85.805762 
L 127.9026 80.423831 
L 127.9305 81.118552 
L 128.3211 92.876428 
L 128.5164 93.789314 
L 128.6559 93.792645 
L 128.8791 93.383326 
L 129.5766 91.489579 
L 129.6603 90.209364 
L 129.7998 86.500172 
L 129.9114 80.618719 
L 129.9672 81.882552 
L 130.3299 92.573694 
L 130.5531 93.679238 
L 130.6926 93.679644 
L 130.9158 93.290572 
L 131.6133 91.46666 
L 131.697 90.227265 
L 131.8644 85.411787 
L 131.9481 80.85362 
L 132.0039 81.586156 
L 132.3945 92.642033 
L 132.6177 93.631499 
L 132.7572 93.614805 
L 132.9804 93.227371 
L 133.6779 91.461174 
L 133.7616 90.249443 
L 133.929 86.025475 
L 134.0406 80.902526 
L 134.0685 81.387289 
L 134.5149 92.982134 
L 134.7102 93.627229 
L 134.8497 93.589012 
L 135.1008 93.131304 
L 135.7704 91.429318 
L 135.9378 88.810913 
L 136.0215 85.851523 
L 136.1331 80.941685 
L 136.161 81.481767 
L 136.6074 93.020554 
L 136.8027 93.65612 
L 136.9422 93.615592 
L 137.1933 93.160948 
L 137.8908 91.320631 
L 138.114 86.44322 
L 138.2256 80.823292 
L 138.2814 82.041912 
L 138.6441 92.536983 
L 138.8673 93.698777 
L 139.0068 93.725457 
L 139.2021 93.428395 
L 139.9554 91.628378 
L 140.0112 91.30072 
L 140.2344 85.761782 
L 140.346 80.75635 
L 140.3739 81.384983 
L 140.7924 93.050738 
L 140.9877 93.826954 
L 141.1272 93.812631 
L 141.3504 93.427663 
L 142.1037 91.583234 
L 142.1874 90.340435 
L 142.3548 85.442033 
L 142.4385 80.531571 
L 142.4943 81.420235 
L 142.8849 93.004358 
L 143.0802 93.935038 
L 143.2197 93.951971 
L 143.4429 93.571374 
L 144.252 91.50955 
L 144.4473 87.097249 
L 144.5589 80.284644 
L 144.6147 81.398561 
L 144.9774 92.917747 
L 145.2006 94.083636 
L 145.3401 94.073437 
L 145.5633 93.667314 
L 146.3724 91.574361 
L 146.5398 88.001998 
L 146.6793 80.05097 
L 146.7351 81.646801 
L 147.0699 92.859883 
L 147.2931 94.203298 
L 147.4326 94.215859 
L 147.6558 93.814138 
L 148.4928 91.626285 
L 148.6602 87.650697 
L 148.7718 79.886139 
L 148.8555 82.093678 
L 149.1624 92.845325 
L 149.3856 94.350883 
L 149.4972 94.399134 
L 149.5251 94.377898 
L 149.7204 94.035861 
L 150.6132 91.699236 
L 150.7527 88.485674 
L 150.8922 79.538169 
L 150.9759 82.455302 
L 151.2828 93.147935 
L 151.4781 94.463042 
L 151.5897 94.536177 
L 151.6176 94.517637 
L 151.8129 94.17842 
L 152.7336 91.784537 
L 152.8452 89.258898 
L 152.9289 85.067521 
L 153.0126 79.328471 
L 153.0684 81.081636 
L 153.4032 93.329708 
L 153.5985 94.586488 
L 153.7101 94.639462 
L 153.738 94.617016 
L 153.9612 94.187845 
L 154.854 91.853131 
L 154.9377 90.049177 
L 155.0493 85.01596 
L 155.133 79.16977 
L 155.1888 81.057053 
L 155.5236 93.455719 
L 155.7189 94.683733 
L 155.8305 94.725579 
L 155.8584 94.701505 
L 156.0816 94.260316 
L 157.0023 91.665713 
L 157.1697 84.961281 
L 157.2534 79.032957 
L 157.3092 81.040482 
L 157.6161 93.16263 
L 157.8114 94.724749 
L 157.923 94.826852 
L 157.9509 94.810838 
L 158.1462 94.469603 
L 159.1227 91.814969 
L 159.2622 87.635733 
L 159.3738 78.871781 
L 159.4296 80.74801 
L 159.7644 93.634834 
L 159.9597 94.870876 
L 160.0713 94.900202 
L 160.0992 94.872831 
L 160.3224 94.417671 
L 161.271 91.72225 
L 161.4105 86.841238 
L 161.5221 78.900389 
L 161.55 79.923424 
L 161.9127 93.886658 
L 162.108 94.95894 
L 162.2196 94.949657 
L 162.4428 94.503507 
L 163.4193 91.695405 
L 163.5588 86.482588 
L 163.6425 78.71364 
L 163.6983 80.125515 
L 164.0331 93.62825 
L 164.2284 94.974175 
L 164.34 95.01777 
L 164.3679 94.991662 
L 164.5911 94.533452 
L 165.5676 91.75261 
L 165.7071 86.526342 
L 165.7908 78.64572 
L 165.8466 80.084098 
L 166.1814 93.674503 
L 166.3767 95.021084 
L 166.4883 95.062766 
L 166.5162 95.036553 
L 166.7394 94.578175 
L 167.7159 91.868446 
L 167.8554 86.896057 
L 167.9391 78.651596 
L 167.9949 79.832003 
L 168.3297 93.66807 
L 168.525 95.066589 
L 168.6366 95.117086 
L 168.6645 95.091751 
L 168.8877 94.638936 
L 169.8642 91.992478 
L 169.9758 88.842326 
L 170.1153 78.470237 
L 170.199 82.591451 
L 170.478 93.614684 
L 170.6733 95.128773 
L 170.7849 95.194821 
L 170.8128 95.171627 
L 171.0081 94.793071 
L 172.0404 91.955859 
L 172.1799 86.882295 
L 172.2636 78.429885 
L 172.3194 79.79332 
L 172.6542 93.822421 
L 172.8495 95.188583 
L 172.9611 95.223493 
L 172.989 95.195486 
L 173.2122 94.728814 
L 174.2166 92.008963 
L 174.3561 87.105429 
L 174.4398 78.437038 
L 174.4956 79.633734 
L 174.8304 93.805473 
L 175.0257 95.209724 
L 175.1373 95.251964 
L 175.1652 95.224971 
L 175.3884 94.760948 
L 176.4207 91.719227 
L 176.5602 85.203754 
L 176.6439 78.290867 
L 176.6997 80.731045 
L 177.0066 93.687177 
L 177.2019 95.219261 
L 177.3135 95.285727 
L 177.3414 95.262472 
L 177.5367 94.882911 
L 178.5969 92.016917 
L 178.7364 86.862317 
L 178.8201 78.282248 
L 178.8759 79.785511 
L 179.2107 93.912584 
L 179.406 95.274781 
L 179.5176 95.308821 
L 179.5455 95.280563 
L 179.7687 94.810707 
L 180.801 91.979845 
L 180.9405 86.383034 
L 181.0242 78.170707 
L 181.08 80.078766 
L 181.3869 93.566138 
L 181.5822 95.258034 
L 181.6938 95.353612 
L 181.7217 95.334743 
L 181.917 94.970463 
L 183.0051 92.00885 
L 183.1446 86.443048 
L 183.2283 78.132369 
L 183.2841 80.035244 
L 183.591 93.583716 
L 183.7863 95.285597 
L 183.8979 95.382532 
L 183.9258 95.363894 
L 184.1211 95.000916 
L 185.2092 92.082057 
L 185.3208 88.599471 
L 185.4324 78.156757 
L 185.5161 81.429347 
L 185.7951 93.511117 
L 185.9904 95.303425 
L 186.102 95.415644 
L 186.1299 95.399411 
L 186.3252 95.044869 
L 186.66 94.123358 
L 186.7158 94.288776 
L 186.9948 94.704347 
L 187.3296 94.788158 
L 189.5895 94.777552 
L 195.6996 96.093092 
L 199.3266 96.413033 
L 204.6276 96.645066 
L 213.4161 96.787149 
L 227.5893 96.770346 
L 259.1721 96.533885 
L 259.1721 96.533885 
" style="fill:none;stroke:#000000;stroke-linecap:square;stroke-width:0.5;"/>
   </g>
  </g>
  <g id="axes_4">
   <g id="patch_5">
    <path d="M 36 128.16 
L 259.2 128.16 
L 259.2 104.055652 
L 36 104.055652 
z
" style="fill:#ffffff;"/>
   </g>
   <g id="matplotlib.axis_7"/>
   <g id="matplotlib.axis_8"/>
   <g id="line2d_4">
    <path clip-path="url(#p714c115925)" d="M 36 124.896319 
L 44.7048 124.971267 
L 117.189 124.972836 
L 118.305 124.837533 
L 120.4533 124.266461 
L 122.0436 123.797146 
L 122.1273 123.363108 
L 122.2947 119.394728 
L 122.4063 105.34477 
L 122.49 109.928275 
L 122.7969 124.192445 
L 123.0201 126.619824 
L 123.2433 127.152359 
L 123.4665 127.21865 
L 123.8292 127.03891 
L 124.6941 126.257922 
L 125.9496 125.213403 
L 127.0098 124.607 
L 128.2374 124.155809 
L 129.7719 123.840162 
L 131.8644 123.651885 
L 135.9099 123.567666 
L 160.4619 123.524858 
L 187.0227 123.60344 
L 190.0359 124.327955 
L 192.5748 124.662339 
L 195.7833 124.861336 
L 201.7539 124.974558 
L 219.5541 125.005475 
L 259.1721 124.993144 
L 259.1721 124.993144 
" style="fill:none;stroke:#000000;stroke-linecap:square;stroke-width:0.5;"/>
   </g>
  </g>
 </g>
 <defs>
  <clipPath id="pfaf027eaa1">
   <rect height="24.104348" width="223.2" x="36" y="17.28"/>
  </clipPath>
  <clipPath id="pf5a8865343">
   <rect height="24.104348" width="223.2" x="36" y="46.205217"/>
  </clipPath>
  <clipPath id="pbb7367c28e">
   <rect height="24.104348" width="223.2" x="36" y="75.130435"/>
  </clipPath>
  <clipPath id="p714c115925">
   <rect height="24.104348" width="223.2" x="36" y="104.055652"/>
  </clipPath>
 </defs>
</svg>
