<?xml version="1.0" encoding="utf-8" standalone="no"?>
<!DOCTYPE svg PUBLIC "-//W3C//DTD SVG 1.1//EN"
  "http://www.w3.org/Graphics/SVG/1.1/DTD/svg11.dtd">
<!-- Created with matplotlib (https://matplotlib.org/) -->
<svg height="144pt" version="1.1" viewBox="0 0 288 144" width="288pt" xmlns="http://www.w3.org/2000/svg" xmlns:xlink="http://www.w3.org/1999/xlink">
 <metadata>
  <rdf:RDF xmlns:cc="http://creativecommons.org/ns#" xmlns:dc="http://purl.org/dc/elements/1.1/" xmlns:rdf="http://www.w3.org/1999/02/22-rdf-syntax-ns#">
   <cc:Work>
    <dc:type rdf:resource="http://purl.org/dc/dcmitype/StillImage"/>
    <dc:date>2024-03-04T14:21:57.299776</dc:date>
    <dc:format>image/svg+xml</dc:format>
    <dc:creator>
     <cc:Agent>
      <dc:title>Matplotlib v3.3.4, https://matplotlib.org/</dc:title>
     </cc:Agent>
    </dc:creator>
   </cc:Work>
  </rdf:RDF>
 </metadata>
 <defs>
  <style type="text/css">*{stroke-linecap:butt;stroke-linejoin:round;}</style>
 </defs>
 <g id="figure_1">
  <g id="patch_1">
   <path d="M 0 144 
L 288 144 
L 288 0 
L 0 0 
z
" style="fill:#ffffff;"/>
  </g>
  <g id="axes_1">
   <g id="patch_2">
    <path d="M 36 36.397241 
L 259.2 36.397241 
L 259.2 17.28 
L 36 17.28 
z
" style="fill:#ffffff;"/>
   </g>
   <g id="matplotlib.axis_1"/>
   <g id="matplotlib.axis_2"/>
   <g id="line2d_1">
    <path clip-path="url(#p43abb562b1)" d="M 36 33.808805 
L 46.1556 33.869593 
L 116.9658 33.853225 
L 117.0495 33.616589 
L 117.2169 32.009837 
L 117.3285 30.182193 
L 117.4401 17.786314 
L 117.5238 21.922344 
L 117.7749 30.437443 
L 117.8586 30.707272 
L 117.8865 30.666893 
L 118.1376 29.731623 
L 118.4724 28.006649 
L 118.6956 25.8637 
L 118.7235 25.93529 
L 119.142 27.302255 
L 119.3373 27.173395 
L 119.7279 26.882974 
L 120.0627 26.966086 
L 120.7044 26.913682 
L 126.2565 27.256147 
L 133.9848 27.509241 
L 146.3166 27.664965 
L 173.0727 27.739029 
L 186.6879 27.847424 
L 187.2738 29.685491 
L 187.6644 30.197736 
L 188.1945 30.494945 
L 192.24 32.008596 
L 194.472 32.513251 
L 197.9595 33.062413 
L 203.5674 33.72388 
L 209.3148 34.195107 
L 215.6481 34.505871 
L 223.767 34.68485 
L 235.8477 34.719141 
L 259.1721 34.557393 
L 259.1721 34.557393 
" style="fill:none;stroke:#000000;stroke-linecap:square;stroke-width:0.5;"/>
   </g>
  </g>
  <g id="axes_2">
   <g id="patch_3">
    <path d="M 36 59.337931 
L 259.2 59.337931 
L 259.2 40.22069 
L 36 40.22069 
z
" style="fill:#ffffff;"/>
   </g>
   <g id="matplotlib.axis_3"/>
   <g id="matplotlib.axis_4"/>
   <g id="line2d_2">
    <path clip-path="url(#pa6c2d3eaa5)" d="M 36 56.749494 
L 46.1556 56.810283 
L 117.0216 56.763776 
L 117.1611 56.362755 
L 117.4122 54.561306 
L 117.4959 53.03723 
L 117.6075 40.847504 
L 117.6912 44.63903 
L 117.9423 54.134588 
L 118.0818 54.873776 
L 118.1097 54.846387 
L 118.2771 54.339178 
L 118.8351 51.80398 
L 119.0583 46.551326 
L 119.142 47.39125 
L 119.4489 51.405915 
L 119.6163 51.679212 
L 119.7558 51.521605 
L 120.0069 50.808123 
L 120.2859 49.823276 
L 120.3138 49.834692 
L 121.1508 50.138854 
L 121.9041 50.159124 
L 122.1831 50.196141 
L 122.9922 50.185069 
L 126.5913 50.353288 
L 140.8482 50.709945 
L 141.7689 50.773088 
L 142.1037 50.808776 
L 143.1081 50.763651 
L 144.3636 50.75867 
L 145.2564 50.854739 
L 145.6191 50.85417 
L 146.4282 50.795762 
L 147.7116 50.808279 
L 148.5765 50.822915 
L 148.9671 50.930266 
L 150.3621 50.862641 
L 150.669 50.955798 
L 153.9054 50.901265 
L 154.2123 50.997031 
L 154.8819 50.863932 
L 155.6631 50.895473 
L 155.9979 51.016142 
L 156.5559 50.893534 
L 157.1418 50.887519 
L 158.2299 50.937468 
L 158.8158 50.878709 
L 160.155 50.919153 
L 160.713 50.89802 
L 161.8569 50.962558 
L 162.4428 50.890886 
L 163.8378 50.932775 
L 164.3958 50.908592 
L 165.5118 50.990022 
L 166.1256 50.899288 
L 166.7952 51.085825 
L 167.1579 51.067242 
L 168.0228 50.90632 
L 169.2783 50.98692 
L 169.8642 50.906154 
L 170.478 51.094194 
L 170.8407 51.096459 
L 171.8172 50.92103 
L 172.9053 51.035292 
L 173.547 50.901732 
L 174.105 51.057189 
L 174.4398 51.139764 
L 174.9699 50.973941 
L 175.5 50.912803 
L 176.0859 51.113039 
L 176.4486 51.121931 
L 177.4809 50.929968 
L 178.5132 51.067448 
L 179.2107 50.901788 
L 179.7408 51.06126 
L 180.0756 51.161525 
L 180.522 51.024732 
L 181.1079 50.904341 
L 181.638 51.063409 
L 181.9728 51.16637 
L 182.4192 51.028211 
L 183.0051 50.900349 
L 183.5352 51.065247 
L 183.87 51.174901 
L 184.2885 51.045718 
L 184.9023 50.897236 
L 185.4324 51.057851 
L 185.7672 51.178022 
L 186.1857 51.0552 
L 186.66 50.9009 
L 186.9948 52.050119 
L 187.4691 53.447649 
L 187.8876 53.993915 
L 188.4456 54.329764 
L 190.3149 55.021799 
L 192.5748 55.670535 
L 194.9742 56.124081 
L 199.1871 56.648759 
L 204.8787 57.122909 
L 211.2399 57.439321 
L 219.8052 57.628226 
L 233.3367 57.654112 
L 259.1721 57.464287 
L 259.1721 57.464287 
" style="fill:none;stroke:#000000;stroke-linecap:square;stroke-width:0.5;"/>
   </g>
  </g>
  <g id="axes_3">
   <g id="patch_4">
    <path d="M 36 82.278621 
L 259.2 82.278621 
L 259.2 63.161379 
L 36 63.161379 
z
" style="fill:#ffffff;"/>
   </g>
   <g id="matplotlib.axis_5"/>
   <g id="matplotlib.axis_6"/>
   <g id="line2d_3">
    <path clip-path="url(#p54344b190e)" d="M 36 79.690184 
L 46.1556 79.750973 
L 117.0216 79.714198 
L 117.1611 79.387979 
L 117.3843 78.063675 
L 117.5238 76.353277 
L 117.5796 72.729821 
L 117.6633 64.007311 
L 117.7191 66.7595 
L 117.9981 77.406096 
L 118.1376 78.06459 
L 118.1655 78.039469 
L 118.3329 77.554282 
L 118.9188 74.979896 
L 119.142 68.823518 
L 119.2257 70.017812 
L 119.5326 74.844599 
L 119.7 75.175004 
L 119.8395 75.027451 
L 120.1185 74.301733 
L 120.2859 73.167884 
L 120.5091 72.485862 
L 120.6207 72.546994 
L 121.1787 73.318023 
L 122.0715 73.186026 
L 122.3784 73.200929 
L 123.0759 73.181337 
L 125.3358 73.27731 
L 125.5311 73.323859 
L 125.8659 73.341661 
L 126.675 73.342583 
L 129.5766 73.440746 
L 130.6647 73.476157 
L 130.9716 73.535209 
L 132.3666 73.510069 
L 132.7572 73.581001 
L 133.7337 73.561719 
L 135.7425 73.600113 
L 135.9378 73.643948 
L 136.2726 73.671963 
L 137.1933 73.638751 
L 138.4767 73.647033 
L 139.4532 73.715845 
L 139.788 73.754931 
L 140.8203 73.709785 
L 142.0758 73.709975 
L 142.9965 73.769952 
L 143.3034 73.838184 
L 144.81 73.809923 
L 145.1448 73.866724 
L 146.3445 73.804986 
L 147.4326 73.792477 
L 148.0464 73.807613 
L 149.1066 73.85547 
L 149.7204 73.802694 
L 151.0875 73.844213 
L 151.6734 73.829761 
L 152.7894 73.906203 
L 153.4032 73.825163 
L 154.8819 73.867381 
L 155.4399 73.857404 
L 156.5559 73.945271 
L 157.1976 73.844734 
L 157.8114 74.017596 
L 158.1462 74.060334 
L 159.5133 73.898213 
L 160.0155 74.08581 
L 161.4663 73.947837 
L 161.8011 74.106945 
L 162.1917 74.029727 
L 162.9171 73.855604 
L 163.4193 74.000468 
L 163.7541 74.133665 
L 164.1447 74.037569 
L 164.8422 73.852373 
L 165.3165 73.990694 
L 165.6513 74.148889 
L 166.014 74.078932 
L 166.8231 73.859541 
L 167.2695 74.019674 
L 167.6322 74.166084 
L 168.0228 74.066463 
L 168.7761 73.85581 
L 169.1946 74.02024 
L 169.5573 74.185191 
L 169.9479 74.092997 
L 170.7291 73.849959 
L 171.1197 74.006565 
L 171.4824 74.194182 
L 171.8451 74.132399 
L 172.7937 73.865605 
L 173.0448 73.980823 
L 173.4075 74.19478 
L 173.7702 74.15816 
L 174.8862 73.868003 
L 175.5 74.220419 
L 175.9185 74.093472 
L 176.6718 73.843755 
L 176.9508 73.970179 
L 177.3414 74.21242 
L 177.7041 74.185848 
L 178.848 73.887639 
L 179.2665 74.198952 
L 179.6292 74.207821 
L 180.2151 73.933492 
L 180.6894 73.816704 
L 180.8568 73.932417 
L 181.2753 74.211997 
L 181.638 74.204635 
L 182.2797 73.900093 
L 182.7261 73.823976 
L 183.4794 74.239122 
L 183.9258 74.090917 
L 184.6791 73.803498 
L 184.986 74.070315 
L 185.4045 74.240726 
L 185.823 74.141177 
L 186.66 73.804924 
L 186.9669 74.993423 
L 187.4412 76.515797 
L 187.8318 77.076827 
L 188.334 77.407573 
L 189.6453 77.891068 
L 192.1842 78.659058 
L 194.6115 79.13427 
L 197.9037 79.559872 
L 202.9815 80.004421 
L 209.5101 80.352345 
L 217.629 80.552169 
L 229.3749 80.601291 
L 251.8623 80.454113 
L 259.1721 80.393894 
L 259.1721 80.393894 
" style="fill:none;stroke:#000000;stroke-linecap:square;stroke-width:0.5;"/>
   </g>
  </g>
  <g id="axes_4">
   <g id="patch_5">
    <path d="M 36 105.21931 
L 259.2 105.21931 
L 259.2 86.102069 
L 36 86.102069 
z
" style="fill:#ffffff;"/>
   </g>
   <g id="matplotlib.axis_7"/>
   <g id="matplotlib.axis_8"/>
   <g id="line2d_4">
    <path clip-path="url(#p931858d546)" d="M 36 102.630874 
L 46.1556 102.691662 
L 117.1053 102.644722 
L 117.3006 102.378092 
L 117.6075 101.446738 
L 117.7749 100.382547 
L 117.8865 95.766894 
L 117.9702 87.011736 
L 118.026 89.570793 
L 118.3329 101.339499 
L 118.5282 102.451683 
L 118.6398 102.358489 
L 118.9188 101.560198 
L 119.5884 98.991224 
L 119.6721 96.011722 
L 119.7558 88.539776 
L 119.8395 90.814639 
L 120.1185 100.144743 
L 120.3138 101.290994 
L 120.4254 101.267633 
L 120.6486 100.800174 
L 121.3182 98.819882 
L 121.4298 96.45303 
L 121.5693 90.173598 
L 121.653 92.098251 
L 121.9599 99.549256 
L 122.1552 100.380001 
L 122.2947 100.359444 
L 122.5458 99.922795 
L 123.0759 98.514216 
L 123.2991 94.765192 
L 123.4107 91.800531 
L 123.4665 92.291425 
L 123.885 98.983225 
L 124.1082 99.507124 
L 124.2756 99.448058 
L 124.5825 99.000183 
L 124.8615 98.324785 
L 125.2242 95.02843 
L 125.3637 93.094724 
L 125.3916 93.251606 
L 126.0054 98.583486 
L 126.2286 98.735968 
L 126.4518 98.594236 
L 126.7029 98.193966 
L 127.1214 96.669967 
L 127.3725 94.054231 
L 127.4841 94.552231 
L 127.9305 97.679616 
L 128.2095 98.188193 
L 128.4327 98.210799 
L 128.6838 97.973576 
L 129.1302 96.990892 
L 129.3255 95.7781 
L 129.4929 94.753842 
L 129.5208 94.774505 
L 129.6324 95.268545 
L 130.0788 97.482406 
L 130.3578 97.916603 
L 130.6089 97.95299 
L 130.86 97.74403 
L 131.3064 96.918824 
L 131.5296 95.777943 
L 131.697 95.171451 
L 131.7249 95.201853 
L 131.8644 95.731602 
L 132.3108 97.470253 
L 132.6177 97.865062 
L 132.8688 97.885346 
L 133.1478 97.663635 
L 133.6221 96.769234 
L 133.9848 95.310818 
L 134.0685 95.497055 
L 134.7939 97.833004 
L 135.0729 97.974735 
L 135.3519 97.866653 
L 135.603 97.520236 
L 135.9936 96.771175 
L 136.3284 95.212092 
L 136.4121 95.367471 
L 137.2212 98.048457 
L 137.5002 98.125585 
L 137.7792 97.967426 
L 138.2256 97.377382 
L 138.4209 96.827467 
L 138.7557 94.98555 
L 138.8394 95.208664 
L 139.5369 98.125255 
L 139.8159 98.313239 
L 140.0949 98.2187 
L 140.346 97.925947 
L 140.5971 97.610149 
L 140.7924 97.242023 
L 140.9598 96.469998 
L 141.2109 94.723767 
L 141.2667 94.850766 
L 141.5457 96.724397 
L 141.8805 98.104975 
L 142.1595 98.459572 
L 142.4106 98.453948 
L 142.7175 98.193993 
L 143.3313 97.119837 
L 143.4987 95.956017 
L 143.694 94.490939 
L 143.7219 94.553183 
L 143.8893 95.75694 
L 144.252 97.970561 
L 144.531 98.549462 
L 144.7821 98.621423 
L 145.089 98.433271 
L 145.3122 98.053037 
L 145.5075 97.840617 
L 145.7028 97.568628 
L 145.8981 96.849172 
L 146.0934 94.740705 
L 146.1771 94.275163 
L 146.2329 94.425919 
L 147.0141 98.681664 
L 147.2652 98.744368 
L 147.5721 98.545734 
L 147.7953 98.17169 
L 147.9906 97.911708 
L 148.158 97.735183 
L 148.3533 97.211957 
L 148.4928 96.19558 
L 148.6881 94.102026 
L 148.7439 94.263505 
L 149.4972 98.77257 
L 149.7204 98.858532 
L 149.9994 98.712894 
L 150.2784 98.34285 
L 150.5295 97.950733 
L 150.6969 97.760861 
L 150.8922 97.206128 
L 151.0317 96.064476 
L 151.227 93.958551 
L 151.2549 94.05045 
L 151.4502 95.983431 
L 151.785 98.345665 
L 152.0361 98.888565 
L 152.2593 98.943909 
L 152.5662 98.749895 
L 152.8173 98.387134 
L 153.0405 97.994026 
L 153.18 97.891655 
L 153.3753 97.481771 
L 153.5148 96.762831 
L 153.7659 93.827109 
L 153.8496 94.345584 
L 154.3518 98.526859 
L 154.6029 98.993039 
L 154.8261 99.009901 
L 155.1609 98.7591 
L 155.3841 98.38736 
L 155.5794 98.012421 
L 155.7189 97.935228 
L 155.9142 97.555087 
L 156.0816 96.676005 
L 156.3048 93.724956 
L 156.3885 94.143717 
L 156.9186 98.658656 
L 157.1697 99.074249 
L 157.3929 99.066044 
L 157.7556 98.765635 
L 157.9509 98.408701 
L 158.1462 98.026503 
L 158.2857 97.952727 
L 158.481 97.571783 
L 158.6484 96.67101 
L 158.8716 93.623303 
L 158.9553 94.11775 
L 159.4575 98.6578 
L 159.7086 99.129904 
L 159.9318 99.134739 
L 160.2945 98.843407 
L 160.5177 98.463672 
L 160.7409 98.048081 
L 160.8804 97.951932 
L 161.0757 97.536187 
L 161.2152 96.77286 
L 161.4384 93.536835 
L 161.55 94.302703 
L 161.9685 98.471402 
L 162.2196 99.147415 
L 162.4428 99.214318 
L 162.7497 99.011135 
L 163.0845 98.5467 
L 163.3356 98.057844 
L 163.4751 97.951394 
L 163.6704 97.511425 
L 163.8099 96.659524 
L 164.0331 93.444106 
L 164.1168 94.092997 
L 164.5632 98.615155 
L 164.8143 99.230192 
L 165.0375 99.266917 
L 165.3723 99.014901 
L 165.6792 98.560325 
L 165.8745 98.041552 
L 165.9024 98.052607 
L 166.0419 97.987271 
L 166.2372 97.587068 
L 166.3767 96.840758 
L 166.5162 94.389337 
L 166.5999 93.361785 
L 166.6557 93.572636 
L 167.2974 99.159731 
L 167.5206 99.341224 
L 167.7717 99.225203 
L 168.1902 98.764866 
L 168.3297 98.32595 
L 168.4692 98.037844 
L 168.4971 98.050927 
L 168.6366 97.979143 
L 168.8319 97.551397 
L 168.9714 96.707504 
L 169.1946 93.281893 
L 169.2783 94.018496 
L 169.7247 98.7543 
L 169.9758 99.350819 
L 170.1711 99.378084 
L 170.5059 99.121416 
L 170.8407 98.655125 
L 171.0639 98.047171 
L 171.1197 98.069399 
L 171.2592 97.945586 
L 171.4545 97.433318 
L 171.594 96.260885 
L 171.7614 93.205958 
L 171.8172 93.417833 
L 172.4589 99.277944 
L 172.6821 99.447562 
L 172.9332 99.312749 
L 173.4075 98.747648 
L 173.826 97.981908 
L 174.0213 97.525352 
L 174.1608 96.538273 
L 174.3561 93.112713 
L 174.4398 93.81538 
L 174.8862 98.845216 
L 175.1373 99.458537 
L 175.3326 99.481236 
L 175.6395 99.234585 
L 176.0301 98.682672 
L 176.2254 98.019532 
L 176.3091 98.055689 
L 176.4486 97.923542 
L 176.616 97.470808 
L 176.7555 96.308443 
L 176.9229 93.045774 
L 177.0066 93.640225 
L 177.4809 98.985999 
L 177.7041 99.502463 
L 177.8994 99.530535 
L 178.2063 99.284526 
L 178.5969 98.74459 
L 178.9317 98.009278 
L 179.0991 97.726891 
L 179.2386 97.107919 
L 179.3502 95.520639 
L 179.4897 92.965136 
L 179.5176 93.10257 
L 179.7687 96.833058 
L 180.0477 99.094432 
L 180.2709 99.561653 
L 180.4662 99.56836 
L 180.801 99.275592 
L 181.1637 98.756147 
L 181.4985 97.977868 
L 181.6659 97.609198 
L 181.8054 96.705539 
L 182.0007 92.86421 
L 182.0844 93.575663 
L 182.5308 99.005345 
L 182.754 99.597704 
L 182.9493 99.640289 
L 183.2562 99.390194 
L 183.7026 98.744019 
L 183.9258 97.970883 
L 183.9816 97.991778 
L 184.0932 97.853894 
L 184.2606 97.199447 
L 184.3722 95.697339 
L 184.5117 92.748526 
L 184.5675 93.174769 
L 185.0697 99.241792 
L 185.2929 99.698791 
L 185.4882 99.687364 
L 185.8509 99.334674 
L 186.2136 98.779365 
L 186.5205 97.948233 
L 186.6879 97.594049 
L 186.8274 96.942863 
L 186.939 94.978417 
L 187.0506 92.818739 
L 187.1064 93.209332 
L 187.7202 100.579742 
L 188.0271 101.52993 
L 188.334 101.87479 
L 188.7246 101.991857 
L 200.9727 103.105079 
L 208.0593 103.329069 
L 218.0196 103.424513 
L 237.5217 103.346684 
L 259.1721 103.189802 
L 259.1721 103.189802 
" style="fill:none;stroke:#000000;stroke-linecap:square;stroke-width:0.5;"/>
   </g>
  </g>
  <g id="axes_5">
   <g id="patch_6">
    <path d="M 36 128.16 
L 259.2 128.16 
L 259.2 109.042759 
L 36 109.042759 
z
" style="fill:#ffffff;"/>
   </g>
   <g id="matplotlib.axis_9"/>
   <g id="matplotlib.axis_10"/>
   <g id="line2d_5">
    <path clip-path="url(#p1a68ad6d58)" d="M 36 125.571563 
L 46.1556 125.632352 
L 117.7749 125.579343 
L 119.0304 125.265493 
L 120.1464 124.812438 
L 120.2301 124.33477 
L 120.3975 120.633816 
L 120.5091 110.159689 
L 120.5649 112.700326 
L 120.8718 124.745505 
L 121.095 126.874067 
L 121.3182 127.323638 
L 121.5693 127.357222 
L 121.9599 127.143615 
L 124.6383 125.048912 
L 124.722 124.490056 
L 124.8894 120.712518 
L 125.001 110.098278 
L 125.0568 112.647013 
L 125.3637 124.786437 
L 125.5869 126.894711 
L 125.8101 127.321315 
L 126.0612 127.339508 
L 126.4797 127.087162 
L 129.0186 125.19531 
L 130.1625 124.765423 
L 131.5854 124.474934 
L 132.8967 124.189472 
L 132.9525 123.904735 
L 133.1199 120.202466 
L 133.2036 110.443575 
L 133.2873 113.004731 
L 133.5942 124.727359 
L 133.8174 126.784564 
L 134.0406 127.228711 
L 134.2917 127.256786 
L 134.6823 127.0297 
L 137.3886 125.108462 
L 138.5883 124.718776 
L 140.1507 124.463426 
L 142.4943 124.331066 
L 148.716 124.293737 
L 187.0785 124.333826 
L 189.6732 124.998577 
L 192.0168 125.338885 
L 195.4206 125.567314 
L 200.9727 125.679009 
L 217.4895 125.70566 
L 259.1721 125.672239 
L 259.1721 125.672239 
" style="fill:none;stroke:#000000;stroke-linecap:square;stroke-width:0.5;"/>
   </g>
  </g>
 </g>
 <defs>
  <clipPath id="p43abb562b1">
   <rect height="19.117241" width="223.2" x="36" y="17.28"/>
  </clipPath>
  <clipPath id="pa6c2d3eaa5">
   <rect height="19.117241" width="223.2" x="36" y="40.22069"/>
  </clipPath>
  <clipPath id="p54344b190e">
   <rect height="19.117241" width="223.2" x="36" y="63.161379"/>
  </clipPath>
  <clipPath id="p931858d546">
   <rect height="19.117241" width="223.2" x="36" y="86.102069"/>
  </clipPath>
  <clipPath id="p1a68ad6d58">
   <rect height="19.117241" width="223.2" x="36" y="109.042759"/>
  </clipPath>
 </defs>
</svg>
